NewsreaderDisplay-Medium.ufo
<glyph name="exclam" format="2">
	<unicode hex="0021"/>
	<advance width="534.4"/>
	<outline>
		<contour>
			<point x="430" y="1324.8" type="line" smooth="yes"/>
			<point x="430" y="1408.4"/>
			<point x="349.2" y="1452"/>
			<point x="268.4" y="1452" type="curve" smooth="yes"/>
			<point x="187.6" y="1452"/>
			<point x="106" y="1408.4"/>
			<point x="106" y="1324.8" type="curve" smooth="yes"/>
			<point x="106" y="1300" type="line" smooth="yes"/>
			<point x="106" y="1230.8"/>
			<point x="197" y="992"/>
			<point x="249.6" y="481" type="curve"/>
			<point x="284.8" y="481" type="line"/>
			<point x="337.4" y="992"/>
			<point x="430" y="1231.6"/>
			<point x="430" y="1300" type="curve" smooth="yes"/>
		</contour>
		<contour>
			<point x="268.4" y="286.4" type="curve" smooth="yes"/>
			<point x="177.4" y="286.4"/>
			<point x="112.4" y="219.4"/>
			<point x="112.4" y="133.2" type="curve" smooth="yes"/>
			<point x="112.4" y="47"/>
			<point x="177.4" y="-20"/>
			<point x="268.4" y="-20" type="curve" smooth="yes"/>
			<point x="359.4" y="-20"/>
			<point x="424.4" y="47"/>
			<point x="424.4" y="133.2" type="curve" smooth="yes"/>
			<point x="424.4" y="219.4"/>
			<point x="359.4" y="286.4"/>
		</contour>
	</outline>
</glyph>
<glyph name="ampersand" format="2">
	<unicode hex="0026"/>
	<advance width="1534.2"/>
	<outline>
		<contour>
			<point x="660.4" y="839" type="line"/>
			<point x="923.8" y="948.2"/>
			<point x="1008" y="1051.6"/>
			<point x="1008" y="1190" type="curve" smooth="yes"/>
			<point x="1008" y="1332.8"/>
			<point x="896.4" y="1452"/>
			<point x="666.6" y="1452" type="curve" smooth="yes"/>
			<point x="403.2" y="1452"/>
			<point x="268.2" y="1304.6"/>
			<point x="268.2" y="1120.2" type="curve" smooth="yes"/>
			<point x="268.2" y="1016.4"/>
			<point x="304.4" y="919.2"/>
			<point x="430.2" y="776.8" type="curve" smooth="yes"/>
			<point x="1112.6" y="0" type="line"/>
			<point x="1532.4" y="0" type="line"/>
			<point x="1532.4" y="29.6" type="line"/>
			<point x="1349.6" y="75.8" type="line"/>
			<point x="632.4" y="881.6" type="line" smooth="yes"/>
			<point x="506" y="1023.4"/>
			<point x="463.2" y="1112.2"/>
			<point x="463.2" y="1215.4" type="curve" smooth="yes"/>
			<point x="463.2" y="1330.2"/>
			<point x="542.2" y="1400.6"/>
			<point x="654" y="1400.6" type="curve" smooth="yes"/>
			<point x="765" y="1400.6"/>
			<point x="827" y="1326.4"/>
			<point x="827" y="1188" type="curve" smooth="yes"/>
			<point x="827" y="1067.2"/>
			<point x="773" y="963"/>
			<point x="624.2" y="861" type="curve"/>
			<point x="489.6" y="789.8" type="line"/>
			<point x="191" y="663.6"/>
			<point x="101.2" y="523.4"/>
			<point x="101.2" y="342.8" type="curve" smooth="yes"/>
			<point x="101.2" y="130.2"/>
			<point x="240.8" y="-22"/>
			<point x="519.2" y="-22" type="curve" smooth="yes"/>
			<point x="724.6" y="-22"/>
			<point x="885.8" y="58.4"/>
			<point x="1027.2" y="228.4" type="curve"/>
			<point x="1064.6" y="264.2" type="line"/>
			<point x="1169.8" y="402.6"/>
			<point x="1251.8" y="574.4"/>
			<point x="1311.2" y="805.6" type="curve"/>
			<point x="1478.8" y="844" type="line"/>
			<point x="1478.8" y="874" type="line"/>
			<point x="1011.6" y="874" type="line"/>
			<point x="1011.6" y="844" type="line"/>
			<point x="1181.6" y="805.6" type="line"/>
			<point x="1162.6" y="574.2"/>
			<point x="1108.8" y="416.4"/>
			<point x="1035" y="312.6" type="curve"/>
			<point x="987.8" y="264.6" type="line"/>
			<point x="900.8" y="169.6"/>
			<point x="793.8" y="123"/>
			<point x="663.2" y="123" type="curve" smooth="yes"/>
			<point x="455.8" y="123"/>
			<point x="328.4" y="255.2"/>
			<point x="328.4" y="443.6" type="curve" smooth="yes"/>
			<point x="328.4" y="571.6"/>
			<point x="379.2" y="684.4"/>
			<point x="513.8" y="773.8" type="curve"/>
		</contour>
	</outline>
</glyph>
<glyph name="quotesingle" format="2">
	<unicode hex="0027"/>
	<advance width="381.2"/>
	<outline>
		<contour>
			<point x="168.8" y="911.2" type="line"/>
			<point x="202.4" y="911.2" type="line"/>
			<point x="314.8" y="1394.8" type="line"/>
			<point x="314.8" y="1430" type="line"/>
			<point x="72" y="1430" type="line"/>
			<point x="72" y="1394.8" type="line"/>
		</contour>
	</outline>
</glyph>
<glyph name="parenleft" format="2">
	<unicode hex="0028"/>
	<advance width="556.6"/>
	<outline>
		<contour>
			<point x="247.2" y="620.4" type="curve" smooth="yes"/>
			<point x="247.2" y="911.6"/>
			<point x="305.6" y="1131.8"/>
			<point x="505.2" y="1469.2" type="curve"/>
			<point x="477.6" y="1486" type="line"/>
			<point x="157.6" y="1073.4"/>
			<point x="76" y="898.4"/>
			<point x="76" y="620.4" type="curve" smooth="yes"/>
			<point x="76" y="342.4"/>
			<point x="157.6" y="166.6"/>
			<point x="477.6" y="-246" type="curve"/>
			<point x="505.2" y="-229.2" type="line"/>
			<point x="305.6" y="108.2"/>
			<point x="247.2" y="329.4"/>
		</contour>
	</outline>
</glyph>
<glyph name="parenright" format="2">
	<unicode hex="0029"/>
	<advance width="556.6"/>
	<outline>
		<contour>
			<point x="309.4" y="620.4" type="curve" smooth="yes"/>
			<point x="309.4" y="329.4"/>
			<point x="251" y="109"/>
			<point x="51.4" y="-228.4" type="curve"/>
			<point x="79" y="-245.2" type="line"/>
			<point x="399" y="167.4"/>
			<point x="480.6" y="342.4"/>
			<point x="480.6" y="620.4" type="curve" smooth="yes"/>
			<point x="480.6" y="898.4"/>
			<point x="399" y="1074.2"/>
			<point x="79" y="1486.8" type="curve"/>
			<point x="51.4" y="1470" type="line"/>
			<point x="251" y="1132.6"/>
			<point x="309.4" y="911.4"/>
		</contour>
	</outline>
</glyph>
<glyph name="asterisk" format="2">
	<unicode hex="002A"/>
	<advance width="788"/>
	<outline>
		<contour>
			<point x="532" y="856.8" type="line"/>
			<point x="471.4" y="1097.6" type="line"/>
			<point x="711.4" y="1155.2" type="line"/>
			<point x="709.4" y="1182.4" type="line"/>
			<point x="463.6" y="1198.8" type="line"/>
			<point x="488.8" y="1447" type="line"/>
			<point x="462" y="1454.2" type="line"/>
			<point x="366" y="1223" type="line"/>
			<point x="136.2" y="1322" type="line"/>
			<point x="121" y="1296.8" type="line"/>
			<point x="312.2" y="1137.2" type="line"/>
			<point x="148.4" y="950.2" type="line"/>
			<point x="167.2" y="929.6" type="line"/>
			<point x="378" y="1059.2" type="line"/>
			<point x="507.2" y="847" type="line"/>
		</contour>
	</outline>
</glyph>
<glyph name="plus" format="2">
  <advance width="1150.0"/>
  <unicode hex="002B"/>
  <outline>
    <contour>
      <point x="539.0" y="923.0" type="line"/>
      <point x="539.0" y="101.0" type="line"/>
      <point x="611.0" y="101.0" type="line"/>
      <point x="611.0" y="923.0" type="line"/>
    </contour>
    <contour>
      <point x="986.0" y="548.0" type="line"/>
      <point x="164.0" y="548.0" type="line"/>
      <point x="164.0" y="476.0" type="line"/>
      <point x="986.0" y="476.0" type="line"/>
    </contour>
  </outline>
</glyph>
<glyph name="comma" format="2">
	<unicode hex="002C"/>
	<advance width="487.4"/>
	<outline>
		<contour>
			<point x="74.4" y="-298.6" type="curve"/>
			<point x="101.6" y="-326.4" type="line"/>
			<point x="315.4" y="-187.4"/>
			<point x="395" y="-40.6"/>
			<point x="395" y="101.4" type="curve" smooth="yes"/>
			<point x="395" y="212.2"/>
			<point x="330" y="276.8"/>
			<point x="238.2" y="276.8" type="curve" smooth="yes"/>
			<point x="145.6" y="276.8"/>
			<point x="84.6" y="219"/>
			<point x="84.6" y="132.8" type="curve" smooth="yes"/>
			<point x="84.6" y="97.4"/>
			<point x="236.4" y="60.4"/>
			<point x="236.4" y="-47" type="curve" smooth="yes"/>
			<point x="236.4" y="-143.4"/>
			<point x="182.2" y="-217.2"/>
		</contour>
	</outline>
</glyph>
<glyph name="hyphen" format="2">
	<unicode hex="002D"/>
	<advance width="658.4"/>
	<outline>
		<contour>
			<point x="120.8" y="582" type="line"/>
			<point x="120.8" y="453.2" type="line"/>
			<point x="537.6" y="453.2" type="line"/>
			<point x="537.6" y="582" type="line"/>
		</contour>
	</outline>
</glyph>
<glyph name="period" format="2">
	<unicode hex="002E"/>
	<advance width="484.4"/>
	<outline>
		<contour>
			<point x="242.2" y="286.4" type="curve" smooth="yes"/>
			<point x="151.2" y="286.4"/>
			<point x="86.2" y="219.4"/>
			<point x="86.2" y="133.2" type="curve" smooth="yes"/>
			<point x="86.2" y="47"/>
			<point x="151.2" y="-20"/>
			<point x="242.2" y="-20" type="curve" smooth="yes"/>
			<point x="333.2" y="-20"/>
			<point x="398.2" y="47"/>
			<point x="398.2" y="133.2" type="curve" smooth="yes"/>
			<point x="398.2" y="219.4"/>
			<point x="333.2" y="286.4"/>
		</contour>
	</outline>
</glyph>
<glyph name="slash" format="2">
  <advance width="783.4000000000001"/>
  <unicode hex="002F"/>
  <outline>
    <contour>
      <point x="54.400000000000006" y="0.0" type="line"/>
      <point x="135.0" y="0.0" type="line"/>
      <point x="732.0" y="1430.0" type="line"/>
      <point x="651.4000000000001" y="1430.0" type="line"/>
    </contour>
  </outline>
</glyph>
<glyph name="zero" format="2">
	<unicode hex="0030"/>
	<advance width="1240"/>
	<outline>
		<contour>
			<point x="623.4" y="31.4" type="curve" smooth="yes"/>
			<point x="442.2681318681" y="31.4"/>
			<point x="333.4" y="278.8"/>
			<point x="333.4" y="751" type="curve" smooth="yes"/>
			<point x="333.4" y="1173.4"/>
			<point x="439.5550561798" y="1398.6"/>
			<point x="616.8" y="1398.6" type="curve" smooth="yes"/>
			<point x="797.9318681319" y="1398.6"/>
			<point x="906.8" y="1151.2"/>
			<point x="906.8" y="679" type="curve" smooth="yes"/>
			<point x="906.8" y="256.6"/>
			<point x="800.6449438202" y="31.4"/>
		</contour>
		<contour>
			<point x="625.6" y="1452" type="curve" smooth="yes"/>
			<point x="301.5734513274" y="1452"/>
			<point x="75.8" y="1152.6"/>
			<point x="75.8" y="713.6" type="curve" smooth="yes"/>
			<point x="75.8" y="274.4"/>
			<point x="290.3771019678" y="-22"/>
			<point x="614.6" y="-22" type="curve" smooth="yes"/>
			<point x="938.6265486726" y="-22"/>
			<point x="1164.4" y="277.4"/>
			<point x="1164.4" y="716.4" type="curve" smooth="yes"/>
			<point x="1164.4" y="1155.6"/>
			<point x="949.8228980322" y="1452"/>
		</contour>
	</outline>
</glyph>
<glyph name="one" format="2">
  <advance width="1240"/>
  <unicode hex="0031"/>
  <outline>
    <contour>
      <point x="569.8" y="80.8" type="line"/>
      <point x="264.8" y="29.8" type="line"/>
      <point x="264.8" y="0.0" type="line"/>
      <point x="1114.6" y="0.0" type="line"/>
      <point x="1114.6" y="29.8" type="line"/>
      <point x="826.2" y="80.8" type="line"/>
      <point x="826.2" y="1446.0" type="line"/>
      <point x="789.4" y="1446.0" type="line"/>
      <point x="167.4" y="1136.8" type="line"/>
      <point x="178.0" y="1101.6" type="line"/>
      <point x="705.6" y="1234.0" type="line"/>
      <point x="569.8" y="1307.4" type="line"/>
    </contour>
  </outline>
</glyph>
<glyph name="colon" format="2">
	<unicode hex="003A"/>
	<advance width="549.2"/>
	<outline>
		<contour>
			<point x="274.6" y="286.4" type="curve" smooth="yes"/>
			<point x="183.6" y="286.4"/>
			<point x="118.6" y="219.4"/>
			<point x="118.6" y="133.2" type="curve" smooth="yes"/>
			<point x="118.6" y="47"/>
			<point x="183.6" y="-20"/>
			<point x="274.6" y="-20" type="curve" smooth="yes"/>
			<point x="365.6" y="-20"/>
			<point x="430.6" y="47"/>
			<point x="430.6" y="133.2" type="curve" smooth="yes"/>
			<point x="430.6" y="219.4"/>
			<point x="365.6" y="286.4"/>
		</contour>
		<contour>
			<point x="274.6" y="1044.2" type="curve" smooth="yes"/>
			<point x="183.6" y="1044.2"/>
			<point x="118.6" y="977.2"/>
			<point x="118.6" y="891" type="curve" smooth="yes"/>
			<point x="118.6" y="804.8"/>
			<point x="183.6" y="737.8"/>
			<point x="274.6" y="737.8" type="curve" smooth="yes"/>
			<point x="365.6" y="737.8"/>
			<point x="430.6" y="804.8"/>
			<point x="430.6" y="891" type="curve" smooth="yes"/>
			<point x="430.6" y="977.2"/>
			<point x="365.6" y="1044.2"/>
		</contour>
	</outline>
</glyph>
<glyph name="semicolon" format="2">
  <advance width="562"/>
  <unicode hex="003B"/>
  <outline>
    <contour>
      <point x="117.0" y="-298.6" type="curve"/>
      <point x="144.20000000000002" y="-326.40000000000003" type="line"/>
      <point x="358.0" y="-187.4"/>
      <point x="437.59999999999997" y="-40.599999999999994"/>
      <point x="437.59999999999997" y="101.39999999999999" type="curve" smooth="yes"/>
      <point x="437.59999999999997" y="212.2"/>
      <point x="372.6" y="276.8"/>
      <point x="280.8" y="276.8" type="curve" smooth="yes"/>
      <point x="188.2" y="276.8"/>
      <point x="127.2" y="219.0"/>
      <point x="127.2" y="132.8" type="curve" smooth="yes"/>
      <point x="127.2" y="97.39999999999999"/>
      <point x="279.0" y="60.4"/>
      <point x="279.0" y="-47.0" type="curve" smooth="yes"/>
      <point x="279.0" y="-143.4"/>
      <point x="224.8" y="-217.20000000000002"/>
    </contour>
    <contour>
      <point x="279.2" y="1044.0" type="curve" smooth="yes"/>
      <point x="188.20000000000002" y="1044.0"/>
      <point x="123.2" y="977.0"/>
      <point x="123.2" y="890.8000000000001" type="curve" smooth="yes"/>
      <point x="123.2" y="804.6"/>
      <point x="188.20000000000002" y="737.6"/>
      <point x="279.2" y="737.6" type="curve" smooth="yes"/>
      <point x="370.2" y="737.6"/>
      <point x="435.2" y="804.6"/>
      <point x="435.2" y="890.8000000000001" type="curve" smooth="yes"/>
      <point x="435.2" y="977.0"/>
      <point x="370.2" y="1044.0"/>
    </contour>
  </outline>
</glyph>
<glyph name="less" format="2">
	<unicode hex="003C"/>
	<advance width="1150"/>
	<outline>
		<contour>
			<point x="190.6" y="496.8" type="line"/>
			<point x="981" y="691.8" type="line"/>
			<point x="981" y="770.6" type="line"/>
			<point x="163.8" y="541" type="line"/>
			<point x="163.8" y="484.2" type="line"/>
			<point x="981" y="253.4" type="line"/>
			<point x="981" y="332.2" type="line"/>
			<point x="190.6" y="532" type="line"/>
		</contour>
	</outline>
</glyph>
<glyph name="greater" format="2">
	<unicode hex="003E"/>
	<advance width="1150"/>
	<outline>
		<contour>
			<point x="959.4" y="496.8" type="line"/>
			<point x="959.4" y="532" type="line"/>
			<point x="169" y="332.2" type="line"/>
			<point x="169" y="253.4" type="line"/>
			<point x="986.2" y="484.2" type="line"/>
			<point x="986.2" y="541" type="line"/>
			<point x="169" y="770.6" type="line"/>
			<point x="169" y="691.8" type="line"/>
		</contour>
	</outline>
</glyph>
<glyph name="question" format="2">
  <advance width="977"/>
  <unicode hex="003F"/>
  <outline>
    <contour>
      <point x="334.20000000000005" y="1452.0" type="curve" smooth="yes"/>
      <point x="134.20000000000002" y="1452.0"/>
      <point x="54.599999999999994" y="1388.8"/>
      <point x="54.599999999999994" y="1313.2" type="curve" smooth="yes"/>
      <point x="54.599999999999994" y="1253.4"/>
      <point x="109.19999999999999" y="1205.2"/>
      <point x="156.0" y="1205.2" type="curve" smooth="yes"/>
      <point x="182.20000000000002" y="1205.2"/>
      <point x="298.40000000000003" y="1362.4"/>
      <point x="491.4" y="1362.4" type="curve" smooth="yes"/>
      <point x="660.0" y="1362.4"/>
      <point x="759.6" y="1277.6000000000001"/>
      <point x="759.6" y="1114.8" type="curve" smooth="yes"/>
      <point x="759.6" y="962.2"/>
      <point x="671.1999999999999" y="861.8000000000001"/>
      <point x="326.0" y="871.4" type="curve"/>
      <point x="407.8" y="481.0" type="line"/>
      <point x="442.79999999999995" y="481.0" type="line"/>
      <point x="442.79999999999995" y="818.4" type="line"/>
      <point x="410.6" y="681.2" type="line"/>
      <point x="773.1999999999999" y="667.0"/>
      <point x="893.6" y="782.0"/>
      <point x="893.6" y="1009.0" type="curve" smooth="yes"/>
      <point x="893.6" y="1263.2"/>
      <point x="654.0" y="1452.0"/>
    </contour>
    <contour>
      <point x="428.6" y="286.4" type="curve" smooth="yes"/>
      <point x="337.6" y="286.4"/>
      <point x="272.6" y="219.4"/>
      <point x="272.6" y="133.2" type="curve" smooth="yes"/>
      <point x="272.6" y="47.0"/>
      <point x="337.6" y="-20.0"/>
      <point x="428.6" y="-20.0" type="curve" smooth="yes"/>
      <point x="519.6" y="-20.0"/>
      <point x="584.6" y="47.0"/>
      <point x="584.6" y="133.2" type="curve" smooth="yes"/>
      <point x="584.6" y="219.4"/>
      <point x="519.6" y="286.4"/>
    </contour>
  </outline>
</glyph>
<glyph name="at" format="2">
  <advance width="1806"/>
  <unicode hex="0040"/>
  <outline>
    <contour>
      <point x="1264.8" y="241.8" type="curve" smooth="yes"/>
      <point x="1559.6000000000001" y="241.8"/>
      <point x="1761.6" y="492.3999999999999"/>
      <point x="1761.6" y="816.0" type="curve" smooth="yes"/>
      <point x="1761.6" y="1180.0"/>
      <point x="1467.2" y="1455.2"/>
      <point x="1012.4" y="1455.2" type="curve" smooth="yes"/>
      <point x="472.6" y="1455.2"/>
      <point x="76.6" y="1051.8"/>
      <point x="76.6" y="534.6" type="curve" smooth="yes"/>
      <point x="76.6" y="51.800000000000004"/>
      <point x="432.0" y="-218.0"/>
      <point x="920.1999999999999" y="-218.0" type="curve" smooth="yes"/>
      <point x="1158.2" y="-218.0"/>
      <point x="1387.6" y="-145.2"/>
      <point x="1563.0" y="-24.2" type="curve"/>
      <point x="1544.8" y="5.8" type="line"/>
      <point x="1350.4" y="-118.2"/>
      <point x="1129.0" y="-166.2"/>
      <point x="947.6" y="-166.2" type="curve" smooth="yes"/>
      <point x="503.8" y="-166.2"/>
      <point x="203.6" y="98.4"/>
      <point x="203.6" y="545.4000000000001" type="curve" smooth="yes"/>
      <point x="203.6" y="1049.2"/>
      <point x="524.0" y="1408.3999999999999"/>
      <point x="1006.2" y="1408.3999999999999" type="curve" smooth="yes"/>
      <point x="1400.3999999999999" y="1408.3999999999999"/>
      <point x="1654.0" y="1136.8"/>
      <point x="1654.0" y="795.1999999999999" type="curve" smooth="yes"/>
      <point x="1654.0" y="468.2"/>
      <point x="1473.6000000000001" y="280.79999999999995"/>
      <point x="1314.6" y="280.79999999999995" type="curve" smooth="yes"/>
      <point x="1254.4" y="280.79999999999995"/>
      <point x="1216.1999999999998" y="314.8"/>
      <point x="1216.1999999999998" y="395.6" type="curve" smooth="yes"/>
      <point x="1216.1999999999998" y="435.79999999999995"/>
      <point x="1224.8" y="487.79999999999995"/>
      <point x="1244.6" y="553.5999999999999" type="curve" smooth="yes"/>
      <point x="1386.1999999999998" y="1039.0" type="line"/>
      <point x="1181.0" y="1039.0" type="line"/>
      <point x="1154.8000000000002" y="951.2" type="line"/>
      <point x="1052.0" y="626.6" type="line" smooth="yes"/>
      <point x="936.0" y="437.0"/>
      <point x="859.8" y="381.59999999999997"/>
      <point x="796.6" y="381.59999999999997" type="curve" smooth="yes"/>
      <point x="749.0" y="381.59999999999997"/>
      <point x="730.1999999999999" y="411.40000000000003"/>
      <point x="730.1999999999999" y="482.0" type="curve" smooth="yes"/>
      <point x="730.1999999999999" y="660.0"/>
      <point x="895.8" y="983.0"/>
      <point x="1056.2" y="983.0" type="curve" smooth="yes"/>
      <point x="1114.2" y="983.0"/>
      <point x="1149.8" y="953.4000000000001"/>
      <point x="1186.4" y="877.0" type="curve"/>
      <point x="1199.2" y="896.8000000000001" type="line"/>
      <point x="1158.8" y="1009.6"/>
      <point x="1081.6000000000001" y="1058.8"/>
      <point x="1001.4000000000001" y="1058.8" type="curve" smooth="yes"/>
      <point x="759.8" y="1058.8"/>
      <point x="510.2" y="693.2"/>
      <point x="510.2" y="434.6" type="curve" smooth="yes"/>
      <point x="510.2" y="309.8"/>
      <point x="561.1999999999999" y="241.79999999999998"/>
      <point x="680.8" y="241.79999999999998" type="curve" smooth="yes"/>
      <point x="786.8000000000001" y="241.79999999999998"/>
      <point x="903.4" y="308.8"/>
      <point x="1083.0" y="622.8" type="curve"/>
      <point x="1060.8" y="625.4" type="line"/>
      <point x="1040.1999999999998" y="531.5999999999999" type="line" smooth="yes"/>
      <point x="1033.2" y="499.4"/>
      <point x="1028.6" y="468.6"/>
      <point x="1028.6" y="441.59999999999997" type="curve" smooth="yes"/>
      <point x="1028.6" y="308.8"/>
      <point x="1114.8" y="241.8"/>
    </contour>
  </outline>
</glyph>
<glyph name="A" format="2">
	<unicode hex="0041"/>
	<advance width="1492.2"/>
	<outline>
		<contour>
			<point x="338" y="532" type="line"/>
			<point x="1044.2" y="532" type="line"/>
			<point x="1044.2" y="598" type="line"/>
			<point x="338" y="598" type="line"/>
		</contour>
		<contour>
			<point x="1376.6" y="76" type="line"/>
			<point x="766.8" y="1446" type="line"/>
			<point x="673.6" y="1446" type="line"/>
			<point x="132" y="81.2" type="line"/>
			<point x="-21" y="30.4" type="line"/>
			<point x="-21" y="0" type="line"/>
			<point x="391.6" y="0" type="line"/>
			<point x="391.6" y="30.4" type="line"/>
			<point x="204.8" y="78.2" type="line"/>
			<point x="641.6" y="1197.2" type="line"/>
			<point x="605.2" y="1187.6" type="line"/>
			<point x="1094" y="74" type="line"/>
			<point x="915.2" y="30.8" type="line"/>
			<point x="915.2" y="0" type="line"/>
			<point x="1532.6" y="0" type="line"/>
			<point x="1532.6" y="30.8" type="line"/>
		</contour>
	</outline>
	<anchor name="UCtop" x="717" y="1430"/>
	<anchor name="right" x="1372.6" y="0"/>
	<anchor name="bottom" x="714.2" y="0"/>
</glyph>
<glyph name="B" format="2">
  <advance width="1367.1999999999998"/>
  <unicode hex="0042"/>
  <anchor x="673.4" y="1430.0" name="UCtop"/>
  <anchor x="673.4" y="0.0" name="bottom"/>
  <outline>
    <contour>
      <point x="283.2" y="1368.4" type="line"/>
      <point x="600.0" y="1368.4" type="line" smooth="yes"/>
      <point x="838.8" y="1368.4"/>
      <point x="938.6" y="1256.3999999999999"/>
      <point x="938.6" y="1085.0" type="curve" smooth="yes"/>
      <point x="938.6" y="889.6"/>
      <point x="837.1999999999999" y="792.8"/>
      <point x="680.0" y="792.8" type="curve" smooth="yes"/>
      <point x="283.2" y="792.8" type="line"/>
      <point x="306.8" y="731.2" type="line"/>
      <point x="688.6" y="731.2" type="line" smooth="yes"/>
      <point x="926.8000000000001" y="731.2"/>
      <point x="1032.4" y="595.6"/>
      <point x="1032.4" y="403.40000000000003" type="curve" smooth="yes"/>
      <point x="1032.4" y="166.2"/>
      <point x="892.0" y="61.599999999999994"/>
      <point x="661.5999999999999" y="61.599999999999994" type="curve" smooth="yes"/>
      <point x="307.8" y="61.599999999999994" type="line"/>
      <point x="389.59999999999997" y="0.0" type="line"/>
      <point x="704.1999999999999" y="0.0" type="line" smooth="yes"/>
      <point x="1132.6" y="0.0"/>
      <point x="1292.4" y="175.0"/>
      <point x="1292.4" y="400.4" type="curve" smooth="yes"/>
      <point x="1292.4" y="609.0"/>
      <point x="1122.0" y="760.4"/>
      <point x="831.6" y="783.0" type="curve"/>
      <point x="801.6" y="767.0" type="line"/>
      <point x="1023.6" y="789.0"/>
      <point x="1185.0" y="908.0"/>
      <point x="1185.0" y="1104.0" type="curve" smooth="yes"/>
      <point x="1185.0" y="1293.0"/>
      <point x="1055.4" y="1430.0"/>
      <point x="738.8000000000001" y="1430.0" type="curve" smooth="yes"/>
      <point x="388.59999999999997" y="1430.0" type="line"/>
    </contour>
    <contour>
      <point x="62.599999999999994" y="0.0" type="line"/>
      <point x="502.8" y="0.0" type="line"/>
      <point x="502.8" y="1430.0" type="line"/>
      <point x="62.599999999999994" y="1430.0" type="line"/>
      <point x="62.599999999999994" y="1399.0" type="line"/>
      <point x="236.4" y="1355.3999999999999" type="line"/>
      <point x="236.4" y="75.60000000000001" type="line"/>
      <point x="62.599999999999994" y="30.799999999999997" type="line"/>
    </contour>
  </outline>
</glyph>
<glyph name="C" format="2">
  <advance width="1429"/>
  <unicode hex="0043"/>
  <anchor x="804.4" y="1430.0" name="UCtop"/>
  <anchor x="804.4" y="0.0" name="bottom"/>
  <anchor x="1269.6000000000001" y="0.0" name="right"/>
  <outline>
    <contour>
      <point x="903.8000000000001" y="23.4" type="curve" smooth="yes"/>
      <point x="613.6" y="23.4"/>
      <point x="363.59999999999997" y="267.2"/>
      <point x="363.59999999999997" y="759.8" type="curve" smooth="yes"/>
      <point x="363.59999999999997" y="1240.0"/>
      <point x="576.2" y="1397.8"/>
      <point x="820.6" y="1397.8" type="curve" smooth="yes"/>
      <point x="934.6605633802816" y="1397.8"/>
      <point x="1037.5445952133744" y="1362.5193212479066"/>
      <point x="1158.3999999999999" y="1270.4" type="curve"/>
      <point x="1106.8" y="1328.6" type="line"/>
      <point x="1317.8" y="978.1999999999999" type="line"/>
      <point x="1345.2" y="983.2" type="line"/>
      <point x="1250.1999999999998" y="1489.2" type="line"/>
      <point x="1235.8000000000002" y="1489.2" type="line"/>
      <point x="1115.3999999999999" y="1396.8" type="line"/>
      <point x="1179.4" y="1412.8" type="line"/>
      <point x="1065.240402018742" y="1439.011436843328"/>
      <point x="971.1888524590164" y="1452.0"/>
      <point x="858.1999999999999" y="1452.0" type="curve" smooth="yes"/>
      <point x="402.6" y="1452.0"/>
      <point x="87.0" y="1158.8"/>
      <point x="87.0" y="728.8" type="curve" smooth="yes"/>
      <point x="87.0" y="229.6"/>
      <point x="429.4" y="-22.0"/>
      <point x="885.0" y="-22.0" type="curve" smooth="yes"/>
      <point x="1030.0013245033113" y="-22.0"/>
      <point x="1142.1946909575174" y="-10.014934982495937"/>
      <point x="1285.8" y="32.6" type="curve"/>
      <point x="1366.2" y="400.2" type="line"/>
      <point x="1338.4" y="400.2" type="line"/>
      <point x="1146.4" y="94.8" type="line"/>
      <point x="1189.2" y="140.2" type="line"/>
      <point x="1095.2989991946847" y="57.30707642749828"/>
      <point x="999.3520408163266" y="23.4"/>
    </contour>
  </outline>
</glyph>
<glyph name="D" format="2">
	<unicode hex="0044"/>
	<advance width="1573.8"/>
	<outline>
		<contour>
			<point x="1211.2" y="726.6" type="curve" smooth="yes"/>
			<point x="1211.2" y="253.989037037"/>
			<point x="1005.4" y="68"/>
			<point x="648.4" y="68" type="curve" smooth="yes"/>
			<point x="362.6" y="68" type="line"/>
			<point x="354.4" y="0" type="line"/>
			<point x="685.8" y="0" type="line" smooth="yes"/>
			<point x="1140.8" y="0"/>
			<point x="1484.8" y="253"/>
			<point x="1484.8" y="748" type="curve" smooth="yes"/>
			<point x="1484.8" y="1182"/>
			<point x="1189" y="1430"/>
			<point x="671.8" y="1430" type="curve" smooth="yes"/>
			<point x="354.4" y="1430" type="line"/>
			<point x="362.6" y="1362" type="line"/>
			<point x="614.2" y="1362" type="line" smooth="yes"/>
			<point x="1008" y="1362"/>
			<point x="1211.2" y="1152.9333333333"/>
		</contour>
		<contour>
			<point x="63.8" y="0" type="line"/>
			<point x="502" y="0" type="line"/>
			<point x="502" y="1430" type="line"/>
			<point x="63.8" y="1430" type="line"/>
			<point x="63.8" y="1399" type="line"/>
			<point x="235.6" y="1357" type="line"/>
			<point x="235.6" y="74" type="line"/>
			<point x="63.8" y="30.8" type="line"/>
		</contour>
	</outline>
	<anchor name="UCtop" x="794.4" y="1430"/>
	<anchor name="bottom" x="794.4" y="0"/>
</glyph>
<glyph name="E" format="2">
	<unicode hex="0045"/>
	<advance width="1379"/>
	<outline>
		<contour>
			<point x="960.2" y="1047" type="line"/>
			<point x="936.2" y="1047" type="line"/>
			<point x="819.6" y="790.8" type="line"/>
			<point x="372.4" y="763.4" type="line"/>
			<point x="372.4" y="729.8" type="line"/>
			<point x="819.6" y="706" type="line"/>
			<point x="936.2" y="447" type="line"/>
			<point x="960.2" y="447" type="line"/>
			<point x="922.2" y="746" type="line"/>
		</contour>
		<contour>
			<point x="1276" y="1022" type="line"/>
			<point x="1201.6" y="1491" type="line"/>
			<point x="1191" y="1491" type="line"/>
			<point x="1054.4" y="1430" type="line"/>
			<point x="332.8" y="1430" type="line"/>
			<point x="332.8" y="1362" type="line"/>
			<point x="1187.4" y="1362" type="line"/>
			<point x="1031" y="1392.6" type="line"/>
			<point x="1248.2" y="1014.2" type="line"/>
		</contour>
		<contour>
			<point x="1056.8" y="38.8" type="line"/>
			<point x="1209" y="68" type="line"/>
			<point x="332.8" y="68" type="line"/>
			<point x="332.8" y="0" type="line"/>
			<point x="1083.2" y="0" type="line"/>
			<point x="1213.4" y="-59.8" type="line"/>
			<point x="1225.8" y="-59.8" type="line"/>
			<point x="1336.6" y="414.4" type="line"/>
			<point x="1307.6" y="422.2" type="line"/>
		</contour>
		<contour>
			<point x="63.8" y="0" type="line"/>
			<point x="502" y="0" type="line"/>
			<point x="502" y="1430" type="line"/>
			<point x="63.8" y="1430" type="line"/>
			<point x="63.8" y="1399" type="line"/>
			<point x="235.6" y="1357" type="line"/>
			<point x="235.6" y="74" type="line"/>
			<point x="63.8" y="30.8" type="line"/>
		</contour>
	</outline>
	<anchor name="UCtop" x="697.6" y="1430"/>
	<anchor name="right" x="1173.8" y="0"/>
	<anchor name="bottom" x="701.6" y="0"/>
</glyph>
<glyph name="F" format="2">
  <advance width="1257.6000000000001"/>
  <unicode hex="0046"/>
  <guideline x="740.1999999999999" y="553.8" angle="172.8749836510981" identifier="xQUz7nFLWJ"/>
  <anchor x="642.4" y="1430.0" name="UCtop"/>
  <anchor x="369.0" y="0.0" name="bottom"/>
  <outline>
    <contour>
      <point x="973.0" y="1017.4000000000001" type="line"/>
      <point x="949.0" y="1017.4000000000001" type="line"/>
      <point x="832.4" y="761.2" type="line"/>
      <point x="364.4" y="733.8000000000001" type="line"/>
      <point x="364.4" y="700.1999999999999" type="line"/>
      <point x="832.4" y="676.4" type="line"/>
      <point x="949.0" y="417.4" type="line"/>
      <point x="973.0" y="417.4" type="line"/>
      <point x="935.0" y="716.4000000000001" type="line"/>
    </contour>
    <contour>
      <point x="1122.2" y="1491.0" type="line"/>
      <point x="988.8000000000001" y="1430.0" type="line"/>
      <point x="332.79999999999995" y="1430.0" type="line"/>
      <point x="332.79999999999995" y="1362.0" type="line"/>
      <point x="1120.2" y="1362.0" type="line"/>
      <point x="963.0" y="1393.4" type="line"/>
      <point x="1210.6" y="1014.2" type="line"/>
      <point x="1238.4" y="1022.1999999999999" type="line"/>
      <point x="1132.8" y="1491.0" type="line"/>
    </contour>
    <contour>
      <point x="502.0" y="1430.0" type="line"/>
      <point x="63.8" y="1430.0" type="line"/>
      <point x="63.8" y="1399.0" type="line"/>
      <point x="235.60000000000002" y="1357.0" type="line"/>
      <point x="235.60000000000002" y="74.0" type="line"/>
      <point x="63.8" y="30.799999999999997" type="line"/>
      <point x="63.8" y="0.0" type="line"/>
      <point x="673.8" y="0.0" type="line"/>
      <point x="673.8" y="30.799999999999997" type="line"/>
      <point x="502.0" y="74.0" type="line"/>
    </contour>
  </outline>
</glyph>
<glyph name="G" format="2">
	<unicode hex="0047"/>
	<advance width="1553.2"/>
	<outline>
		<contour>
			<point x="1357" y="108.2" type="line"/>
			<point x="1357" y="567.4" type="line"/>
			<point x="1488.2" y="607" type="line"/>
			<point x="1488.2" y="639.8" type="line"/>
			<point x="901.8" y="639.8" type="line"/>
			<point x="901.8" y="607" type="line"/>
			<point x="1107.6" y="561.4" type="line"/>
			<point x="1107.6" y="19.8" type="line"/>
			<point x="1155" y="89.8" type="line"/>
			<point x="1098.8" y="47"/>
			<point x="1011" y="24.2"/>
			<point x="915.2" y="24.2" type="curve" smooth="yes"/>
			<point x="619" y="24.2"/>
			<point x="363.6" y="264"/>
			<point x="363.6" y="761.2" type="curve" smooth="yes"/>
			<point x="363.6" y="1240"/>
			<point x="588.2" y="1397.8"/>
			<point x="846.6" y="1397.8" type="curve" smooth="yes"/>
			<point x="1006.2" y="1397.8"/>
			<point x="1143.8" y="1322.8"/>
			<point x="1268.2" y="1201.6" type="curve"/>
			<point x="1104.6" y="1370.2" type="line"/>
			<point x="1345.2" y="978.2" type="line"/>
			<point x="1372.6" y="983.2" type="line"/>
			<point x="1277.6" y="1489.2" type="line"/>
			<point x="1263.2" y="1489.2" type="line"/>
			<point x="1137.2" y="1384.8" type="line"/>
			<point x="1262" y="1396" type="line"/>
			<point x="1160" y="1427.6"/>
			<point x="1037" y="1452"/>
			<point x="884.2" y="1452" type="curve" smooth="yes"/>
			<point x="413.8" y="1452"/>
			<point x="87" y="1158.8"/>
			<point x="87" y="728.8" type="curve" smooth="yes"/>
			<point x="87" y="229.6"/>
			<point x="437.4" y="-22"/>
			<point x="901" y="-22" type="curve" smooth="yes"/>
			<point x="1063.2" y="-22"/>
			<point x="1260.8" y="4.8"/>
			<point x="1478.6" y="79" type="curve"/>
			<point x="1478.6" y="108.2" type="line"/>
		</contour>
	</outline>
	<anchor name="UCtop" x="815.6" y="1430"/>
	<anchor name="bottom" x="831.2" y="0"/>
</glyph>
<glyph name="H" format="2">
	<unicode hex="0048"/>
	<advance width="1689.6"/>
	<outline>
		<contour>
			<point x="502" y="74" type="line"/>
			<point x="502" y="1357" type="line"/>
			<point x="673.8" y="1399" type="line"/>
			<point x="673.8" y="1430" type="line"/>
			<point x="63.8" y="1430" type="line"/>
			<point x="63.8" y="1399" type="line"/>
			<point x="235.6" y="1357" type="line"/>
			<point x="235.6" y="74" type="line"/>
			<point x="63.8" y="30.8" type="line"/>
			<point x="63.8" y="0" type="line"/>
			<point x="673.8" y="0" type="line"/>
			<point x="673.8" y="30.8" type="line"/>
		</contour>
		<contour>
			<point x="1454" y="74" type="line"/>
			<point x="1454" y="1357" type="line"/>
			<point x="1625.8" y="1399" type="line"/>
			<point x="1625.8" y="1430" type="line"/>
			<point x="1015.8" y="1430" type="line"/>
			<point x="1015.8" y="1399" type="line"/>
			<point x="1187.6" y="1357" type="line"/>
			<point x="1187.6" y="74" type="line"/>
			<point x="1015.8" y="30.8" type="line"/>
			<point x="1015.8" y="0" type="line"/>
			<point x="1625.8" y="0" type="line"/>
			<point x="1625.8" y="30.8" type="line"/>
		</contour>
		<contour>
			<point x="351.2" y="706.4" type="line"/>
			<point x="1335.4" y="706.4" type="line"/>
			<point x="1335.4" y="774.4" type="line"/>
			<point x="351.2" y="774.4" type="line"/>
		</contour>
	</outline>
	<anchor name="UCtop" x="844.4" y="1430"/>
	<anchor name="bottom" x="844.4" y="0"/>
</glyph>
<glyph name="I" format="2">
	<unicode hex="0049"/>
	<advance width="737.6"/>
	<outline>
		<contour>
			<point x="673.8" y="30.8" type="line"/>
			<point x="502" y="74" type="line"/>
			<point x="502" y="1357" type="line"/>
			<point x="673.8" y="1399" type="line"/>
			<point x="673.8" y="1430" type="line"/>
			<point x="63.8" y="1430" type="line"/>
			<point x="63.8" y="1399" type="line"/>
			<point x="235.6" y="1357" type="line"/>
			<point x="235.6" y="74" type="line"/>
			<point x="63.8" y="30.8" type="line"/>
			<point x="63.8" y="0" type="line"/>
			<point x="673.8" y="0" type="line"/>
		</contour>
	</outline>
	<anchor name="UCtop" x="368.8" y="1430"/>
	<anchor name="right" x="537.2" y="0"/>
	<anchor name="bottom" x="368.8" y="0"/>
</glyph>
<glyph name="J" format="2">
	<unicode hex="004A"/>
	<advance width="849.4"/>
	<outline>
		<contour>
			<point x="643" y="535.4" type="curve" smooth="yes"/>
			<point x="643" y="1357" type="line"/>
			<point x="814.8" y="1399" type="line"/>
			<point x="814.8" y="1430" type="line"/>
			<point x="204.8" y="1430" type="line"/>
			<point x="204.8" y="1399" type="line"/>
			<point x="376.6" y="1357" type="line"/>
			<point x="376.6" y="227.6" type="line" smooth="yes"/>
			<point x="376.6" y="130.4"/>
			<point x="348.2" y="100"/>
			<point x="283.4" y="100" type="curve" smooth="yes"/>
			<point x="196.2" y="100"/>
			<point x="131.2" y="189.2"/>
			<point x="98.4" y="189.2" type="curve" smooth="yes"/>
			<point x="55.8" y="189.2"/>
			<point x="13.6" y="146"/>
			<point x="13.6" y="91.4" type="curve" smooth="yes"/>
			<point x="13.6" y="23"/>
			<point x="54.8" y="-20.6"/>
			<point x="141" y="-20.6" type="curve" smooth="yes"/>
			<point x="368.8" y="-20.6"/>
			<point x="643" y="196.6"/>
		</contour>
	</outline>
	<anchor name="UCtop" x="509.8" y="1430"/>
	<anchor name="bottom" x="428.6" y="0"/>
</glyph>
<glyph name="K" format="2">
	<unicode hex="004B"/>
	<advance width="1569.4"/>
	<outline>
		<contour>
			<point x="1460.2" y="71.4" type="line"/>
			<point x="728.2" y="885.8" type="line"/>
			<point x="599.8" y="775" type="line"/>
			<point x="1301.2" y="1357.4" type="line"/>
			<point x="1475.6" y="1399" type="line"/>
			<point x="1475.6" y="1430" type="line"/>
			<point x="1019.4" y="1430" type="line"/>
			<point x="1019.4" y="1399" type="line"/>
			<point x="1205.4" y="1356.6" type="line"/>
			<point x="528.8" y="789.4" type="line"/>
			<point x="420.6" y="789.4" type="line"/>
			<point x="420.6" y="721.4" type="line"/>
			<point x="528.4" y="721.4" type="line"/>
			<point x="1117.8" y="70" type="line"/>
			<point x="948.2" y="30.8" type="line"/>
			<point x="948.2" y="0" type="line"/>
			<point x="1602.2" y="0" type="line"/>
			<point x="1602.2" y="30.8" type="line"/>
		</contour>
		<contour>
			<point x="502" y="1357" type="line"/>
			<point x="673.8" y="1399" type="line"/>
			<point x="673.8" y="1430" type="line"/>
			<point x="63.8" y="1430" type="line"/>
			<point x="63.8" y="1399" type="line"/>
			<point x="235.6" y="1357" type="line"/>
			<point x="235.6" y="74" type="line"/>
			<point x="63.8" y="30.8" type="line"/>
			<point x="63.8" y="0" type="line"/>
			<point x="673.8" y="0" type="line"/>
			<point x="673.8" y="30.8" type="line"/>
			<point x="502" y="74" type="line"/>
		</contour>
	</outline>
	<anchor name="bottom" x="794.4" y="0"/>
	<anchor name="UCtop" x="812" y="1430"/>
</glyph>
<glyph name="L" format="2">
	<unicode hex="004C"/>
	<advance width="1274"/>
	<outline>
		<contour>
			<point x="1143.8" y="-59.8" type="line"/>
			<point x="1254.6" y="414.4" type="line"/>
			<point x="1225.6" y="422.2" type="line"/>
			<point x="970.8" y="38.8" type="line"/>
			<point x="1127" y="68" type="line"/>
			<point x="332.8" y="68" type="line"/>
			<point x="332.8" y="0" type="line"/>
			<point x="997.2" y="0" type="line"/>
			<point x="1131.4" y="-59.8" type="line"/>
		</contour>
		<contour>
			<point x="502" y="1357" type="line"/>
			<point x="673.8" y="1399" type="line"/>
			<point x="673.8" y="1430" type="line"/>
			<point x="63.8" y="1430" type="line"/>
			<point x="63.8" y="1399" type="line"/>
			<point x="235.6" y="1357" type="line"/>
			<point x="235.6" y="74" type="line"/>
			<point x="63.8" y="30.8" type="line"/>
			<point x="63.8" y="0" type="line"/>
			<point x="502" y="0" type="line"/>
		</contour>
	</outline>
	<anchor name="UCtop" x="368.8" y="1430"/>
	<anchor name="bottom" x="634.8" y="0"/>
	<anchor name="mid" x="1018.4" y="773"/>
	<anchor name="right" x="736.4" y="1430"/>
</glyph>
<glyph name="M" format="2">
	<unicode hex="004D"/>
	<advance width="2090.8"/>
	<outline>
		<contour>
			<point x="1890.8" y="76.8" type="line"/>
			<point x="1788.2" y="1355.4" type="line"/>
			<point x="1982.4" y="1399" type="line"/>
			<point x="1982.4" y="1430" type="line"/>
			<point x="1513" y="1430" type="line"/>
			<point x="1038.6" y="256" type="line"/>
			<point x="1073.6" y="255.8" type="line"/>
			<point x="562.6" y="1430" type="line"/>
			<point x="103.4" y="1430" type="line"/>
			<point x="103.4" y="1399" type="line"/>
			<point x="285.8" y="1329.6" type="line"/>
			<point x="205.2" y="71.6" type="line"/>
			<point x="31.6" y="30.8" type="line"/>
			<point x="31.6" y="0" type="line"/>
			<point x="464.2" y="0" type="line"/>
			<point x="464.2" y="30.8" type="line"/>
			<point x="273.4" y="71.6" type="line"/>
			<point x="351.4" y="1291.2" type="line"/>
			<point x="336.2" y="1288.4" type="line"/>
			<point x="906.2" y="-16" type="line"/>
			<point x="997.2" y="-16" type="line"/>
			<point x="1538.8" y="1314.6" type="line"/>
			<point x="1523.6" y="1316.8" type="line"/>
			<point x="1617.8" y="73" type="line"/>
			<point x="1438.8" y="30.8" type="line"/>
			<point x="1438.8" y="0" type="line"/>
			<point x="2067.6" y="0" type="line"/>
			<point x="2067.6" y="30.8" type="line"/>
		</contour>
	</outline>
	<anchor name="UCtop" x="1018" y="1430"/>
	<anchor name="bottom" x="992.4" y="0"/>
</glyph>
<glyph name="N" format="2">
	<unicode hex="004E"/>
	<advance width="1566.6"/>
	<outline>
		<contour>
			<point x="243" y="73.6" type="line"/>
			<point x="69.2" y="30.8" type="line"/>
			<point x="69.2" y="0" type="line"/>
			<point x="500" y="0" type="line"/>
			<point x="500" y="30.8" type="line"/>
			<point x="310.4" y="73.6" type="line"/>
			<point x="310.4" y="1353.8" type="line"/>
			<point x="283.6" y="1321.8" type="line"/>
			<point x="1250.2" y="-16" type="line"/>
			<point x="1341.6" y="-16" type="line"/>
			<point x="1341.6" y="1356.2" type="line"/>
			<point x="1515.4" y="1399" type="line"/>
			<point x="1515.4" y="1430" type="line"/>
			<point x="1080.4" y="1430" type="line"/>
			<point x="1080.4" y="1399" type="line"/>
			<point x="1271" y="1356.2" type="line"/>
			<point x="1271" y="136.4" type="line"/>
			<point x="1324.4" y="306.6" type="line"/>
			<point x="515.2" y="1430" type="line"/>
			<point x="44.2" y="1430" type="line"/>
			<point x="44.2" y="1400.8" type="line"/>
			<point x="243" y="1338" type="line"/>
		</contour>
	</outline>
	<anchor name="UCtop" x="815.6" y="1430"/>
	<anchor name="bottom" x="806.6" y="0"/>
</glyph>
<glyph name="O" format="2">
	<unicode hex="004F"/>
	<advance width="1615.8"/>
	<outline>
		<contour>
			<point x="813.6" y="1452" type="curve" smooth="yes"/>
			<point x="392" y="1452"/>
			<point x="87.6" y="1143.3321573948"/>
			<point x="87.6" y="708.8" type="curve" smooth="yes"/>
			<point x="87.6" y="277.8702040816"/>
			<point x="387.8" y="-22"/>
			<point x="803.8" y="-22" type="curve" smooth="yes"/>
			<point x="1223.8" y="-22"/>
			<point x="1528.2" y="286.6687415426"/>
			<point x="1528.2" y="722.8" type="curve" smooth="yes"/>
			<point x="1528.2" y="1152.1306957708"/>
			<point x="1228" y="1452"/>
		</contour>
		<contour>
			<point x="818.4" y="33.8" type="curve" smooth="yes"/>
			<point x="543.6" y="33.8"/>
			<point x="358.2" y="295.1088888889"/>
			<point x="358.2" y="758.4" type="curve" smooth="yes"/>
			<point x="358.2" y="1168.9092846271"/>
			<point x="528.4" y="1397"/>
			<point x="797.4" y="1397" type="curve" smooth="yes"/>
			<point x="1070.6" y="1397"/>
			<point x="1256.8" y="1134.8918169209"/>
			<point x="1256.8" y="671.6" type="curve" smooth="yes"/>
			<point x="1256.8" y="261.8902439024"/>
			<point x="1086.6" y="33.8"/>
		</contour>
	</outline>
	<anchor name="UCtop" x="808.4" y="1430"/>
	<anchor name="bottom" x="808.4" y="0"/>
	<anchor name="horn" x="1171.4" y="1430"/>
	<anchor name="right" x="991.6" y="0"/>
</glyph>
<glyph name="P" format="2">
	<unicode hex="0050"/>
	<advance width="1316.8"/>
	<outline>
		<contour>
			<point x="1011" y="1032.8" type="curve" smooth="yes"/>
			<point x="1011" y="817.8"/>
			<point x="865.6" y="704.6"/>
			<point x="668.4" y="704.6" type="curve" smooth="yes"/>
			<point x="344.8" y="704.6" type="line"/>
			<point x="349.2" y="636.6" type="line"/>
			<point x="753" y="636.6" type="line" smooth="yes"/>
			<point x="1119" y="636.6"/>
			<point x="1276.4" y="821.2"/>
			<point x="1276.4" y="1043.4" type="curve" smooth="yes"/>
			<point x="1276.4" y="1259.8"/>
			<point x="1126.6" y="1430"/>
			<point x="753" y="1430" type="curve" smooth="yes"/>
			<point x="349.2" y="1430" type="line"/>
			<point x="344.8" y="1362" type="line"/>
			<point x="560.8" y="1362" type="line" smooth="yes"/>
			<point x="894" y="1362"/>
			<point x="1011" y="1243.8"/>
		</contour>
		<contour>
			<point x="502" y="1430" type="line"/>
			<point x="63.8" y="1430" type="line"/>
			<point x="63.8" y="1399" type="line"/>
			<point x="235.6" y="1357" type="line"/>
			<point x="235.6" y="74" type="line"/>
			<point x="63.8" y="30.8" type="line"/>
			<point x="63.8" y="0" type="line"/>
			<point x="673.8" y="0" type="line"/>
			<point x="673.8" y="30.8" type="line"/>
			<point x="502" y="74" type="line"/>
		</contour>
	</outline>
	<anchor name="UCtop" x="685.2" y="1430"/>
	<anchor name="bottom" x="368.8" y="0"/>
</glyph>
<glyph name="Q" format="2">
	<unicode hex="0051"/>
	<advance width="1616.8"/>
	<outline>
		<contour>
			<point x="942.4" y="-298.4" type="line" smooth="yes"/>
			<point x="1091.4" y="-410.2"/>
			<point x="1192.8" y="-466.6"/>
			<point x="1378.2" y="-466.6" type="curve" smooth="yes"/>
			<point x="1473.2" y="-466.6"/>
			<point x="1587.4" y="-443.8"/>
			<point x="1726.2" y="-401.6" type="curve"/>
			<point x="1726.2" y="-358.4" type="line"/>
			<point x="1595.4" y="-379.4"/>
			<point x="1487.4" y="-362.2"/>
			<point x="1245.2" y="-227.2" type="curve" smooth="yes"/>
			<point x="804.2" y="19" type="line"/>
			<point x="804.2" y="-0.8" type="line"/>
			<point x="1232.6" y="-30.8"/>
			<point x="1528.8" y="301.4"/>
			<point x="1528.8" y="717.8" type="curve" smooth="yes"/>
			<point x="1528.8" y="1152.2"/>
			<point x="1233.6" y="1452"/>
			<point x="814.2" y="1452" type="curve" smooth="yes"/>
			<point x="390.6" y="1452"/>
			<point x="88.2" y="1147.4"/>
			<point x="88.2" y="713.8" type="curve" smooth="yes"/>
			<point x="88.2" y="426.8"/>
			<point x="204.2" y="229.4"/>
			<point x="422.8" y="70.8" type="curve" smooth="yes"/>
		</contour>
		<contour>
			<point x="819" y="33.8" type="curve" smooth="yes"/>
			<point x="544.2" y="33.8"/>
			<point x="358.8" y="295.4"/>
			<point x="358.8" y="758.4" type="curve" smooth="yes"/>
			<point x="358.8" y="1168.6"/>
			<point x="529" y="1397"/>
			<point x="798" y="1397" type="curve" smooth="yes"/>
			<point x="1071.2" y="1397"/>
			<point x="1257.4" y="1134.6"/>
			<point x="1257.4" y="671.6" type="curve" smooth="yes"/>
			<point x="1257.4" y="262.2"/>
			<point x="1087.2" y="33.8"/>
		</contour>
	</outline>
	<anchor name="UCtop" x="809" y="1430"/>
	<anchor name="bottom" x="809" y="-443"/>
</glyph>
<glyph name="R" format="2">
	<unicode hex="0052"/>
	<advance width="1446.8"/>
	<outline>
		<contour>
			<point x="657.4" y="770.4" type="curve" smooth="yes"/>
			<point x="289.8" y="770.4" type="line"/>
			<point x="316.6" y="708.8" type="line"/>
			<point x="651.2" y="708.8" type="line" smooth="yes"/>
			<point x="737.2" y="708.8"/>
			<point x="778.8" y="679.8"/>
			<point x="844" y="534.8" type="curve" smooth="yes"/>
			<point x="1005.6" y="172.4" type="line" smooth="yes"/>
			<point x="1082.8" y="-2"/>
			<point x="1148.4" y="-26.2"/>
			<point x="1487.6" y="0" type="curve"/>
			<point x="1487.6" y="41.8" type="line"/>
			<point x="1374.6" y="40.8"/>
			<point x="1339.8" y="56.4"/>
			<point x="1266.2" y="216.6" type="curve" smooth="yes"/>
			<point x="1127.6" y="520" type="line" smooth="yes"/>
			<point x="1060.6" y="671.8"/>
			<point x="982.6" y="737.2"/>
			<point x="789" y="741.4" type="curve"/>
			<point x="789" y="738.2" type="line"/>
			<point x="1081.6" y="752.4"/>
			<point x="1232.6" y="906.2"/>
			<point x="1232.6" y="1085.6" type="curve" smooth="yes"/>
			<point x="1232.6" y="1283.8"/>
			<point x="1098.6" y="1430"/>
			<point x="698.4" y="1430" type="curve" smooth="yes"/>
			<point x="320.6" y="1430" type="line"/>
			<point x="294.4" y="1368.4" type="line"/>
			<point x="610.2" y="1368.4" type="line" smooth="yes"/>
			<point x="868.4" y="1368.4"/>
			<point x="967.2" y="1262"/>
			<point x="967.2" y="1076.8" type="curve" smooth="yes"/>
			<point x="967.2" y="875.2"/>
			<point x="852.8" y="770.4"/>
		</contour>
		<contour>
			<point x="502.8" y="1430" type="line"/>
			<point x="62.6" y="1430" type="line"/>
			<point x="62.6" y="1399" type="line"/>
			<point x="236.4" y="1355.4" type="line"/>
			<point x="236.4" y="75.6" type="line"/>
			<point x="62.6" y="30.8" type="line"/>
			<point x="62.6" y="0" type="line"/>
			<point x="676.6" y="0" type="line"/>
			<point x="676.6" y="30.8" type="line"/>
			<point x="502.8" y="75.6" type="line"/>
		</contour>
	</outline>
	<anchor name="UCtop" x="685.6" y="1430"/>
	<anchor name="bottom" x="791.6" y="0"/>
</glyph>
<glyph name="S" format="2">
  <advance width="1157"/>
  <unicode hex="0053"/>
  <anchor x="563.6" y="1430.0" name="UCtop"/>
  <anchor x="571.6" y="0.0" name="bottom"/>
  <outline>
    <contour>
      <point x="946.8000000000001" y="1365.0" type="line"/>
      <point x="833.4" y="1425.8"/>
      <point x="732.8" y="1452.8"/>
      <point x="603.8000000000001" y="1452.8" type="curve" smooth="yes"/>
      <point x="309.6" y="1452.8"/>
      <point x="122.4" y="1299.2"/>
      <point x="122.4" y="1054.4" type="curve" smooth="yes"/>
      <point x="122.4" y="827.0"/>
      <point x="285.0" y="746.4"/>
      <point x="472.8" y="676.2" type="curve" smooth="yes"/>
      <point x="660.6" y="606.0"/>
      <point x="876.8" y="552.0"/>
      <point x="876.8" y="325.2" type="curve" smooth="yes"/>
      <point x="876.8" y="139.6"/>
      <point x="748.2" y="27.2"/>
      <point x="509.2" y="27.2" type="curve" smooth="yes"/>
      <point x="406.4" y="27.2"/>
      <point x="322.6" y="65.2"/>
      <point x="207.79999999999998" y="130.8" type="curve"/>
      <point x="371.8" y="20.8" type="line"/>
      <point x="108.19999999999999" y="430.8" type="line"/>
      <point x="77.8" y="430.8" type="line"/>
      <point x="161.8" y="40.4" type="line"/>
      <point x="280.2" y="-7.2"/>
      <point x="381.6" y="-22.8"/>
      <point x="520.1999999999999" y="-22.8" type="curve" smooth="yes"/>
      <point x="819.6" y="-22.8"/>
      <point x="1065.4" y="161.8"/>
      <point x="1065.4" y="439.0" type="curve" smooth="yes"/>
      <point x="1065.4" y="732.8"/>
      <point x="856.0" y="821.1999999999999"/>
      <point x="665.4000000000001" y="886.8" type="curve" smooth="yes"/>
      <point x="474.8" y="952.4"/>
      <point x="299.6" y="998.8000000000001"/>
      <point x="299.6" y="1178.3999999999999" type="curve" smooth="yes"/>
      <point x="299.6" y="1307.2"/>
      <point x="373.8" y="1394.6"/>
      <point x="544.6" y="1394.6" type="curve" smooth="yes"/>
      <point x="659.0" y="1394.6"/>
      <point x="766.8" y="1345.4"/>
      <point x="858.4000000000001" y="1259.2" type="curve"/>
      <point x="791.2" y="1342.4" type="line"/>
      <point x="987.0" y="1011.0" type="line"/>
      <point x="1013.4" y="1016.0" type="line"/>
      <point x="947.6" y="1489.2" type="line"/>
      <point x="929.6" y="1489.2" type="line"/>
      <point x="814.8" y="1391.0" type="line"/>
    </contour>
  </outline>
</glyph>
<glyph name="U" format="2">
  <advance width="1597"/>
  <unicode hex="0055"/>
  <anchor x="856.8" y="1430.0" name="UCtop"/>
  <anchor x="1008.8000000000001" y="0.0" name="right"/>
  <anchor x="856.8" y="0.0" name="bottom"/>
  <anchor x="1432.8" y="1428.0" name="horn"/>
  <outline>
    <contour>
      <point x="1322.4" y="568.0" type="line" smooth="yes"/>
      <point x="1322.4" y="256.8"/>
      <point x="1169.2" y="118.0"/>
      <point x="893.4" y="118.0" type="curve" smooth="yes"/>
      <point x="609.4" y="118.0"/>
      <point x="466.8" y="260.2"/>
      <point x="466.8" y="564.1999999999999" type="curve" smooth="yes"/>
      <point x="466.8" y="1357.0" type="line"/>
      <point x="638.5999999999999" y="1399.0" type="line"/>
      <point x="638.5999999999999" y="1430.0" type="line"/>
      <point x="28.6" y="1430.0" type="line"/>
      <point x="28.6" y="1399.0" type="line"/>
      <point x="200.4" y="1357.0" type="line"/>
      <point x="200.4" y="581.0" type="line" smooth="yes"/>
      <point x="200.4" y="181.12712146422632"/>
      <point x="415.6" y="-22.0"/>
      <point x="811.4" y="-22.0" type="curve" smooth="yes"/>
      <point x="1179.6" y="-22.0"/>
      <point x="1393.0" y="177.71063829787232"/>
      <point x="1393.0" y="551.4" type="curve" smooth="yes"/>
      <point x="1393.0" y="1356.1999999999998" type="line"/>
      <point x="1564.8" y="1399.0" type="line"/>
      <point x="1564.8" y="1430.0" type="line"/>
      <point x="1133.8" y="1430.0" type="line"/>
      <point x="1133.8" y="1399.0" type="line"/>
      <point x="1322.4" y="1356.1999999999998" type="line"/>
    </contour>
  </outline>
</glyph>
<glyph name="V" format="2">
  <advance width="1460"/>
  <unicode hex="0056"/>
  <anchor x="798.8" y="1430.0" name="UCtop"/>
  <anchor x="770.5999999999999" y="0.0" name="bottom"/>
  <outline>
    <contour>
      <point x="110.39999999999999" y="1354.0" type="line"/>
      <point x="724.8" y="-16.0" type="line"/>
      <point x="818.0" y="-16.0" type="line"/>
      <point x="1323.0" y="1348.8000000000002" type="line"/>
      <point x="1476.0" y="1399.6" type="line"/>
      <point x="1476.0" y="1430.0" type="line"/>
      <point x="1065.8" y="1430.0" type="line"/>
      <point x="1065.8" y="1399.6" type="line"/>
      <point x="1250.0" y="1351.8000000000002" type="line"/>
      <point x="848.2" y="232.8" type="line"/>
      <point x="886.4" y="242.4" type="line"/>
      <point x="395.0" y="1356.0" type="line"/>
      <point x="573.8" y="1399.1999999999998" type="line"/>
      <point x="573.8" y="1430.0" type="line"/>
      <point x="-45.6" y="1430.0" type="line"/>
      <point x="-45.6" y="1399.1999999999998" type="line"/>
    </contour>
  </outline>
</glyph>
<glyph name="W" format="2">
	<unicode hex="0057"/>
	<advance width="2091.2"/>
	<outline>
		<contour>
			<point x="1082.6" y="1216.4" type="line"/>
			<point x="1012.8" y="1176.4" type="line"/>
			<point x="1482.6" y="-16" type="line"/>
			<point x="1575.8" y="-16" type="line"/>
			<point x="1958.8" y="1348.8" type="line"/>
			<point x="2111.8" y="1399.6" type="line"/>
			<point x="2111.8" y="1430" type="line"/>
			<point x="1701" y="1430" type="line"/>
			<point x="1701" y="1399.6" type="line"/>
			<point x="1885.2" y="1351.8" type="line"/>
			<point x="1596.2" y="254.6" type="line"/>
			<point x="1645" y="258.2" type="line"/>
			<point x="1193.2" y="1446" type="line"/>
			<point x="1090.8" y="1446" type="line"/>
			<point x="667.4" y="233.2" type="line"/>
			<point x="730" y="261.4" type="line"/>
			<point x="406.4" y="1356" type="line"/>
			<point x="585.2" y="1399.2" type="line"/>
			<point x="585.2" y="1430" type="line"/>
			<point x="-31.8" y="1430" type="line"/>
			<point x="-31.8" y="1399.2" type="line"/>
			<point x="124.2" y="1354" type="line"/>
			<point x="546.6" y="-16" type="line"/>
			<point x="639.8" y="-16" type="line"/>
		</contour>
	</outline>
	<anchor name="UCtop" x="1133.2" y="1430"/>
	<anchor name="bottom" x="1111.2" y="0"/>
</glyph>
<glyph name="X" format="2">
	<unicode hex="0058"/>
	<advance width="1502"/>
	<outline>
		<contour>
			<point x="719.4" y="681.4" type="line"/>
			<point x="802" y="748" type="line"/>
			<point x="1281.6" y="1348.6" type="line"/>
			<point x="1431.8" y="1399" type="line"/>
			<point x="1431.8" y="1430" type="line"/>
			<point x="1016" y="1430" type="line"/>
			<point x="1016" y="1399" type="line"/>
			<point x="1200" y="1351.6" type="line"/>
			<point x="762.6" y="798.2" type="line"/>
			<point x="681.4" y="732.6" type="line"/>
			<point x="150.6" y="81.4" type="line"/>
			<point x="-0.2" y="31" type="line"/>
			<point x="-0.2" y="0" type="line"/>
			<point x="415.8" y="0" type="line"/>
			<point x="415.8" y="31" type="line"/>
			<point x="232" y="78.4" type="line"/>
		</contour>
		<contour>
			<point x="1066.6" y="74.8" type="line"/>
			<point x="889.2" y="30.8" type="line"/>
			<point x="889.2" y="0" type="line"/>
			<point x="1524.8" y="0" type="line"/>
			<point x="1524.8" y="30.8" type="line"/>
			<point x="1369.6" y="76.8" type="line"/>
			<point x="838.8" y="843.4" type="line"/>
			<point x="826" y="861.4" type="line"/>
			<point x="483" y="1355.2" type="line"/>
			<point x="661" y="1399" type="line"/>
			<point x="661" y="1430" type="line"/>
			<point x="25.2" y="1430" type="line"/>
			<point x="25.2" y="1399" type="line"/>
			<point x="181" y="1353.2" type="line"/>
			<point x="651.2" y="673.8" type="line"/>
			<point x="667.6" y="649.6" type="line"/>
		</contour>
	</outline>
	<anchor name="UCtop" x="790.2" y="1430"/>
	<anchor name="bottom" x="722.2" y="0"/>
</glyph>
<glyph name="Y" format="2">
	<unicode hex="0059"/>
	<advance width="1435.8"/>
	<outline>
		<contour>
			<point x="126.8" y="1354.4" type="line"/>
			<point x="605" y="660.4" type="line"/>
			<point x="605" y="74" type="line"/>
			<point x="433.2" y="30.8" type="line"/>
			<point x="433.2" y="0" type="line"/>
			<point x="1043.2" y="0" type="line"/>
			<point x="1043.2" y="30.8" type="line"/>
			<point x="871.4" y="74" type="line"/>
			<point x="871.4" y="660.8" type="line"/>
			<point x="1286.2" y="1348.8" type="line"/>
			<point x="1438.6" y="1399" type="line"/>
			<point x="1438.6" y="1430" type="line"/>
			<point x="1029.8" y="1430" type="line"/>
			<point x="1029.8" y="1399" type="line"/>
			<point x="1214.4" y="1351.8" type="line"/>
			<point x="822.6" y="692.8" type="line"/>
			<point x="870" y="695.4" type="line"/>
			<point x="422.8" y="1356.4" type="line"/>
			<point x="607.6" y="1399" type="line"/>
			<point x="607.6" y="1430" type="line"/>
			<point x="-26.4" y="1430" type="line"/>
			<point x="-26.4" y="1399" type="line"/>
		</contour>
	</outline>
	<anchor name="UCtop" x="765.6" y="1430"/>
	<anchor name="bottom" x="738.2" y="0"/>
</glyph>
<glyph name="Z" format="2">
	<unicode hex="005A"/>
	<advance width="1340.4"/>
	<outline>
		<contour>
			<point x="1230.2" y="1430" type="line"/>
			<point x="299.8" y="1430" type="line"/>
			<point x="157.2" y="1496.8" type="line"/>
			<point x="142.6" y="1496.8" type="line"/>
			<point x="57.8" y="1021.4" type="line"/>
			<point x="82.4" y="1015" type="line"/>
			<point x="302" y="1362" type="line"/>
			<point x="1157.8" y="1362" type="line"/>
			<point x="953.4" y="1410.6" type="line"/>
			<point x="96.2" y="19" type="line"/>
			<point x="96.2" y="0" type="line"/>
			<point x="1053" y="0" type="line"/>
			<point x="1196.4" y="-58" type="line"/>
			<point x="1216" y="-58" type="line"/>
			<point x="1294.6" y="413.4" type="line"/>
			<point x="1266.8" y="420" type="line"/>
			<point x="1039.4" y="68" type="line"/>
			<point x="283.8" y="68" type="line"/>
			<point x="375.2" y="22.6" type="line"/>
			<point x="1230.2" y="1410.2" type="line"/>
		</contour>
	</outline>
	<anchor name="UCtop" x="702.2" y="1430"/>
	<anchor name="bottom" x="670.2" y="0"/>
</glyph>
<glyph name="bracketleft" format="2">
	<unicode hex="005B"/>
	<advance width="591"/>
	<outline>
		<contour>
			<point x="183.2" y="-228" type="line"/>
			<point x="571.4" y="-228" type="line"/>
			<point x="571.4" y="-196.8" type="line"/>
			<point x="344.4" y="-171.6" type="line"/>
			<point x="344.4" y="1407.6" type="line"/>
			<point x="571.4" y="1432.8" type="line"/>
			<point x="571.4" y="1464" type="line"/>
			<point x="183.2" y="1464" type="line"/>
		</contour>
	</outline>
</glyph>
<glyph name="backslash" format="2">
  <advance width="782.6"/>
  <unicode hex="005C"/>
  <outline>
    <contour>
      <point x="728.2" y="0.0" type="line"/>
      <point x="131.2" y="1430.0" type="line"/>
      <point x="51.4" y="1430.0" type="line"/>
      <point x="648.4" y="0.0" type="line"/>
    </contour>
  </outline>
</glyph>
<glyph name="bracketright" format="2">
	<unicode hex="005D"/>
	<advance width="591"/>
	<outline>
		<contour>
			<point x="407.8" y="1464" type="line"/>
			<point x="19.6" y="1464" type="line"/>
			<point x="19.6" y="1432.8" type="line"/>
			<point x="246.6" y="1407.6" type="line"/>
			<point x="246.6" y="-171.6" type="line"/>
			<point x="19.6" y="-196.8" type="line"/>
			<point x="19.6" y="-228" type="line"/>
			<point x="407.8" y="-228" type="line"/>
		</contour>
	</outline>
</glyph>
<glyph name="asciicircum" format="2">
  <advance width="1150.0"/>
  <unicode hex="005E"/>
  <outline>
    <contour>
      <point x="566.6" y="1359.0" type="line"/>
      <point x="892.2" y="662.0" type="line"/>
      <point x="970.4" y="662.0" type="line"/>
      <point x="608.4" y="1430.0" type="line"/>
      <point x="539.6" y="1430.0" type="line"/>
      <point x="179.6" y="662.0" type="line"/>
      <point x="257.8" y="662.0" type="line"/>
      <point x="580.4" y="1359.0" type="line"/>
    </contour>
  </outline>
</glyph>
<glyph name="a" format="2">
	<unicode hex="0061"/>
	<advance width="1051.6"/>
	<outline>
		<contour>
			<point x="693.6" y="660.6" type="line"/>
			<point x="157.8" y="487.8"/>
			<point x="75" y="411"/>
			<point x="75" y="238.8" type="curve" smooth="yes"/>
			<point x="75" y="72.4"/>
			<point x="193.6" y="-21.4"/>
			<point x="368.2" y="-21.4" type="curve" smooth="yes"/>
			<point x="500.6" y="-21.4"/>
			<point x="602" y="69.8"/>
			<point x="638" y="213.4" type="curve"/>
			<point x="631.8" y="216.4" type="line"/>
			<point x="636.8" y="60.4"/>
			<point x="678.2" y="-22"/>
			<point x="808.2" y="-22" type="curve" smooth="yes"/>
			<point x="899" y="-22"/>
			<point x="971.6" y="-0.4"/>
			<point x="1072" y="110.2" type="curve"/>
			<point x="1072" y="144.2" type="line"/>
			<point x="1028.2" y="115.8"/>
			<point x="987.8" y="103.6"/>
			<point x="946.6" y="103.6" type="curve" smooth="yes"/>
			<point x="899.6" y="103.6"/>
			<point x="868.4" y="127.4"/>
			<point x="868.4" y="188.8" type="curve" smooth="yes"/>
			<point x="868.4" y="764.8" type="line" smooth="yes"/>
			<point x="868.4" y="934.8"/>
			<point x="778" y="1046"/>
			<point x="539.2" y="1046" type="curve" smooth="yes"/>
			<point x="334.4" y="1046"/>
			<point x="83.6" y="914.8"/>
			<point x="83.6" y="800.4" type="curve" smooth="yes"/>
			<point x="83.6" y="758.8"/>
			<point x="115" y="738.8"/>
			<point x="169.6" y="738.8" type="curve" smooth="yes"/>
			<point x="211.4" y="738.8"/>
			<point x="253.4" y="754.2"/>
			<point x="271.8" y="777.8" type="curve" smooth="yes"/>
			<point x="297.4" y="810.2"/>
			<point x="311.8" y="891"/>
			<point x="321.6" y="984.8" type="curve"/>
			<point x="272" y="938.8" type="line"/>
			<point x="308" y="955"/>
			<point x="374.4" y="963.6"/>
			<point x="438.6" y="963.6" type="curve" smooth="yes"/>
			<point x="569.8" y="963.6"/>
			<point x="633.6" y="894"/>
			<point x="633.6" y="766.4" type="curve" smooth="yes"/>
			<point x="633.6" y="302.6" type="line" smooth="yes"/>
			<point x="633.6" y="185.8"/>
			<point x="566" y="125.8"/>
			<point x="465.8" y="125.8" type="curve" smooth="yes"/>
			<point x="377.8" y="125.8"/>
			<point x="310.8" y="179.8"/>
			<point x="310.8" y="293" type="curve" smooth="yes"/>
			<point x="310.8" y="428.8"/>
			<point x="369" y="508.6"/>
			<point x="700.6" y="615.8" type="curve"/>
		</contour>
	</outline>
	<anchor name="top" x="493.4" y="1024"/>
	<anchor name="right" x="1072" y="0"/>
	<anchor name="bottom" x="497" y="0"/>
</glyph>
<glyph name="b" format="2">
	<unicode hex="0062"/>
	<advance width="1190.6"/>
	<outline>
		<contour>
			<point x="200.6" y="63" type="line"/>
			<point x="307.2" y="3.6"/>
			<point x="435.2" y="-22"/>
			<point x="559.6" y="-22" type="curve" smooth="yes"/>
			<point x="887.4" y="-22"/>
			<point x="1119.8" y="192"/>
			<point x="1119.8" y="567" type="curve" smooth="yes"/>
			<point x="1119.8" y="861.8"/>
			<point x="966.8" y="1046"/>
			<point x="709.2" y="1046" type="curve" smooth="yes"/>
			<point x="597.8" y="1046"/>
			<point x="488.8" y="995.8"/>
			<point x="311.4" y="805.6" type="curve"/>
			<point x="323.4" y="782.2" type="line"/>
			<point x="405" y="864.8"/>
			<point x="488.6" y="894.2"/>
			<point x="587.4" y="894.2" type="curve" smooth="yes"/>
			<point x="779.8" y="894.2"/>
			<point x="873" y="767.4"/>
			<point x="873" y="483.8" type="curve" smooth="yes"/>
			<point x="873" y="178.4"/>
			<point x="772.2" y="31"/>
			<point x="597.8" y="31" type="curve" smooth="yes"/>
			<point x="471.2" y="31"/>
			<point x="378" y="116.2"/>
			<point x="378" y="239.6" type="curve" smooth="yes"/>
			<point x="378" y="1310.4" type="line"/>
			<point x="388.4" y="1486" type="line"/>
			<point x="374.2" y="1486" type="line"/>
			<point x="-14" y="1401.4" type="line"/>
			<point x="-14" y="1382.8" type="line"/>
			<point x="64" y="1328.5111111111"/>
			<point x="117.2" y="1291.0962962963"/>
			<point x="143.2" y="1273" type="curve"/>
			<point x="143.2" y="223.4" type="line"/>
			<point x="100" y="-28.2" type="line"/>
			<point x="113.8" y="-36" type="line"/>
			<point x="324.4" y="85.4" type="line"/>
		</contour>
	</outline>
	<anchor name="UCtop" x="622.8" y="1451"/>
	<anchor name="bottom" x="592.8" y="0"/>
</glyph>
<glyph name="c" format="2">
	<unicode hex="0063"/>
	<advance width="967.8"/>
	<outline>
		<contour>
			<point x="609" y="1046" type="curve" smooth="yes"/>
			<point x="301.8" y="1046"/>
			<point x="69" y="813"/>
			<point x="69" y="493.6" type="curve" smooth="yes"/>
			<point x="69" y="160"/>
			<point x="263.2" y="-22"/>
			<point x="527.6" y="-22" type="curve" smooth="yes"/>
			<point x="691" y="-22"/>
			<point x="811" y="50"/>
			<point x="935.6" y="264.2" type="curve"/>
			<point x="917.8" y="278.2" type="line"/>
			<point x="845.4" y="187"/>
			<point x="747.6" y="147.4"/>
			<point x="640" y="147.4" type="curve" smooth="yes"/>
			<point x="420.2" y="147.4"/>
			<point x="301.8" y="280.4"/>
			<point x="301.8" y="615.2" type="curve" smooth="yes"/>
			<point x="301.8" y="878.6"/>
			<point x="393" y="988.8"/>
			<point x="524.4" y="988.8" type="curve" smooth="yes"/>
			<point x="650.8" y="988.8"/>
			<point x="768.4" y="781.4"/>
			<point x="798" y="781.4" type="curve" smooth="yes"/>
			<point x="862" y="781.4"/>
			<point x="908" y="823"/>
			<point x="908" y="889.8" type="curve" smooth="yes"/>
			<point x="908" y="970.4"/>
			<point x="820.8" y="1046"/>
		</contour>
	</outline>
	<anchor name="top" x="536.8" y="1024"/>
	<anchor name="right" x="931.6" y="0"/>
	<anchor name="bottom" x="540.2" y="0"/>
</glyph>
<glyph name="d" format="2">
	<unicode hex="0064"/>
	<advance width="1215.4"/>
	<outline>
		<contour>
			<point x="811.4" y="784.4" type="curve" smooth="yes"/>
			<point x="811.4" y="121.4" type="line"/>
			<point x="817.2" y="-29.4" type="line"/>
			<point x="827" y="-29.4" type="line"/>
			<point x="1201.2" y="23.8" type="line"/>
			<point x="1201.2" y="47.6" type="line"/>
			<point x="1159.2" y="66.8051038415"/>
			<point x="1070.2" y="106.6256549477"/>
			<point x="1046.2" y="117.6" type="curve"/>
			<point x="1046.2" y="1318.4" type="line"/>
			<point x="1057.4" y="1486" type="line"/>
			<point x="1049.6" y="1486" type="line"/>
			<point x="648.6" y="1399" type="line"/>
			<point x="648.6" y="1378" type="line"/>
			<point x="705.6" y="1345.6870483981"/>
			<point x="787.4" y="1299.4054533061"/>
			<point x="811.4" y="1285.8" type="curve"/>
			<point x="811.4" y="943.2" type="line"/>
			<point x="978.6" y="965.6" type="line"/>
			<point x="877.2" y="1021.4"/>
			<point x="749.8" y="1046"/>
			<point x="629.8" y="1046" type="curve" smooth="yes"/>
			<point x="302.4" y="1046"/>
			<point x="69.6" y="832.2"/>
			<point x="69.6" y="462.2" type="curve" smooth="yes"/>
			<point x="69.6" y="171.8"/>
			<point x="235" y="-22"/>
			<point x="496.2" y="-22" type="curve" smooth="yes"/>
			<point x="608.4" y="-22"/>
			<point x="715.2" y="28.8"/>
			<point x="877.8" y="219.2" type="curve"/>
			<point x="865.8" y="242" type="line"/>
			<point x="789" y="160.2"/>
			<point x="704.2" y="129.8"/>
			<point x="604" y="129.8" type="curve" smooth="yes"/>
			<point x="410.8" y="129.8"/>
			<point x="316.4" y="257.8"/>
			<point x="316.4" y="546.4" type="curve" smooth="yes"/>
			<point x="316.4" y="846"/>
			<point x="417.4" y="993"/>
			<point x="591.6" y="993" type="curve" smooth="yes"/>
			<point x="718.2" y="993"/>
			<point x="811.4" y="907.8"/>
		</contour>
	</outline>
	<anchor name="right" x="1046.2" y="1436.8"/>
	<anchor name="UCtop" x="595.2" y="1430"/>
	<anchor name="bottom" x="615" y="0"/>
	<anchor name="center" x="856.4" y="1174.6"/>
</glyph>
<glyph name="e" format="2">
	<unicode hex="0065"/>
	<advance width="1006.2"/>
	<outline>
		<contour>
			<point x="563.2" y="1046" type="curve" smooth="yes"/>
			<point x="247.4" y="1046"/>
			<point x="69.4" y="790.8"/>
			<point x="69.4" y="493.2" type="curve" smooth="yes"/>
			<point x="69.4" y="159.8"/>
			<point x="269.2" y="-22"/>
			<point x="541.6" y="-22" type="curve" smooth="yes"/>
			<point x="710.2" y="-22"/>
			<point x="834.4" y="51"/>
			<point x="963.6" y="266.2" type="curve"/>
			<point x="945" y="280.2" type="line"/>
			<point x="870.8" y="188"/>
			<point x="768.6" y="147.4"/>
			<point x="659.2" y="147.4" type="curve" smooth="yes"/>
			<point x="429" y="147.4"/>
			<point x="302.2" y="279.4"/>
			<point x="302.2" y="606.4" type="curve" smooth="yes"/>
			<point x="302.2" y="863.8"/>
			<point x="387.4" y="990.8"/>
			<point x="532" y="990.8" type="curve" smooth="yes"/>
			<point x="641.4" y="990.8"/>
			<point x="697.6" y="899.6"/>
			<point x="716" y="675.4" type="curve"/>
			<point x="818.8" y="718.4" type="line"/>
			<point x="274.8" y="718.4" type="line"/>
			<point x="274.8" y="653.8" type="line"/>
			<point x="941.6" y="653.8" type="line"/>
			<point x="923" y="907"/>
			<point x="786.8" y="1046"/>
		</contour>
	</outline>
	<anchor name="top" x="533.8" y="1024"/>
	<anchor name="right" x="963.6" y="0"/>
	<anchor name="bottom" x="539.8" y="0"/>
</glyph>
<glyph name="f" format="2">
	<unicode hex="0066"/>
	<advance width="754.6"/>
	<outline>
		<contour>
			<point x="247.2" y="901.4" type="line"/>
			<point x="735.2" y="901.4" type="line"/>
			<point x="752.6" y="1024" type="line"/>
			<point x="299.8" y="1024" type="line"/>
			<point x="220.6" y="1034.4" type="line"/>
			<point x="27" y="969.8" type="line"/>
			<point x="27" y="938.2" type="line"/>
			<point x="208" y="883.4" type="line"/>
		</contour>
		<contour>
			<point x="431.6" y="59.2" type="line"/>
			<point x="431.6" y="1207.8" type="line" smooth="yes"/>
			<point x="431.6" y="1345.2"/>
			<point x="475" y="1412"/>
			<point x="573.4" y="1412" type="curve" smooth="yes"/>
			<point x="700.8" y="1412"/>
			<point x="821.8" y="1253.2"/>
			<point x="850.4" y="1253.2" type="curve" smooth="yes"/>
			<point x="903.4" y="1253.2"/>
			<point x="945.2" y="1301.4"/>
			<point x="945.2" y="1354.6" type="curve" smooth="yes"/>
			<point x="945.2" y="1429.8"/>
			<point x="868.4" y="1486"/>
			<point x="701.4" y="1486" type="curve" smooth="yes"/>
			<point x="405.6" y="1486"/>
			<point x="192" y="1290"/>
			<point x="192" y="1001.8" type="curve" smooth="yes"/>
			<point x="192" y="59.2" type="line"/>
			<point x="60.4" y="28.2" type="line"/>
			<point x="60.4" y="0" type="line"/>
			<point x="583.2" y="0" type="line"/>
			<point x="583.2" y="28.2" type="line"/>
		</contour>
	</outline>
	<anchor name="UCtop" x="568.8" y="1430"/>
	<anchor name="bottom" x="311.8" y="0"/>
</glyph>
<glyph name="g" format="2">
	<unicode hex="0067"/>
	<advance width="1047.6"/>
	<outline>
		<contour>
			<point x="451.2" y="-465" type="curve" smooth="yes"/>
			<point x="829.4" y="-465"/>
			<point x="1006.4" y="-299.8"/>
			<point x="1006.4" y="-118.2" type="curve" smooth="yes"/>
			<point x="1006.4" y="46.6"/>
			<point x="879.4" y="136.2"/>
			<point x="572.4" y="163" type="curve" smooth="yes"/>
			<point x="313.4" y="185.8"/>
			<point x="266.4" y="211.2"/>
			<point x="266.4" y="284.4" type="curve" smooth="yes"/>
			<point x="266.4" y="324.8"/>
			<point x="298" y="368.6"/>
			<point x="392" y="375.6" type="curve"/>
			<point x="378.6" y="400.4" type="line"/>
			<point x="204.9857988437" y="362.5409573736"/>
			<point x="102.4" y="285.3038461538"/>
			<point x="102.4" y="178.8" type="curve" smooth="yes"/>
			<point x="102.4" y="56"/>
			<point x="174" y="-23.8"/>
			<point x="426.2" y="-47" type="curve" smooth="yes"/>
			<point x="725" y="-68.6"/>
			<point x="839.6" y="-105.2"/>
			<point x="839.6" y="-218.4" type="curve" smooth="yes"/>
			<point x="839.6" y="-329.6801932367"/>
			<point x="731.6222222222" y="-414"/>
			<point x="505.8" y="-414" type="curve" smooth="yes"/>
			<point x="307.6828025478" y="-414"/>
			<point x="182.4" y="-339.7402843602"/>
			<point x="182.4" y="-212.4" type="curve" smooth="yes"/>
			<point x="182.4" y="-120.8"/>
			<point x="252.4" y="-46.8"/>
			<point x="482.6" y="-14.8" type="curve"/>
			<point x="482.8" y="1.2" type="line"/>
			<point x="405.6" y="1" type="line"/>
			<point x="108.4" y="-56.4"/>
			<point x="8.4" y="-140"/>
			<point x="8.4" y="-239.6" type="curve" smooth="yes"/>
			<point x="8.4" y="-364"/>
			<point x="126.8" y="-465"/>
		</contour>
		<contour>
			<point x="470.8" y="362" type="curve" smooth="yes"/>
			<point x="703.6" y="362"/>
			<point x="870.8" y="504.6"/>
			<point x="870.8" y="703.4" type="curve" smooth="yes"/>
			<point x="870.8" y="904.6"/>
			<point x="705.6" y="1046"/>
			<point x="469.2" y="1046" type="curve" smooth="yes"/>
			<point x="243.6" y="1046"/>
			<point x="73.2" y="902.6"/>
			<point x="73.2" y="703" type="curve" smooth="yes"/>
			<point x="73.2" y="502.6"/>
			<point x="241.6" y="362"/>
		</contour>
		<contour>
			<point x="498.6" y="404" type="curve" smooth="yes"/>
			<point x="388" y="395.2"/>
			<point x="312.4" y="514.4"/>
			<point x="298.8" y="703.8" type="curve" smooth="yes"/>
			<point x="284.4" y="869.2"/>
			<point x="338.8" y="994.4"/>
			<point x="441.4" y="1004" type="curve" smooth="yes"/>
			<point x="556" y="1012.8"/>
			<point x="629.2" y="899.2"/>
			<point x="644.4" y="705.8" type="curve" smooth="yes"/>
			<point x="660.4" y="539.6"/>
			<point x="610" y="416.8"/>
		</contour>
		<contour>
			<point x="602.8" y="1005.8" type="line"/>
			<point x="839.8" y="990.6"/>
			<point x="894.4" y="872"/>
			<point x="959.8" y="872" type="curve" smooth="yes"/>
			<point x="1010.6" y="872"/>
			<point x="1062" y="925.2"/>
			<point x="1062" y="1007" type="curve" smooth="yes"/>
			<point x="1062" y="1048.6"/>
			<point x="1043.6" y="1065"/>
			<point x="1019.8" y="1065" type="curve" smooth="yes"/>
			<point x="979.2" y="1065"/>
			<point x="924.2" y="1012.8"/>
			<point x="557" y="1038.4" type="curve"/>
		</contour>
	</outline>
	<anchor name="top" x="478.2" y="1024"/>
	<anchor name="bottom" x="499.8" y="-443"/>
</glyph>
<glyph name="h" format="2">
  <advance width="1210"/>
  <unicode hex="0068"/>
  <anchor x="611.6" y="1430.2" name="UCtop"/>
  <anchor x="608.8000000000001" y="0.0" name="bottom"/>
  <anchor x="354.6" y="1174.6000000000001" name="center"/>
  <outline>
    <contour>
      <point x="685.5999999999999" y="28.2" type="line"/>
      <point x="685.5999999999999" y="0.0" type="line"/>
      <point x="1182.0" y="0.0" type="line"/>
      <point x="1182.0" y="28.2" type="line"/>
      <point x="1050.6000000000001" y="59.199999999999996" type="line"/>
      <point x="1050.6000000000001" y="725.0" type="line" smooth="yes"/>
      <point x="1050.6000000000001" y="942.6"/>
      <point x="965.1999999999999" y="1044.0"/>
      <point x="772.5999999999999" y="1044.0" type="curve" smooth="yes"/>
      <point x="645.4000000000001" y="1044.0"/>
      <point x="569.1999999999999" y="1013.0"/>
      <point x="361.2" y="836.8" type="curve"/>
      <point x="371.6" y="816.6" type="line"/>
      <point x="434.8" y="847.0"/>
      <point x="525.0" y="877.8"/>
      <point x="617.8" y="877.8" type="curve" smooth="yes"/>
      <point x="754.0" y="877.8"/>
      <point x="815.8" y="817.8"/>
      <point x="815.8" y="691.6" type="curve" smooth="yes"/>
      <point x="815.8" y="58.6" type="line"/>
    </contour>
    <contour>
      <point x="529.0" y="0.0" type="line"/>
      <point x="529.0" y="28.2" type="line"/>
      <point x="399.6" y="58.6" type="line"/>
      <point x="399.6" y="943.2" type="line"/>
      <point x="399.6" y="1486.0" type="line"/>
      <point x="391.0" y="1486.0" type="line"/>
      <point x="2.0" y="1396.8" type="line"/>
      <point x="2.0" y="1375.8" type="line"/>
      <point x="80.0" y="1329.6563508293568"/>
      <point x="138.8" y="1294.9812163902143"/>
      <point x="164.79999999999998" y="1279.6" type="curve"/>
      <point x="164.79999999999998" y="59.199999999999996" type="line"/>
      <point x="33.199999999999996" y="28.2" type="line"/>
      <point x="33.199999999999996" y="0.0" type="line"/>
    </contour>
  </outline>
</glyph>
<glyph name="i" format="2">
	<unicode hex="0069"/>
	<advance width="581.4"/>
	<outline>
		<contour>
			<point x="284.8" y="1186" type="curve" smooth="yes"/>
			<point x="376.4" y="1186"/>
			<point x="429.4" y="1257.8"/>
			<point x="429.4" y="1335.2" type="curve" smooth="yes"/>
			<point x="429.4" y="1411"/>
			<point x="376.4" y="1474.8"/>
			<point x="284.8" y="1474.8" type="curve" smooth="yes"/>
			<point x="193.4" y="1474.8"/>
			<point x="136.6" y="1411"/>
			<point x="136.6" y="1335.2" type="curve" smooth="yes"/>
			<point x="136.6" y="1257.8"/>
			<point x="193.4" y="1186"/>
		</contour>
		<contour>
			<point x="416.8" y="1054.8" type="line"/>
			<point x="408.2" y="1054.8" type="line"/>
			<point x="45.2" y="954.4" type="line"/>
			<point x="45.2" y="933.4" type="line"/>
			<point x="106.2" y="886.8920704296"/>
			<point x="160" y="849.1733516484"/>
			<point x="182" y="832.4" type="curve"/>
			<point x="182" y="59.2" type="line"/>
			<point x="50.4" y="28.2" type="line"/>
			<point x="50.4" y="0" type="line"/>
			<point x="546.2" y="0" type="line"/>
			<point x="546.2" y="28.2" type="line"/>
			<point x="416.8" y="58.6" type="line"/>
			<point x="416.8" y="855.2" type="line"/>
		</contour>
	</outline>
	<anchor name="top" x="290.8" y="1430"/>
	<anchor name="bottom" x="299.4" y="0"/>
	<anchor name="right" x="441.8" y="0"/>
</glyph>
<glyph name="j" format="2">
	<unicode hex="006A"/>
	<advance width="540.4"/>
	<outline>
		<contour>
			<point x="271.4" y="1186" type="curve" smooth="yes"/>
			<point x="363" y="1186"/>
			<point x="416" y="1257.8"/>
			<point x="416" y="1335.2" type="curve" smooth="yes"/>
			<point x="416" y="1411"/>
			<point x="363" y="1474.8"/>
			<point x="271.4" y="1474.8" type="curve" smooth="yes"/>
			<point x="180" y="1474.8"/>
			<point x="123.2" y="1411"/>
			<point x="123.2" y="1335.2" type="curve" smooth="yes"/>
			<point x="123.2" y="1257.8"/>
			<point x="180" y="1186"/>
		</contour>
		<contour>
			<point x="169.4" y="832.4" type="curve"/>
			<point x="169.4" y="-11.4" type="line" smooth="yes"/>
			<point x="169.4" y="-220.8"/>
			<point x="163.8" y="-251.2"/>
			<point x="1.6" y="-442.8" type="curve"/>
			<point x="22.2" y="-463" type="line"/>
			<point x="384" y="-169.4"/>
			<point x="404.2" y="-127.2"/>
			<point x="404.2" y="81.8" type="curve" smooth="yes"/>
			<point x="404.2" y="855.2" type="line"/>
			<point x="404.2" y="1054.8" type="line"/>
			<point x="395.6" y="1054.8" type="line"/>
			<point x="32.6" y="954.4" type="line"/>
			<point x="32.6" y="933.4" type="line"/>
			<point x="93.6" y="886.8920704296"/>
			<point x="147.4" y="849.1733516484"/>
		</contour>
	</outline>
	<anchor name="top" x="274.8" y="1430"/>
	<anchor name="bottom" x="258.8" y="-443"/>
</glyph>
<glyph name="k" format="2">
	<unicode hex="006B"/>
	<advance width="1176"/>
	<outline>
		<contour>
			<point x="505.6" y="603.2" type="line"/>
			<point x="977.2" y="956.4" type="line"/>
			<point x="1130.4" y="991" type="line"/>
			<point x="1130.4" y="1024" type="line"/>
			<point x="730.8" y="1024" type="line"/>
			<point x="730.8" y="991" type="line"/>
			<point x="881" y="958.2" type="line"/>
			<point x="418.6" y="587.2" type="line"/>
			<point x="350.6" y="587.2" type="line"/>
			<point x="350.6" y="535.8" type="line"/>
			<point x="409.6" y="535.8" type="line"/>
			<point x="812.8" y="55.4" type="line"/>
			<point x="690.2" y="28.2" type="line"/>
			<point x="690.2" y="0" type="line"/>
			<point x="1200" y="0" type="line"/>
			<point x="1200" y="28.2" type="line"/>
			<point x="1094" y="58.6" type="line"/>
			<point x="579.4" y="674.4" type="line"/>
		</contour>
		<contour>
			<point x="399.6" y="59.2" type="line"/>
			<point x="399.6" y="1311.2" type="line"/>
			<point x="399.6" y="1486" type="line"/>
			<point x="391" y="1486" type="line"/>
			<point x="2" y="1399" type="line"/>
			<point x="2" y="1378" type="line"/>
			<point x="80" y="1333.7822767553"/>
			<point x="138.8" y="1300.5392410816"/>
			<point x="164.8" y="1285.8" type="curve"/>
			<point x="164.8" y="59.2" type="line"/>
			<point x="33.2" y="28.2" type="line"/>
			<point x="33.2" y="0" type="line"/>
			<point x="529.2" y="0" type="line"/>
			<point x="529.2" y="28.2" type="line"/>
		</contour>
	</outline>
	<anchor name="bottom" x="600.2" y="0"/>
	<anchor name="UCtop" x="598.4" y="1430"/>
</glyph>
<glyph name="l" format="2">
  <advance width="569.1999999999999"/>
  <unicode hex="006C"/>
  <anchor x="274.8" y="1430.0" name="UCtop"/>
  <anchor x="402.0" y="1436.8" name="right"/>
  <anchor x="284.6" y="0.0" name="bottom"/>
  <anchor x="632.4" y="582.0" name="mid"/>
  <outline>
    <contour>
      <point x="402.0" y="59.199999999999996" type="line"/>
      <point x="402.0" y="1303.2" type="line"/>
      <point x="402.0" y="1486.0" type="line"/>
      <point x="393.40000000000003" y="1486.0" type="line"/>
      <point x="4.399999999999999" y="1399.0" type="line"/>
      <point x="4.399999999999999" y="1378.0" type="line"/>
      <point x="82.4" y="1333.7822767552827"/>
      <point x="141.20000000000002" y="1300.5392410815723"/>
      <point x="167.2" y="1285.8" type="curve"/>
      <point x="167.2" y="59.199999999999996" type="line"/>
      <point x="35.599999999999994" y="28.2" type="line"/>
      <point x="35.599999999999994" y="0.0" type="line"/>
      <point x="533.6" y="0.0" type="line"/>
      <point x="533.6" y="28.2" type="line"/>
    </contour>
  </outline>
</glyph>
<glyph name="m" format="2">
	<unicode hex="006D"/>
	<advance width="1802"/>
	<outline>
		<contour>
			<point x="414.2" y="847.4" type="line"/>
			<point x="414.2" y="1054.8" type="line"/>
			<point x="405.6" y="1054.8" type="line"/>
			<point x="42.6" y="954.4" type="line"/>
			<point x="42.6" y="933.4" type="line"/>
			<point x="123.8" y="876.9818181818"/>
			<point x="157.2" y="849.6769230769"/>
			<point x="179.4" y="832.4" type="curve"/>
			<point x="179.4" y="59.2" type="line"/>
			<point x="47.8" y="28.2" type="line"/>
			<point x="47.8" y="0" type="line"/>
			<point x="541.6" y="0" type="line"/>
			<point x="541.6" y="28.2" type="line"/>
			<point x="414.2" y="58.6" type="line"/>
		</contour>
		<contour>
			<point x="1027.8" y="742.4" type="line" smooth="yes"/>
			<point x="1027.8" y="948.2"/>
			<point x="946.4" y="1044"/>
			<point x="764.8" y="1044" type="curve" smooth="yes"/>
			<point x="646" y="1044"/>
			<point x="573.6" y="1015.4"/>
			<point x="375.8" y="847" type="curve"/>
			<point x="385.4" y="821.6" type="line"/>
			<point x="444" y="850.6"/>
			<point x="527.2" y="877.8"/>
			<point x="611" y="877.8" type="curve" smooth="yes"/>
			<point x="736" y="877.8"/>
			<point x="793" y="822.6"/>
			<point x="793" y="707" type="curve" smooth="yes"/>
			<point x="793" y="58.6" type="line"/>
			<point x="664.8" y="28.2" type="line"/>
			<point x="664.8" y="0" type="line"/>
			<point x="1155.2" y="0" type="line"/>
			<point x="1155.2" y="28.2" type="line"/>
			<point x="1027.8" y="58.6" type="line"/>
		</contour>
		<contour>
			<point x="1641.4" y="742.4" type="line" smooth="yes"/>
			<point x="1641.4" y="948.2"/>
			<point x="1560" y="1044"/>
			<point x="1378.4" y="1044" type="curve" smooth="yes"/>
			<point x="1259.6" y="1044"/>
			<point x="1187.2" y="1015.4"/>
			<point x="989.4" y="847" type="curve"/>
			<point x="999" y="821.6" type="line"/>
			<point x="1057.6" y="850.6"/>
			<point x="1140.8" y="877.8"/>
			<point x="1224.6" y="877.8" type="curve" smooth="yes"/>
			<point x="1349.6" y="877.8"/>
			<point x="1406.6" y="822.6"/>
			<point x="1406.6" y="707" type="curve" smooth="yes"/>
			<point x="1406.6" y="58.6" type="line"/>
			<point x="1278.4" y="28.2" type="line"/>
			<point x="1278.4" y="0" type="line"/>
			<point x="1772.8" y="0" type="line"/>
			<point x="1772.8" y="28.2" type="line"/>
			<point x="1641.4" y="59.2" type="line"/>
		</contour>
	</outline>
	<anchor name="top" x="907.8" y="1024"/>
	<anchor name="bottom" x="907.8" y="0"/>
</glyph>
<glyph name="n" format="2">
	<unicode hex="006E"/>
	<advance width="1225"/>
	<outline>
		<contour>
			<point x="414.2" y="845.4" type="line"/>
			<point x="414.2" y="1054.8" type="line"/>
			<point x="405.6" y="1054.8" type="line"/>
			<point x="42.6" y="954.4" type="line"/>
			<point x="42.6" y="933.4" type="line"/>
			<point x="123.8" y="876.9818181818"/>
			<point x="157.2" y="849.6769230769"/>
			<point x="179.4" y="832.4" type="curve"/>
			<point x="179.4" y="59.2" type="line"/>
			<point x="47.8" y="28.2" type="line"/>
			<point x="47.8" y="0" type="line"/>
			<point x="543.6" y="0" type="line"/>
			<point x="543.6" y="28.2" type="line"/>
			<point x="414.2" y="58.6" type="line"/>
		</contour>
		<contour>
			<point x="700.2" y="28.2" type="line"/>
			<point x="700.2" y="0" type="line"/>
			<point x="1196.6" y="0" type="line"/>
			<point x="1196.6" y="28.2" type="line"/>
			<point x="1065.2" y="59.2" type="line"/>
			<point x="1065.2" y="725" type="line" smooth="yes"/>
			<point x="1065.2" y="942.6"/>
			<point x="979.8" y="1044"/>
			<point x="787.2" y="1044" type="curve" smooth="yes"/>
			<point x="660" y="1044"/>
			<point x="583.8" y="1013"/>
			<point x="375.8" y="836.8" type="curve"/>
			<point x="386.2" y="816.6" type="line"/>
			<point x="449.4" y="847"/>
			<point x="539.6" y="877.8"/>
			<point x="632.4" y="877.8" type="curve" smooth="yes"/>
			<point x="768.6" y="877.8"/>
			<point x="830.4" y="817.8"/>
			<point x="830.4" y="691.6" type="curve" smooth="yes"/>
			<point x="830.4" y="58.6" type="line"/>
		</contour>
	</outline>
	<anchor name="top" x="623.2" y="1024"/>
	<anchor name="bottom" x="623.2" y="0"/>
</glyph>
<glyph name="o" format="2">
  <advance width="1153.4"/>
  <unicode hex="006F"/>
  <anchor x="576.8000000000001" y="1024.0" name="top"/>
  <anchor x="576.8000000000001" y="0.0" name="bottom"/>
  <anchor x="765.0" y="1022.4" name="horn"/>
  <anchor x="755.8" y="0.0" name="right"/>
  <outline>
    <contour>
      <point x="574.8000000000001" y="29.0" type="curve" smooth="yes"/>
      <point x="402.40000000000003" y="29.0"/>
      <point x="320.0" y="197.0"/>
      <point x="320.0" y="521.0" type="curve" smooth="yes"/>
      <point x="320.0" y="838.6"/>
      <point x="405.2" y="994.8000000000001"/>
      <point x="578.4" y="994.8000000000001" type="curve" smooth="yes"/>
      <point x="750.8" y="994.8000000000001"/>
      <point x="833.2" y="827.0"/>
      <point x="833.2" y="503.0" type="curve" smooth="yes"/>
      <point x="833.2" y="185.20000000000002"/>
      <point x="748.0" y="29.0"/>
    </contour>
    <contour>
      <point x="569.6" y="-22.0" type="curve" smooth="yes"/>
      <point x="853.4000000000001" y="-22.0"/>
      <point x="1085.8" y="196.79999999999998"/>
      <point x="1085.8" y="512.4" type="curve" smooth="yes"/>
      <point x="1085.8" y="826.4"/>
      <point x="873.6" y="1046.0"/>
      <point x="583.6" y="1046.0" type="curve" smooth="yes"/>
      <point x="294.2" y="1046.0"/>
      <point x="67.6" y="826.1999999999999"/>
      <point x="67.6" y="511.6" type="curve" smooth="yes"/>
      <point x="67.6" y="198.4"/>
      <point x="285.6" y="-22.0"/>
    </contour>
  </outline>
</glyph>
<glyph name="p" format="2">
  <advance width="1215.0"/>
  <unicode hex="0070"/>
  <anchor x="599.0" y="1024.0" name="top"/>
  <anchor x="284.8" y="-443.0" name="bottom"/>
  <outline>
    <contour>
      <point x="897.2" y="483.8" type="curve" smooth="yes"/>
      <point x="897.2" y="179.2"/>
      <point x="796.8000000000001" y="31.0"/>
      <point x="622.0" y="31.0" type="curve" smooth="yes"/>
      <point x="495.40000000000003" y="31.0"/>
      <point x="402.20000000000005" y="116.2"/>
      <point x="402.20000000000005" y="239.6" type="curve" smooth="yes"/>
      <point x="402.20000000000005" y="881.0" type="line"/>
      <point x="402.2" y="1054.8" type="line"/>
      <point x="393.59999999999997" y="1054.8" type="line"/>
      <point x="30.599999999999998" y="954.4" type="line"/>
      <point x="30.599999999999998" y="933.4" type="line"/>
      <point x="104.6" y="877.1126873126873"/>
      <point x="141.39999999999998" y="852.3766233766233"/>
      <point x="167.39999999999998" y="832.5999999999999" type="curve"/>
      <point x="167.39999999999998" y="-383.8" type="line"/>
      <point x="35.8" y="-414.8" type="line"/>
      <point x="35.8" y="-443.0" type="line"/>
      <point x="553.8" y="-443.0" type="line"/>
      <point x="553.8" y="-414.8" type="line"/>
      <point x="402.20000000000005" y="-383.8" type="line"/>
      <point x="402.20000000000005" y="58.2" type="line"/>
      <point x="247.8" y="58.2" type="line"/>
      <point x="347.6" y="2.4"/>
      <point x="473.40000000000003" y="-22.0"/>
      <point x="591.6" y="-22.0" type="curve" smooth="yes"/>
      <point x="914.1999999999999" y="-22.0"/>
      <point x="1144.0" y="192.6"/>
      <point x="1144.0" y="567.0" type="curve" smooth="yes"/>
      <point x="1144.0" y="859.6"/>
      <point x="994.5999999999999" y="1046.0"/>
      <point x="737.0" y="1046.0" type="curve" smooth="yes"/>
      <point x="623.4000000000001" y="1046.0"/>
      <point x="514.6" y="995.6"/>
      <point x="335.6" y="805.6" type="curve"/>
      <point x="347.59999999999997" y="782.2" type="line"/>
      <point x="425.20000000000005" y="862.6"/>
      <point x="509.79999999999995" y="894.2"/>
      <point x="611.6" y="894.2" type="curve" smooth="yes"/>
      <point x="805.4" y="894.2"/>
      <point x="897.2" y="765.8000000000001"/>
    </contour>
  </outline>
</glyph>
<glyph name="q" format="2">
  <advance width="1187"/>
  <unicode hex="0071"/>
  <anchor x="597.4" y="1024.0" name="top"/>
  <anchor x="929.0" y="-443.0" name="bottom"/>
  <outline>
    <contour>
      <point x="316.4" y="546.4" type="curve" smooth="yes"/>
      <point x="316.4" y="845.1999999999999"/>
      <point x="417.2" y="993.0"/>
      <point x="591.6" y="993.0" type="curve" smooth="yes"/>
      <point x="718.1999999999999" y="993.0"/>
      <point x="811.4" y="907.8000000000001"/>
      <point x="811.4" y="784.4" type="curve" smooth="yes"/>
      <point x="811.4" y="-383.8" type="line"/>
      <point x="659.8000000000001" y="-414.8" type="line"/>
      <point x="659.8000000000001" y="-443.0" type="line"/>
      <point x="1178.0" y="-443.0" type="line"/>
      <point x="1178.0" y="-414.8" type="line"/>
      <point x="1046.4" y="-383.8" type="line"/>
      <point x="1046.4" y="824.1999999999999" type="line"/>
      <point x="1089.4" y="1036.4" type="line"/>
      <point x="1073.0" y="1046.3999999999999" type="line"/>
      <point x="862.1999999999999" y="949.1999999999999" type="line"/>
      <point x="978.6" y="965.6" type="line"/>
      <point x="877.2" y="1021.4"/>
      <point x="749.8000000000001" y="1046.0"/>
      <point x="629.8000000000001" y="1046.0" type="curve" smooth="yes"/>
      <point x="302.0" y="1046.0"/>
      <point x="69.6" y="832.0"/>
      <point x="69.6" y="462.2" type="curve" smooth="yes"/>
      <point x="69.6" y="171.79999999999998"/>
      <point x="235.0" y="-22.0"/>
      <point x="496.2" y="-22.0" type="curve" smooth="yes"/>
      <point x="607.5999999999999" y="-22.0"/>
      <point x="715.0" y="27.8"/>
      <point x="877.8000000000001" y="219.2" type="curve"/>
      <point x="865.8000000000001" y="242.0" type="line"/>
      <point x="787.6" y="158.4"/>
      <point x="700.6" y="129.8"/>
      <point x="604.0" y="129.8" type="curve" smooth="yes"/>
      <point x="409.0" y="129.8"/>
      <point x="316.4" y="261.79999999999995"/>
    </contour>
  </outline>
</glyph>
<glyph name="r" format="2">
	<unicode hex="0072"/>
	<advance width="855"/>
	<outline>
		<contour>
			<point x="738" y="1043" type="curve" smooth="yes"/>
			<point x="662.8" y="1043"/>
			<point x="603.6" y="1020.8"/>
			<point x="395" y="797" type="curve"/>
			<point x="395.2" y="752.2" type="line"/>
			<point x="445.2" y="799.8"/>
			<point x="489.4" y="828.4"/>
			<point x="547.8" y="828.4" type="curve" smooth="yes"/>
			<point x="614.4" y="828.4"/>
			<point x="654.6" y="804"/>
			<point x="712.4" y="804" type="curve" smooth="yes"/>
			<point x="785.6" y="804"/>
			<point x="841.8" y="860.4"/>
			<point x="841.8" y="939" type="curve" smooth="yes"/>
			<point x="841.8" y="1003.2"/>
			<point x="801.2" y="1043"/>
		</contour>
		<contour>
			<point x="414.2" y="855.4" type="line"/>
			<point x="414.2" y="1054.8" type="line"/>
			<point x="405.6" y="1054.8" type="line"/>
			<point x="42.6" y="954.4" type="line"/>
			<point x="42.6" y="933.4" type="line"/>
			<point x="116.6" y="876.9805444555"/>
			<point x="153.4" y="852.2230519481"/>
			<point x="179.4" y="832.4" type="curve"/>
			<point x="179.4" y="59.2" type="line"/>
			<point x="47.8" y="28.2" type="line"/>
			<point x="47.8" y="0" type="line"/>
			<point x="565.8" y="0" type="line"/>
			<point x="565.8" y="28.2" type="line"/>
			<point x="414.2" y="59.2" type="line"/>
		</contour>
	</outline>
	<anchor name="top" x="443.8" y="1024"/>
	<anchor name="bottom" x="296.8" y="0"/>
</glyph>
<glyph name="s" format="2">
	<unicode hex="0073"/>
	<advance width="863.2"/>
	<outline>
		<contour>
			<point x="474.4" y="1046" type="curve" smooth="yes"/>
			<point x="269.8" y="1046"/>
			<point x="102" y="937.2"/>
			<point x="102" y="750.4" type="curve" smooth="yes"/>
			<point x="102" y="611"/>
			<point x="168.6" y="515.6"/>
			<point x="363.6" y="447.2" type="curve" smooth="yes"/>
			<point x="558.6" y="378.6"/>
			<point x="614.2" y="315.6"/>
			<point x="614.2" y="218" type="curve" smooth="yes"/>
			<point x="614.2" y="89.2"/>
			<point x="512.8" y="27"/>
			<point x="399.4" y="27" type="curve" smooth="yes"/>
			<point x="335.2" y="27"/>
			<point x="272.4" y="45.6"/>
			<point x="219.4" y="83.8" type="curve"/>
			<point x="272.8" y="29.4" type="line"/>
			<point x="99.4" y="353.4" type="line"/>
			<point x="63.8" y="353.4" type="line"/>
			<point x="120" y="36.6" type="line"/>
			<point x="192.2" y="-1.6"/>
			<point x="274.6" y="-22"/>
			<point x="386.4" y="-22" type="curve" smooth="yes"/>
			<point x="611" y="-22"/>
			<point x="790.4" y="115"/>
			<point x="790.4" y="312.8" type="curve" smooth="yes"/>
			<point x="790.4" y="458.8"/>
			<point x="730.2" y="565.2"/>
			<point x="518.6" y="641.8" type="curve" smooth="yes"/>
			<point x="306" y="718.4"/>
			<point x="276.4" y="772.6"/>
			<point x="276.4" y="851.4" type="curve" smooth="yes"/>
			<point x="276.4" y="947.4"/>
			<point x="341.4" y="998.4"/>
			<point x="457.6" y="998.4" type="curve" smooth="yes"/>
			<point x="541" y="998.4"/>
			<point x="595.6" y="971.6"/>
			<point x="668.2" y="898.2" type="curve"/>
			<point x="586.2" y="987.4" type="line"/>
			<point x="726" y="714.8" type="line"/>
			<point x="757.2" y="714.8" type="line"/>
			<point x="723" y="990.4" type="line"/>
			<point x="642" y="1027"/>
			<point x="572" y="1046"/>
		</contour>
	</outline>
	<anchor name="top" x="433" y="1024"/>
	<anchor name="bottom" x="424.6" y="0"/>
</glyph>
<glyph name="t" format="2">
  <advance width="771.0"/>
  <unicode hex="0074"/>
  <anchor x="442.0" y="0.0" name="bottom"/>
  <anchor x="420.8" y="1532.8" name="right"/>
  <outline>
    <contour>
      <point x="401.4" y="275.8" type="curve" smooth="yes"/>
      <point x="401.4" y="990.6" type="line"/>
      <point x="401.4" y="1203.6" type="line"/>
      <point x="389.40000000000003" y="1203.6" type="line"/>
      <point x="231.9209003215434" y="1105.6000000000001"/>
      <point x="66.75245094822495" y="1006.6"/>
      <point x="31.4" y="984.6" type="curve"/>
      <point x="31.4" y="967.4" type="line"/>
      <point x="167.0" y="875.6" type="line"/>
      <point x="167.0" y="251.0" type="line" smooth="yes"/>
      <point x="167.0" y="57.199999999999996"/>
      <point x="277.59999999999997" y="-22.8"/>
      <point x="412.4" y="-22.8" type="curve" smooth="yes"/>
      <point x="510.8" y="-22.8"/>
      <point x="583.0" y="10.8"/>
      <point x="776.6" y="132.8" type="curve"/>
      <point x="776.6" y="166.0" type="line"/>
      <point x="688.5999999999999" y="140.60000000000002"/>
      <point x="627.4" y="132.2"/>
      <point x="568.4" y="132.2" type="curve" smooth="yes"/>
      <point x="464.4" y="132.2"/>
      <point x="401.4" y="180.0"/>
    </contour>
    <contour>
      <point x="317.2" y="901.4" type="line"/>
      <point x="728.8000000000001" y="901.4" type="line"/>
      <point x="746.1999999999999" y="1024.0" type="line"/>
      <point x="317.2" y="1024.0" type="line"/>
    </contour>
  </outline>
</glyph>
<glyph name="u" format="2">
	<unicode hex="0075"/>
	<advance width="1186"/>
	<outline>
		<contour>
			<point x="393.8" y="322" type="curve" smooth="yes"/>
			<point x="393.8" y="939.2" type="line"/>
			<point x="402.8" y="1033.4" type="line"/>
			<point x="-4.4" y="1013" type="line"/>
			<point x="-4.4" y="975.2" type="line"/>
			<point x="159" y="934.6" type="line"/>
			<point x="159" y="296.8" type="line" smooth="yes"/>
			<point x="159" y="81"/>
			<point x="244.370212766" y="-20"/>
			<point x="433.2" y="-20" type="curve" smooth="yes"/>
			<point x="560" y="-20"/>
			<point x="634.8" y="11"/>
			<point x="841" y="185" type="curve"/>
			<point x="828.2" y="207.8" type="line"/>
			<point x="767" y="171.2"/>
			<point x="680.2" y="139"/>
			<point x="588.6" y="139" type="curve" smooth="yes"/>
			<point x="454.6" y="139"/>
			<point x="393.8" y="198.4"/>
		</contour>
		<contour>
			<point x="787.6" y="-29.4" type="line"/>
			<point x="797.4" y="-29.4" type="line"/>
			<point x="1171.6" y="23.8" type="line"/>
			<point x="1171.6" y="47.6" type="line"/>
			<point x="1129.6" y="66.8051038415"/>
			<point x="1040.6" y="106.6256549477"/>
			<point x="1016.6" y="117.6" type="curve"/>
			<point x="1016.6" y="938.6" type="line"/>
			<point x="1027.8" y="1033.4" type="line"/>
			<point x="620.4" y="1013" type="line"/>
			<point x="620.4" y="975.2" type="line"/>
			<point x="781.8" y="935.2" type="line"/>
			<point x="781.8" y="161.4" type="line"/>
		</contour>
	</outline>
	<anchor name="top" x="562.8" y="1024"/>
	<anchor name="right" x="1035.6" y="0"/>
	<anchor name="bottom" x="570.8" y="0"/>
	<anchor name="horn" x="959.6" y="1021"/>
</glyph>
<glyph name="v" format="2">
	<unicode hex="0076"/>
	<advance width="1158"/>
	<outline>
		<contour>
			<point x="1038.8" y="962.4" type="line"/>
			<point x="1153" y="991" type="line"/>
			<point x="1153" y="1024" type="line"/>
			<point x="822.6" y="1024" type="line"/>
			<point x="822.6" y="991" type="line"/>
			<point x="958" y="962" type="line"/>
			<point x="657.4" y="170.4" type="line"/>
			<point x="705.8" y="178.4" type="line"/>
			<point x="361.2" y="956.4" type="line"/>
			<point x="498.2" y="991" type="line"/>
			<point x="498.2" y="1024" type="line"/>
			<point x="-21.4" y="1024" type="line"/>
			<point x="-21.4" y="991.6" type="line"/>
			<point x="99.8" y="952.4" type="line"/>
			<point x="551" y="-20.8" type="line"/>
			<point x="634.4" y="-20.8" type="line"/>
		</contour>
	</outline>
	<anchor name="top" x="604.4" y="1024"/>
	<anchor name="bottom" x="588.4" y="0"/>
</glyph>
<glyph name="w" format="2">
  <advance width="1624.3999999999999"/>
  <unicode hex="0077"/>
  <anchor x="847.8" y="1024.0" name="top"/>
  <anchor x="833.8" y="0.0" name="bottom"/>
  <outline>
    <contour>
      <point x="1419.0" y="962.0" type="line"/>
      <point x="1227.6" y="170.8" type="line"/>
      <point x="1281.8000000000002" y="230.2" type="line"/>
      <point x="918.2" y="1048.0" type="line"/>
      <point x="830.4000000000001" y="1048.0" type="line"/>
      <point x="527.8000000000001" y="170.6" type="line"/>
      <point x="579.1999999999999" y="217.8" type="line"/>
      <point x="361.6" y="956.4000000000001" type="line"/>
      <point x="498.59999999999997" y="991.0" type="line"/>
      <point x="498.59999999999997" y="1024.0" type="line"/>
      <point x="-8.6" y="1024.0" type="line"/>
      <point x="-8.6" y="991.6" type="line"/>
      <point x="112.60000000000001" y="952.4" type="line"/>
      <point x="417.4" y="-20.8" type="line"/>
      <point x="500.8" y="-20.8" type="line"/>
      <point x="828.6" y="805.8" type="line"/>
      <point x="766.8" y="798.8" type="line"/>
      <point x="1137.0" y="-20.8" type="line"/>
      <point x="1220.3999999999999" y="-20.8" type="line"/>
      <point x="1503.8" y="962.4000000000001" type="line"/>
      <point x="1626.0" y="991.0" type="line"/>
      <point x="1626.0" y="1024.0" type="line"/>
      <point x="1278.8" y="1024.0" type="line"/>
      <point x="1278.8" y="991.0" type="line"/>
    </contour>
  </outline>
</glyph>
<glyph name="x" format="2">
	<unicode hex="0078"/>
	<advance width="1142.6"/>
	<outline>
		<contour>
			<point x="1024" y="67" type="line"/>
			<point x="652.6" y="600.8" type="line"/>
			<point x="644.6" y="610.6" type="line"/>
			<point x="406.6" y="958.8" type="line"/>
			<point x="536.6" y="991" type="line"/>
			<point x="536.6" y="1024" type="line"/>
			<point x="12.4" y="1024" type="line"/>
			<point x="12.4" y="991" type="line"/>
			<point x="144" y="951" type="line"/>
			<point x="486.4" y="456" type="line"/>
			<point x="496.2" y="443.4" type="line"/>
			<point x="757.2" y="64" type="line"/>
			<point x="621.2" y="32.8" type="line"/>
			<point x="621.2" y="0" type="line"/>
			<point x="1154.4" y="0" type="line"/>
			<point x="1154.4" y="32.8" type="line"/>
		</contour>
		<contour>
			<point x="553" y="490" type="line"/>
			<point x="595.8" y="498.6" type="line"/>
			<point x="981.2" y="962" type="line"/>
			<point x="1105.2" y="991" type="line"/>
			<point x="1105.2" y="1024" type="line"/>
			<point x="766.4" y="1024" type="line"/>
			<point x="766.4" y="991" type="line"/>
			<point x="897.8" y="962.8" type="line"/>
			<point x="577.2" y="556.4" type="line"/>
			<point x="535.2" y="547.8" type="line"/>
			<point x="133.8" y="62" type="line"/>
			<point x="1.8" y="33" type="line"/>
			<point x="1.8" y="0" type="line"/>
			<point x="343" y="0" type="line"/>
			<point x="343" y="33" type="line"/>
			<point x="219.6" y="61.2" type="line"/>
		</contour>
	</outline>
	<anchor name="top" x="592" y="1024"/>
	<anchor name="bottom" x="574" y="0"/>
</glyph>
<glyph name="y" format="2">
	<unicode hex="0079"/>
	<advance width="1135.8"/>
	<outline>
		<contour>
			<point x="722" y="222.4" type="line"/>
			<point x="366.2" y="956.4" type="line"/>
			<point x="503.2" y="991" type="line"/>
			<point x="503.2" y="1024" type="line"/>
			<point x="-15.6" y="1024" type="line"/>
			<point x="-15.6" y="991.6" type="line"/>
			<point x="105.6" y="952.4" type="line"/>
			<point x="599.2" y="-47.2" type="line"/>
		</contour>
		<contour>
			<point x="262.2" y="-463" type="curve" smooth="yes"/>
			<point x="405.4" y="-463"/>
			<point x="505" y="-383.4"/>
			<point x="602.4" y="-128.6" type="curve" smooth="yes"/>
			<point x="1015.4" y="962.4" type="line"/>
			<point x="1137.6" y="991" type="line"/>
			<point x="1137.6" y="1024" type="line"/>
			<point x="792.2" y="1024" type="line"/>
			<point x="792.2" y="991" type="line"/>
			<point x="932.4" y="962" type="line"/>
			<point x="674.4" y="190.4" type="line"/>
			<point x="613" y="42.8" type="line"/>
			<point x="541.2" y="-124" type="line" smooth="yes"/>
			<point x="484.8" y="-253.2"/>
			<point x="430.8" y="-282"/>
			<point x="334" y="-282" type="curve" smooth="yes"/>
			<point x="251.2" y="-282"/>
			<point x="198.2" y="-235.4"/>
			<point x="174.4" y="-235.4" type="curve" smooth="yes"/>
			<point x="145.2" y="-235.4"/>
			<point x="107.6" y="-267.6"/>
			<point x="107.6" y="-327.8" type="curve" smooth="yes"/>
			<point x="107.6" y="-415.8"/>
			<point x="173.2" y="-463"/>
		</contour>
	</outline>
	<anchor name="top" x="605" y="1024"/>
	<anchor name="bottom" x="778.8" y="-128.4"/>
</glyph>
<glyph name="z" format="2">
	<unicode hex="007A"/>
	<advance width="977.6"/>
	<outline>
		<contour>
			<point x="61.6" y="0" type="line"/>
			<point x="854.2" y="0" type="line"/>
			<point x="953" y="391.2" type="line"/>
			<point x="917.4" y="391.2" type="line"/>
			<point x="726.4" y="22.6" type="line"/>
			<point x="806.8" y="71.2" type="line"/>
			<point x="212.8" y="48.8" type="line"/>
			<point x="298.8" y="9.8" type="line"/>
			<point x="902.6" y="1000.6" type="line"/>
			<point x="902.6" y="1024" type="line"/>
			<point x="210.8" y="1024" type="line"/>
			<point x="133.4" y="1096" type="line"/>
			<point x="117.2" y="1096" type="line"/>
			<point x="54.4" y="670.2" type="line"/>
			<point x="88.2" y="670.2" type="line"/>
			<point x="224.2" y="993.4" type="line"/>
			<point x="145.2" y="956.8" type="line"/>
			<point x="728.6" y="972" type="line"/>
			<point x="662.8" y="1011.2" type="line"/>
			<point x="61.6" y="24" type="line"/>
		</contour>
	</outline>
	<anchor name="top" x="516" y="1024"/>
	<anchor name="bottom" x="494" y="0"/>
</glyph>
<glyph name="braceleft" format="2">
	<unicode hex="007B"/>
	<advance width="587.2"/>
	<outline>
		<contour>
			<point x="42.6" y="603.8" type="line"/>
			<point x="112.4" y="598.6" type="line" smooth="yes"/>
			<point x="216.6" y="589"/>
			<point x="247.4" y="540"/>
			<point x="247.4" y="460.8" type="curve" smooth="yes"/>
			<point x="247.4" y="307.4"/>
			<point x="169.2" y="174.2"/>
			<point x="169.2" y="52.8" type="curve" smooth="yes"/>
			<point x="169.2" y="-93.4"/>
			<point x="263.2" y="-218.6"/>
			<point x="455.2" y="-238" type="curve" smooth="yes"/>
			<point x="541" y="-246" type="line"/>
			<point x="547.2" y="-216.8" type="line"/>
			<point x="488" y="-207.8" type="line" smooth="yes"/>
			<point x="375.2" y="-191.6"/>
			<point x="334" y="-109.8"/>
			<point x="334" y="2.8" type="curve" smooth="yes"/>
			<point x="334" y="117.4"/>
			<point x="379.4" y="242.8"/>
			<point x="379.4" y="390.4" type="curve" smooth="yes"/>
			<point x="379.4" y="509.4"/>
			<point x="308.6" y="605.8"/>
			<point x="167.6" y="628.8" type="curve"/>
			<point x="167.6" y="612" type="line"/>
			<point x="308.6" y="634.2"/>
			<point x="379.4" y="731.4"/>
			<point x="379.4" y="850.6" type="curve" smooth="yes"/>
			<point x="379.4" y="998"/>
			<point x="334" y="1123.4"/>
			<point x="334" y="1238" type="curve" smooth="yes"/>
			<point x="334" y="1349.8"/>
			<point x="375.2" y="1431.6"/>
			<point x="488" y="1448.6" type="curve" smooth="yes"/>
			<point x="547.2" y="1457.6" type="line"/>
			<point x="541" y="1486" type="line"/>
			<point x="455.2" y="1478" type="line" smooth="yes"/>
			<point x="263.2" y="1460.2"/>
			<point x="169.2" y="1333.4"/>
			<point x="169.2" y="1187.2" type="curve" smooth="yes"/>
			<point x="169.2" y="1066.6"/>
			<point x="247.4" y="933.6"/>
			<point x="247.4" y="779.2" type="curve" smooth="yes"/>
			<point x="247.4" y="700"/>
			<point x="216.6" y="651.8"/>
			<point x="112.4" y="642.4" type="curve" smooth="yes"/>
			<point x="42.6" y="637" type="line"/>
		</contour>
	</outline>
</glyph>
<glyph name="bar" format="2">
	<unicode hex="007C"/>
	<advance width="442"/>
	<outline>
		<contour>
			<point x="183.4" y="-465" type="line"/>
			<point x="258.6" y="-465" type="line"/>
			<point x="258.6" y="1535" type="line"/>
			<point x="183.4" y="1535" type="line"/>
		</contour>
	</outline>
</glyph>
<glyph name="braceright" format="2">
	<unicode hex="007D"/>
	<advance width="586.6"/>
	<outline>
		<contour>
			<point x="544.8" y="638" type="line"/>
			<point x="475" y="643.2" type="line" smooth="yes"/>
			<point x="370.8" y="652.6"/>
			<point x="340" y="701.8"/>
			<point x="340" y="780.8" type="curve" smooth="yes"/>
			<point x="340" y="934.4"/>
			<point x="418.2" y="1067.4"/>
			<point x="418.2" y="1188.8" type="curve" smooth="yes"/>
			<point x="418.2" y="1335"/>
			<point x="324.2" y="1460.2"/>
			<point x="132.2" y="1479.6" type="curve" smooth="yes"/>
			<point x="46.4" y="1487.6" type="line"/>
			<point x="40.2" y="1458.4" type="line"/>
			<point x="99.4" y="1449.4" type="line" smooth="yes"/>
			<point x="212.2" y="1433.2"/>
			<point x="253.4" y="1351.4"/>
			<point x="253.4" y="1238.8" type="curve" smooth="yes"/>
			<point x="253.4" y="1124.2"/>
			<point x="208" y="999"/>
			<point x="208" y="851.4" type="curve" smooth="yes"/>
			<point x="208" y="732.4"/>
			<point x="278.8" y="636"/>
			<point x="419.8" y="612.8" type="curve"/>
			<point x="419.8" y="629.8" type="line"/>
			<point x="278.8" y="607.4"/>
			<point x="208" y="510.2"/>
			<point x="208" y="391.2" type="curve" smooth="yes"/>
			<point x="208" y="243.6"/>
			<point x="253.4" y="118.4"/>
			<point x="253.4" y="3.8" type="curve" smooth="yes"/>
			<point x="253.4" y="-108"/>
			<point x="212.2" y="-189.8"/>
			<point x="99.4" y="-206.8" type="curve" smooth="yes"/>
			<point x="40.2" y="-215.8" type="line"/>
			<point x="46.4" y="-244.2" type="line"/>
			<point x="132.2" y="-236.2" type="line" smooth="yes"/>
			<point x="324.2" y="-218.4"/>
			<point x="418.2" y="-91.6"/>
			<point x="418.2" y="54.6" type="curve" smooth="yes"/>
			<point x="418.2" y="175.2"/>
			<point x="340" y="308.2"/>
			<point x="340" y="462.6" type="curve" smooth="yes"/>
			<point x="340" y="541.6"/>
			<point x="370.8" y="590"/>
			<point x="475" y="599.4" type="curve" smooth="yes"/>
			<point x="544.8" y="604.6" type="line"/>
		</contour>
	</outline>
</glyph>
<glyph name="asciitilde" format="2">
	<unicode hex="007E"/>
	<advance width="1150"/>
	<outline>
		<contour>
			<point x="162" y="396" type="curve"/>
			<point x="236.6" y="396" type="line"/>
			<point x="248.2" y="508.4"/>
			<point x="286.8" y="562.6"/>
			<point x="389.2" y="562.6" type="curve" smooth="yes"/>
			<point x="530.8" y="562.6"/>
			<point x="584" y="388"/>
			<point x="761" y="388" type="curve" smooth="yes"/>
			<point x="875.2" y="388"/>
			<point x="981.2" y="440"/>
			<point x="988" y="628" type="curve"/>
			<point x="913.4" y="628" type="line"/>
			<point x="901.8" y="515.6"/>
			<point x="863.2" y="461.4"/>
			<point x="760.8" y="461.4" type="curve" smooth="yes"/>
			<point x="619.2" y="461.4"/>
			<point x="566" y="636"/>
			<point x="389" y="636" type="curve" smooth="yes"/>
			<point x="274.8" y="636"/>
			<point x="168.8" y="584"/>
		</contour>
	</outline>
</glyph>
<glyph name="exclamdown" format="2">
	<unicode hex="00A1"/>
	<advance width="506"/>
	<outline>
		<contour>
			<point x="90.6" y="-300.4" type="line" smooth="yes"/>
			<point x="90.6" y="-384"/>
			<point x="171.4" y="-427.6"/>
			<point x="252.2" y="-427.6" type="curve" smooth="yes"/>
			<point x="333" y="-427.6"/>
			<point x="414.6" y="-384"/>
			<point x="414.6" y="-300.4" type="curve" smooth="yes"/>
			<point x="414.6" y="-275.6" type="line" smooth="yes"/>
			<point x="414.6" y="-206.4"/>
			<point x="323.6" y="32.4"/>
			<point x="271" y="543.4" type="curve"/>
			<point x="235.8" y="543.4" type="line"/>
			<point x="183.2" y="32.4"/>
			<point x="90.6" y="-207.2"/>
			<point x="90.6" y="-275.6" type="curve" smooth="yes"/>
		</contour>
		<contour>
			<point x="252.2" y="738" type="curve" smooth="yes"/>
			<point x="343.2" y="738"/>
			<point x="408.2" y="805"/>
			<point x="408.2" y="891.2" type="curve" smooth="yes"/>
			<point x="408.2" y="977.4"/>
			<point x="343.2" y="1044.4"/>
			<point x="252.2" y="1044.4" type="curve" smooth="yes"/>
			<point x="161.2" y="1044.4"/>
			<point x="96.2" y="977.4"/>
			<point x="96.2" y="891.2" type="curve" smooth="yes"/>
			<point x="96.2" y="805"/>
			<point x="161.2" y="738"/>
		</contour>
	</outline>
</glyph>
<glyph name="currency" format="2">
	<unicode hex="00A4"/>
	<advance width="941.6"/>
	<outline>
		<contour>
			<point x="171" y="863" type="line"/>
			<point x="119.8" y="811.8" type="line"/>
			<point x="242.4" y="689.2" type="line"/>
			<point x="293.6" y="740.4" type="line"/>
		</contour>
		<contour>
			<point x="119.8" y="212.2" type="line"/>
			<point x="171" y="161" type="line"/>
			<point x="292.8" y="282.8" type="line"/>
			<point x="241.6" y="334" type="line"/>
		</contour>
		<contour>
			<point x="470.8" y="810.2" type="curve" smooth="yes"/>
			<point x="296.6" y="810.2"/>
			<point x="171.6" y="686.2"/>
			<point x="171.6" y="512" type="curve" smooth="yes"/>
			<point x="171.6" y="337.8"/>
			<point x="296.6" y="213.8"/>
			<point x="470.8" y="213.8" type="curve" smooth="yes"/>
			<point x="645" y="213.8"/>
			<point x="770" y="337.8"/>
			<point x="770" y="512" type="curve" smooth="yes"/>
			<point x="770" y="686.2"/>
			<point x="645" y="810.2"/>
		</contour>
		<contour>
			<point x="470.8" y="283" type="curve" smooth="yes"/>
			<point x="339.6" y="283"/>
			<point x="245" y="374.8"/>
			<point x="245" y="512" type="curve" smooth="yes"/>
			<point x="245" y="649.2"/>
			<point x="339.6" y="741"/>
			<point x="470.8" y="741" type="curve" smooth="yes"/>
			<point x="602" y="741"/>
			<point x="696.6" y="649.2"/>
			<point x="696.6" y="512" type="curve" smooth="yes"/>
			<point x="696.6" y="374.8"/>
			<point x="602" y="283"/>
		</contour>
		<contour>
			<point x="821.8" y="811.8" type="line"/>
			<point x="770.6" y="863" type="line"/>
			<point x="648" y="740.4" type="line"/>
			<point x="699.2" y="689.2" type="line"/>
		</contour>
		<contour>
			<point x="821.8" y="212.2" type="line"/>
			<point x="700" y="334" type="line"/>
			<point x="648.8" y="282.8" type="line"/>
			<point x="770.6" y="161" type="line"/>
		</contour>
	</outline>
</glyph>
<glyph name="brokenbar" format="2">
	<unicode hex="00A6"/>
	<advance width="442"/>
	<outline>
		<contour>
			<point x="258.6" y="725" type="line"/>
			<point x="258.6" y="1535" type="line"/>
			<point x="183.4" y="1535" type="line"/>
			<point x="183.4" y="725" type="line"/>
		</contour>
		<contour>
			<point x="183.4" y="-465" type="line"/>
			<point x="258.6" y="-465" type="line"/>
			<point x="258.6" y="345" type="line"/>
			<point x="183.4" y="345" type="line"/>
		</contour>
	</outline>
</glyph>
<glyph name="section" format="2">
  <advance width="1182"/>
  <unicode hex="00A7"/>
  <outline>
    <contour>
      <point x="502.6" y="-218.0" type="curve" smooth="yes"/>
      <point x="813.4" y="-218.0"/>
      <point x="978.0" y="-65.6"/>
      <point x="978.0" y="136.79999999999998" type="curve" smooth="yes"/>
      <point x="978.0" y="536.4"/>
      <point x="255.20000000000002" y="414.20000000000005"/>
      <point x="255.20000000000002" y="710.0" type="curve" smooth="yes"/>
      <point x="255.20000000000002" y="796.4000000000001"/>
      <point x="306.6" y="866.6"/>
      <point x="394.6" y="895.8000000000001" type="curve"/>
      <point x="370.59999999999997" y="914.2" type="line"/>
      <point x="180.6" y="859.2"/>
      <point x="84.6" y="748.1999999999999"/>
      <point x="84.6" y="599.8000000000001" type="curve" smooth="yes"/>
      <point x="84.6" y="173.8"/>
      <point x="793.6" y="306.6"/>
      <point x="793.6" y="23.400000000000002" type="curve" smooth="yes"/>
      <point x="793.6" y="-87.8"/>
      <point x="708.6" y="-165.20000000000002"/>
      <point x="561.6" y="-165.20000000000002" type="curve" smooth="yes"/>
      <point x="382.6" y="-165.20000000000002"/>
      <point x="307.2" y="34.8"/>
      <point x="266.2" y="34.8" type="curve" smooth="yes"/>
      <point x="198.20000000000002" y="34.8"/>
      <point x="160.2" y="-7.8"/>
      <point x="160.2" y="-68.8" type="curve" smooth="yes"/>
      <point x="160.2" y="-163.79999999999998"/>
      <point x="268.0" y="-218.0"/>
    </contour>
    <contour>
      <point x="925.6" y="556.8" type="curve" smooth="yes"/>
      <point x="925.6" y="468.0"/>
      <point x="867.8" y="392.2"/>
      <point x="775.8" y="369.40000000000003" type="curve"/>
      <point x="799.8" y="348.6" type="line"/>
      <point x="987.4" y="394.0"/>
      <point x="1094.6" y="518.5999999999999"/>
      <point x="1094.6" y="669.4" type="curve" smooth="yes"/>
      <point x="1094.6" y="1098.3999999999999"/>
      <point x="390.40000000000003" y="955.4"/>
      <point x="390.40000000000003" y="1232.2" type="curve" smooth="yes"/>
      <point x="390.40000000000003" y="1325.8"/>
      <point x="453.8" y="1400.0"/>
      <point x="603.2" y="1400.0" type="curve" smooth="yes"/>
      <point x="783.8" y="1400.0"/>
      <point x="858.4000000000001" y="1198.4"/>
      <point x="897.0" y="1198.4" type="curve" smooth="yes"/>
      <point x="959.4" y="1198.4"/>
      <point x="998.1999999999999" y="1238.6000000000001"/>
      <point x="998.1999999999999" y="1297.2" type="curve" smooth="yes"/>
      <point x="998.1999999999999" y="1384.1999999999998"/>
      <point x="898.4" y="1452.0"/>
      <point x="663.0" y="1452.0" type="curve" smooth="yes"/>
      <point x="358.6" y="1452.0"/>
      <point x="204.4" y="1310.0"/>
      <point x="204.4" y="1117.2" type="curve" smooth="yes"/>
      <point x="204.4" y="732.6"/>
      <point x="925.6" y="851.4"/>
    </contour>
  </outline>
</glyph>
<glyph name="copyright" format="2">
  <advance width="1717"/>
  <unicode hex="00A9"/>
  <outline>
    <contour>
      <point x="857.1999999999999" y="1452.0" type="curve" smooth="yes"/>
      <point x="422.40000000000003" y="1452.0"/>
      <point x="111.0" y="1146.7232432432434"/>
      <point x="111.0" y="714.0" type="curve" smooth="yes"/>
      <point x="111.0" y="282.27750677506776"/>
      <point x="422.40000000000003" y="-22.0"/>
      <point x="857.1999999999999" y="-22.0" type="curve" smooth="yes"/>
      <point x="1293.8" y="-22.0"/>
      <point x="1606.3999999999999" y="282.27750677506776"/>
      <point x="1606.3999999999999" y="714.0" type="curve" smooth="yes"/>
      <point x="1606.3999999999999" y="1146.7232432432434"/>
      <point x="1293.8" y="1452.0"/>
    </contour>
    <contour>
      <point x="857.1999999999999" y="1399.6000000000001" type="curve" smooth="yes"/>
      <point x="1251.0" y="1399.6000000000001"/>
      <point x="1540.6000000000001" y="1116.9198263386395"/>
      <point x="1540.6000000000001" y="714.0" type="curve" smooth="yes"/>
      <point x="1540.6000000000001" y="312.0782608695652"/>
      <point x="1251.0" y="29.400000000000002"/>
      <point x="857.1999999999999" y="29.400000000000002" type="curve" smooth="yes"/>
      <point x="464.40000000000003" y="29.400000000000002"/>
      <point x="176.6" y="312.0782608695652"/>
      <point x="176.6" y="714.0" type="curve" smooth="yes"/>
      <point x="176.6" y="1116.9198263386395"/>
      <point x="464.40000000000003" y="1399.6000000000001"/>
    </contour>
    <contour>
      <point x="971.0" y="313.20000000000005" type="curve"/>
      <point x="800.0" y="313.20000000000005"/>
      <point x="665.1999999999999" y="477.20000000000005"/>
      <point x="665.1999999999999" y="762.6" type="curve" smooth="yes"/>
      <point x="665.1999999999999" y="1013.0"/>
      <point x="768.8" y="1119.6000000000001"/>
      <point x="912.0" y="1119.6000000000001" type="curve" smooth="yes"/>
      <point x="981.6" y="1119.6000000000001"/>
      <point x="1045.0" y="1094.8"/>
      <point x="1107.2" y="1046.8" type="curve"/>
      <point x="1050.0" y="1105.2" type="line"/>
      <point x="1202.4" y="854.0" type="line"/>
      <point x="1222.0" y="858.0" type="line"/>
      <point x="1169.0" y="1195.1999999999998" type="line"/>
      <point x="1160.0" y="1195.1999999999998" type="line"/>
      <point x="1074.6" y="1127.2" type="line"/>
      <point x="1139.4" y="1134.8" type="line"/>
      <point x="1067.2" y="1158.0"/>
      <point x="1008.8000000000001" y="1170.6"/>
      <point x="935.6" y="1170.6" type="curve" smooth="yes"/>
      <point x="634.8000000000001" y="1170.6"/>
      <point x="436.2" y="989.0"/>
      <point x="436.2" y="723.0" type="curve" smooth="yes"/>
      <point x="436.2" y="426.0"/>
      <point x="638.4" y="267.40000000000003"/>
      <point x="933.5999999999999" y="267.40000000000003" type="curve" smooth="yes"/>
      <point x="1031.6" y="267.40000000000003"/>
      <point x="1108.8" y="281.2"/>
      <point x="1185.6" y="305.40000000000003" type="curve"/>
      <point x="1244.2" y="533.1999999999999" type="line"/>
      <point x="1223.2" y="533.1999999999999" type="line"/>
      <point x="1073.2" y="316.4" type="line"/>
      <point x="1131.8" y="360.6" type="line"/>
      <point x="1083.4" y="329.40000000000003"/>
      <point x="1028.4" y="313.20000000000005"/>
    </contour>
  </outline>
</glyph>
<glyph name="ordfeminine" format="2">
	<unicode hex="00AA"/>
	<advance width="912"/>
	<outline>
		<contour>
			<point x="130.8" y="568" type="line"/>
			<point x="791.2" y="568" type="line"/>
			<point x="791.2" y="631" type="line"/>
			<point x="130.8" y="631" type="line"/>
		</contour>
		<contour>
			<point x="531.4" y="1176.4" type="curve"/>
			<point x="534.2" y="1211.2" type="line"/>
			<point x="177.4" y="1111.4"/>
			<point x="133.8" y="1056.8"/>
			<point x="133.8" y="955.6" type="curve" smooth="yes"/>
			<point x="133.8" y="852.4"/>
			<point x="201.6" y="789.2"/>
			<point x="324.6" y="789.2" type="curve" smooth="yes"/>
			<point x="424" y="789.2"/>
			<point x="495.469204891" y="843.255477944"/>
			<point x="523.6" y="970.6" type="curve"/>
			<point x="511.2" y="975.6" type="line"/>
			<point x="509.6425168079" y="831.9650577318"/>
			<point x="549.2" y="788"/>
			<point x="646.2" y="788" type="curve" smooth="yes"/>
			<point x="713.6" y="788"/>
			<point x="760.8" y="808.4"/>
			<point x="815.6" y="850.4" type="curve"/>
			<point x="815.6" y="879" type="line"/>
			<point x="789.4" y="866.4"/>
			<point x="773" y="863.4"/>
			<point x="750.2" y="863.4" type="curve" smooth="yes"/>
			<point x="722.4" y="863.4"/>
			<point x="702.8" y="877"/>
			<point x="702.8" y="919.2" type="curve" smooth="yes"/>
			<point x="702.8" y="1250.2" type="line" smooth="yes"/>
			<point x="702.8" y="1373.8"/>
			<point x="643" y="1452"/>
			<point x="462.2" y="1452" type="curve" smooth="yes"/>
			<point x="312.6" y="1452"/>
			<point x="137.8" y="1365.4"/>
			<point x="137.8" y="1297" type="curve" smooth="yes"/>
			<point x="137.8" y="1276.8"/>
			<point x="154.2" y="1261.2"/>
			<point x="195.2" y="1261.2" type="curve" smooth="yes"/>
			<point x="225.2" y="1261.2"/>
			<point x="252.2" y="1272.4"/>
			<point x="265" y="1288.6" type="curve" smooth="yes"/>
			<point x="278.8" y="1305.6"/>
			<point x="286" y="1332"/>
			<point x="297" y="1412.2" type="curve"/>
			<point x="263.2" y="1373.4" type="line"/>
			<point x="305.2" y="1386.8"/>
			<point x="344.4" y="1392.8"/>
			<point x="392.2" y="1392.8" type="curve" smooth="yes"/>
			<point x="475.8" y="1392.8"/>
			<point x="510" y="1344.4"/>
			<point x="510" y="1267.6" type="curve" smooth="yes"/>
			<point x="510" y="1000.6" type="line" smooth="yes"/>
			<point x="510" y="925.6"/>
			<point x="463.2" y="888.2"/>
			<point x="406.8" y="888.2" type="curve" smooth="yes"/>
			<point x="353" y="888.2"/>
			<point x="319.4" y="924.4725274725"/>
			<point x="319.4" y="994" type="curve" smooth="yes"/>
			<point x="319.4" y="1069.0136986301"/>
			<point x="339.5441210845" y="1113.0540454067"/>
		</contour>
	</outline>
</glyph>
<glyph name="guillemotleft" format="2">
	<unicode hex="00AB"/>
	<advance width="916.2"/>
	<outline>
		<contour>
			<point x="219.6" y="604" type="line"/>
			<point x="219.6" y="440" type="line"/>
			<point x="481.2" y="943.2" type="line"/>
			<point x="462.4" y="956.8" type="line"/>
			<point x="51.4" y="529.6" type="line"/>
			<point x="51.4" y="514.4" type="line"/>
			<point x="462.4" y="87.2" type="line"/>
			<point x="481.2" y="100.8" type="line"/>
		</contour>
		<contour>
			<point x="578.8" y="604" type="line"/>
			<point x="578.8" y="440" type="line"/>
			<point x="839.6" y="943.2" type="line"/>
			<point x="821.6" y="956.8" type="line"/>
			<point x="409.8" y="529.6" type="line"/>
			<point x="409.8" y="514.4" type="line"/>
			<point x="821.6" y="87.2" type="line"/>
			<point x="839.6" y="100.8" type="line"/>
		</contour>
	</outline>
</glyph>
<glyph name="logicalnot" format="2">
	<unicode hex="00AC"/>
	<advance width="1150"/>
	<outline>
		<contour>
			<point x="161.6" y="744.8" type="line"/>
			<point x="161.6" y="671.8" type="line"/>
			<point x="983.6" y="671.8" type="line"/>
			<point x="983.6" y="744.8" type="line"/>
		</contour>
		<contour>
			<point x="983.6" y="704" type="line"/>
			<point x="910.6" y="704" type="line"/>
			<point x="910.6" y="268" type="line"/>
			<point x="983.6" y="268" type="line"/>
		</contour>
	</outline>
</glyph>
<glyph name="registered" format="2">
	<unicode hex="00AE"/>
	<advance width="1078.8"/>
	<outline>
		<contour>
			<point x="537" y="1452" type="curve" smooth="yes"/>
			<point x="287" y="1452"/>
			<point x="108" y="1275"/>
			<point x="108" y="1026" type="curve" smooth="yes"/>
			<point x="108" y="778"/>
			<point x="287" y="598"/>
			<point x="537" y="598" type="curve" smooth="yes"/>
			<point x="789" y="598"/>
			<point x="971" y="778"/>
			<point x="971" y="1026" type="curve" smooth="yes"/>
			<point x="971" y="1275"/>
			<point x="789" y="1452"/>
		</contour>
		<contour>
			<point x="537" y="1404.2" type="curve" smooth="yes"/>
			<point x="757" y="1404.2"/>
			<point x="916.2" y="1250"/>
			<point x="916.2" y="1026" type="curve" smooth="yes"/>
			<point x="916.2" y="804"/>
			<point x="757" y="646.8"/>
			<point x="537" y="646.8" type="curve" smooth="yes"/>
			<point x="319" y="646.8"/>
			<point x="162.8" y="804"/>
			<point x="162.8" y="1026" type="curve" smooth="yes"/>
			<point x="162.8" y="1250"/>
			<point x="319" y="1404.2"/>
		</contour>
		<contour>
			<point x="452.8" y="1054.6" type="line"/>
			<point x="452.8" y="1022.8" type="line"/>
			<point x="542.2" y="1022.8" type="line" smooth="yes"/>
			<point x="577.4" y="1022.8"/>
			<point x="591" y="1012"/>
			<point x="602.8" y="975.6" type="curve" smooth="yes"/>
			<point x="625.8" y="896.4" type="line" smooth="yes"/>
			<point x="646.8" y="821"/>
			<point x="663" y="809.6"/>
			<point x="778.8" y="819.2" type="curve"/>
			<point x="778.8" y="842.2" type="line"/>
			<point x="751" y="842.2"/>
			<point x="739" y="847.6"/>
			<point x="727.6" y="885" type="curve" smooth="yes"/>
			<point x="702.8" y="962" type="line" smooth="yes"/>
			<point x="687.6" y="1018.6"/>
			<point x="660.6" y="1039.8"/>
			<point x="598.8" y="1042.2" type="curve"/>
			<point x="598.8" y="1041.2" type="line"/>
			<point x="679.4" y="1044.6"/>
			<point x="722.8" y="1089.2"/>
			<point x="722.8" y="1145.4" type="curve" smooth="yes"/>
			<point x="722.8" y="1202.2"/>
			<point x="685" y="1246"/>
			<point x="576" y="1246" type="curve" smooth="yes"/>
			<point x="452.8" y="1246" type="line"/>
			<point x="452.8" y="1214" type="line"/>
			<point x="527.6" y="1214" type="line" smooth="yes"/>
			<point x="597.8" y="1214"/>
			<point x="626" y="1190"/>
			<point x="626" y="1138.4" type="curve" smooth="yes"/>
			<point x="626" y="1082.6"/>
			<point x="595.4" y="1054.6"/>
			<point x="541" y="1054.6" type="curve" smooth="yes"/>
		</contour>
		<contour>
			<point x="395" y="1215.4" type="line"/>
			<point x="395" y="851.8" type="line"/>
			<point x="335.6" y="836.4" type="line"/>
			<point x="335.6" y="820" type="line"/>
			<point x="553" y="820" type="line"/>
			<point x="553" y="836.4" type="line"/>
			<point x="493.8" y="851.8" type="line"/>
			<point x="493.8" y="1246" type="line"/>
			<point x="335.6" y="1246" type="line"/>
			<point x="335.6" y="1229.6" type="line"/>
		</contour>
	</outline>
</glyph>
<glyph name="degree" format="2">
	<unicode hex="00B0"/>
	<advance width="741.6"/>
	<outline>
		<contour>
			<point x="370.4" y="1445.2" type="curve" smooth="yes"/>
			<point x="197.6" y="1445.2"/>
			<point x="73.2" y="1323.6"/>
			<point x="73.2" y="1150" type="curve" smooth="yes"/>
			<point x="73.2" y="976.4"/>
			<point x="197.6" y="854.8"/>
			<point x="370.4" y="854.8" type="curve" smooth="yes"/>
			<point x="544" y="854.8"/>
			<point x="668.4" y="976.4"/>
			<point x="668.4" y="1150" type="curve" smooth="yes"/>
			<point x="668.4" y="1323.6"/>
			<point x="544" y="1445.2"/>
		</contour>
		<contour>
			<point x="370.4" y="919.4" type="curve" smooth="yes"/>
			<point x="238.8" y="919.4"/>
			<point x="143.6" y="1011.6"/>
			<point x="143.6" y="1150" type="curve" smooth="yes"/>
			<point x="143.6" y="1288.4"/>
			<point x="238.8" y="1380.6"/>
			<point x="370.4" y="1380.6" type="curve" smooth="yes"/>
			<point x="502.8" y="1380.6"/>
			<point x="597.2" y="1288.4"/>
			<point x="597.2" y="1150" type="curve" smooth="yes"/>
			<point x="597.2" y="1011.6"/>
			<point x="502.8" y="919.4"/>
		</contour>
	</outline>
</glyph>
<glyph name="plusminus" format="2">
  <advance width="1150.0"/>
  <unicode hex="00B1"/>
  <outline>
    <contour>
      <point x="539.0" y="1024.0" type="line"/>
      <point x="539.0" y="202.0" type="line"/>
      <point x="611.0" y="202.0" type="line"/>
      <point x="611.0" y="1024.0" type="line"/>
    </contour>
    <contour>
      <point x="164.0" y="649.0" type="line"/>
      <point x="164.0" y="577.0" type="line"/>
      <point x="986.0" y="577.0" type="line"/>
      <point x="986.0" y="649.0" type="line"/>
    </contour>
    <contour>
      <point x="164.0" y="72.0" type="line"/>
      <point x="164.0" y="0.0" type="line"/>
      <point x="986.0" y="0.0" type="line"/>
      <point x="986.0" y="72.0" type="line"/>
    </contour>
  </outline>
</glyph>
<glyph name="uni00B2" format="2">
	<unicode hex="00B2"/>
	<advance width="715"/>
	<outline>
		<contour>
			<point x="461.4" y="731.4" type="line"/>
			<point x="612.2" y="818.8" type="line"/>
			<point x="218.6" y="818.8" type="line"/>
			<point x="209.4" y="787.2" type="line"/>
			<point x="348" y="916.2" type="line" smooth="yes"/>
			<point x="544.8" y="1087.6"/>
			<point x="597.8" y="1151.6"/>
			<point x="597.8" y="1250.4" type="curve" smooth="yes"/>
			<point x="597.8" y="1359.6"/>
			<point x="509.8" y="1445.2"/>
			<point x="361" y="1445.2" type="curve" smooth="yes"/>
			<point x="195" y="1445.2"/>
			<point x="80.8" y="1337"/>
			<point x="38.2" y="1155.4" type="curve"/>
			<point x="69.8" y="1149.8" type="line"/>
			<point x="106.8" y="1268"/>
			<point x="177.8" y="1310.8"/>
			<point x="259.8" y="1310.8" type="curve" smooth="yes"/>
			<point x="347.8" y="1310.8"/>
			<point x="402.2" y="1259.4"/>
			<point x="402.2" y="1173" type="curve" smooth="yes"/>
			<point x="402.2" y="1096.4"/>
			<point x="361.2" y="1008.8"/>
			<point x="227.8" y="863.2" type="curve" smooth="yes"/>
			<point x="64.4" y="674.8" type="line"/>
			<point x="64.4" y="662" type="line"/>
			<point x="527.4" y="662" type="line"/>
			<point x="584.6" y="630.2" type="line"/>
			<point x="597.2" y="630.2" type="line"/>
			<point x="670" y="931.8" type="line"/>
			<point x="656" y="931.8" type="line"/>
		</contour>
	</outline>
</glyph>
<glyph name="uni00B3" format="2">
	<unicode hex="00B3"/>
	<advance width="662.2"/>
	<outline>
		<contour>
			<point x="221.8" y="646.8" type="curve" smooth="yes"/>
			<point x="449.2" y="646.8"/>
			<point x="605" y="760.4"/>
			<point x="605" y="922.8" type="curve" smooth="yes"/>
			<point x="605" y="1042.4"/>
			<point x="522" y="1123.2"/>
			<point x="351.2" y="1105" type="curve"/>
			<point x="349.4" y="1096.2" type="line"/>
			<point x="485.2" y="1131.8"/>
			<point x="540.4" y="1203.4"/>
			<point x="540.4" y="1282.8" type="curve" smooth="yes"/>
			<point x="540.4" y="1374.8"/>
			<point x="481.4" y="1445.2"/>
			<point x="346.6" y="1445.2" type="curve" smooth="yes"/>
			<point x="194.2" y="1445.2"/>
			<point x="103.2" y="1357.4"/>
			<point x="66" y="1217.2" type="curve"/>
			<point x="99.2" y="1206.6" type="line"/>
			<point x="125.8" y="1288.2"/>
			<point x="181.4" y="1331.8"/>
			<point x="267.2" y="1331.8" type="curve" smooth="yes"/>
			<point x="337.8" y="1331.8"/>
			<point x="378.2" y="1293.6"/>
			<point x="378.2" y="1229" type="curve" smooth="yes"/>
			<point x="378.2" y="1160.6"/>
			<point x="329.6" y="1107"/>
			<point x="190.8" y="1061.6" type="curve"/>
			<point x="200.6" y="1022.6" type="line"/>
			<point x="234.6" y="1031.6" type="line" smooth="yes"/>
			<point x="370.8" y="1066.2"/>
			<point x="421" y="1011.6"/>
			<point x="421" y="898.8" type="curve" smooth="yes"/>
			<point x="421" y="765.2"/>
			<point x="358.8" y="692.2"/>
			<point x="268.4" y="692.2" type="curve" smooth="yes"/>
			<point x="192" y="692.2"/>
			<point x="127.8" y="802.6"/>
			<point x="105.4" y="802.6" type="curve" smooth="yes"/>
			<point x="71.4" y="802.6"/>
			<point x="45.6" y="774"/>
			<point x="45.6" y="739" type="curve" smooth="yes"/>
			<point x="45.6" y="690.6"/>
			<point x="85" y="646.8"/>
		</contour>
	</outline>
</glyph>
<glyph name="uni00B5" format="2">
	<unicode hex="00B5"/>
	<advance width="1278.6"/>
	<outline>
		<contour>
			<point x="190" y="1024" type="line"/>
			<point x="190" y="-456.8" type="line"/>
			<point x="200" y="-456.8" type="line"/>
			<point x="407" y="-438.6" type="line"/>
			<point x="234.8" y="196" type="line"/>
			<point x="225.6" y="190.8" type="line"/>
			<point x="234" y="41.4"/>
			<point x="339" y="-20"/>
			<point x="465" y="-20" type="curve" smooth="yes"/>
			<point x="591" y="-20"/>
			<point x="665.8" y="11"/>
			<point x="872" y="185" type="curve"/>
			<point x="859.2" y="207.8" type="line"/>
			<point x="798" y="171.2"/>
			<point x="711.2" y="139"/>
			<point x="619.6" y="139" type="curve" smooth="yes"/>
			<point x="485.6" y="139"/>
			<point x="424.8" y="198.4"/>
			<point x="424.8" y="322" type="curve" smooth="yes"/>
			<point x="424.8" y="1024" type="line"/>
		</contour>
		<contour>
			<point x="1047.6" y="188.8" type="curve" smooth="yes"/>
			<point x="1047.6" y="1024" type="line"/>
			<point x="812.8" y="1024" type="line"/>
			<point x="812.8" y="210.4" type="line" smooth="yes"/>
			<point x="812.8" y="58.8"/>
			<point x="857" y="-22"/>
			<point x="987.4" y="-22" type="curve" smooth="yes"/>
			<point x="1078.2" y="-22"/>
			<point x="1150.8" y="-0.4"/>
			<point x="1251.2" y="110.2" type="curve"/>
			<point x="1251.2" y="144.2" type="line"/>
			<point x="1207.4" y="115.8"/>
			<point x="1167" y="103.6"/>
			<point x="1125.8" y="103.6" type="curve" smooth="yes"/>
			<point x="1078.8" y="103.6"/>
			<point x="1047.6" y="127.4"/>
		</contour>
	</outline>
</glyph>
<glyph name="paragraph" format="2">
	<unicode hex="00B6"/>
	<advance width="1208"/>
	<outline>
		<contour>
			<point x="705" y="1430" type="line"/>
			<point x="461.8" y="1430" type="line" smooth="yes"/>
			<point x="168.4" y="1430"/>
			<point x="54.6" y="1265.8"/>
			<point x="54.6" y="1069.4" type="curve" smooth="yes"/>
			<point x="54.6" y="868.4"/>
			<point x="171.2" y="716.6"/>
			<point x="461" y="716.6" type="curve" smooth="yes"/>
			<point x="705" y="716.6" type="line"/>
		</contour>
		<contour>
			<point x="722.6" y="-218" type="line"/>
			<point x="722.6" y="1367.8" type="line"/>
			<point x="905.2" y="1367.8" type="line"/>
			<point x="905.2" y="1430" type="line"/>
			<point x="652.6" y="1430" type="line"/>
			<point x="652.6" y="-218" type="line"/>
		</contour>
		<contour>
			<point x="955.2" y="-218" type="line"/>
			<point x="955.2" y="1369.6" type="line"/>
			<point x="1140.8" y="1405.2" type="line"/>
			<point x="1140.8" y="1430" type="line"/>
			<point x="885.2" y="1430" type="line"/>
			<point x="885.2" y="-218" type="line"/>
		</contour>
	</outline>
</glyph>
<glyph name="uni00B9" format="2">
	<unicode hex="00B9"/>
	<advance width="555.4"/>
	<outline>
		<contour>
			<point x="223.2" y="717.4" type="line"/>
			<point x="80.8" y="685.4" type="line"/>
			<point x="80.8" y="662" type="line"/>
			<point x="526.4" y="662" type="line"/>
			<point x="526.4" y="685.4" type="line"/>
			<point x="397.8" y="717.4" type="line"/>
			<point x="397.8" y="1445.2" type="line"/>
			<point x="371.4" y="1445.2" type="line"/>
			<point x="26.6" y="1272.2" type="line"/>
			<point x="34.2" y="1245.6" type="line"/>
			<point x="325.4" y="1311.4" type="line"/>
			<point x="223.2" y="1341.4" type="line"/>
		</contour>
	</outline>
</glyph>
<glyph name="ordmasculine" format="2">
	<unicode hex="00BA"/>
	<advance width="947.4"/>
	<outline>
		<contour>
			<point x="143.4" y="568" type="line"/>
			<point x="803.8" y="568" type="line"/>
			<point x="803.8" y="631" type="line"/>
			<point x="143.4" y="631" type="line"/>
		</contour>
		<contour>
			<point x="474.8" y="831" type="curve" smooth="yes"/>
			<point x="366.2" y="831"/>
			<point x="315.8" y="941.5272698879"/>
			<point x="315.8" y="1131.6" type="curve" smooth="yes"/>
			<point x="315.8" y="1313.8863108436"/>
			<point x="367.8" y="1408.8"/>
			<point x="472.4" y="1408.8" type="curve" smooth="yes"/>
			<point x="580" y="1408.8"/>
			<point x="631.4" y="1298.4685173581"/>
			<point x="631.4" y="1108.4" type="curve" smooth="yes"/>
			<point x="631.4" y="925.1268687134"/>
			<point x="578.4" y="831"/>
		</contour>
		<contour>
			<point x="466.6" y="788" type="curve" smooth="yes"/>
			<point x="674.2" y="788"/>
			<point x="830.6" y="920.1539823009"/>
			<point x="830.6" y="1124.8" type="curve" smooth="yes"/>
			<point x="830.6" y="1322.6547112462"/>
			<point x="685" y="1452"/>
			<point x="479.6" y="1452" type="curve" smooth="yes"/>
			<point x="271.6" y="1452"/>
			<point x="116.6" y="1318.8554572271"/>
			<point x="116.6" y="1115.2" type="curve" smooth="yes"/>
			<point x="116.6" y="917.3452887538"/>
			<point x="264.6" y="788"/>
		</contour>
	</outline>
</glyph>
<glyph name="guillemotright" format="2">
	<unicode hex="00BB"/>
	<advance width="972.4"/>
	<outline>
		<contour>
			<point x="354.2" y="441" type="line"/>
			<point x="354.2" y="604.2" type="line"/>
			<point x="93.4" y="101.8" type="line"/>
			<point x="111.4" y="87.4" type="line"/>
			<point x="523.2" y="514.6" type="line"/>
			<point x="523.2" y="530.6" type="line"/>
			<point x="111.4" y="957.8" type="line"/>
			<point x="93.4" y="943.4" type="line"/>
		</contour>
		<contour>
			<point x="722.2" y="441" type="line"/>
			<point x="722.2" y="604.2" type="line"/>
			<point x="461.4" y="101.8" type="line"/>
			<point x="479.4" y="87.4" type="line"/>
			<point x="891.2" y="514.6" type="line"/>
			<point x="891.2" y="530.6" type="line"/>
			<point x="479.4" y="957.8" type="line"/>
			<point x="461.4" y="943.4" type="line"/>
		</contour>
	</outline>
</glyph>
<glyph name="questiondown" format="2">
  <advance width="970.4000000000001"/>
  <unicode hex="00BF"/>
  <outline>
    <contour>
      <point x="645.0" y="-428.8" type="curve" smooth="yes"/>
      <point x="845.0" y="-428.8"/>
      <point x="924.5999999999999" y="-365.6"/>
      <point x="924.5999999999999" y="-290.0" type="curve" smooth="yes"/>
      <point x="924.5999999999999" y="-230.2"/>
      <point x="870.0" y="-182.0"/>
      <point x="823.1999999999999" y="-182.0" type="curve" smooth="yes"/>
      <point x="797.0" y="-182.0"/>
      <point x="680.8" y="-339.20000000000005"/>
      <point x="487.8" y="-339.20000000000005" type="curve" smooth="yes"/>
      <point x="319.20000000000005" y="-339.20000000000005"/>
      <point x="219.6" y="-254.4"/>
      <point x="219.6" y="-91.6" type="curve" smooth="yes"/>
      <point x="219.6" y="61.0"/>
      <point x="308.0" y="161.39999999999998"/>
      <point x="653.1999999999999" y="151.79999999999998" type="curve"/>
      <point x="571.4" y="542.2" type="line"/>
      <point x="536.4000000000001" y="542.2" type="line"/>
      <point x="536.4000000000001" y="204.8" type="line"/>
      <point x="568.5999999999999" y="342.0" type="line"/>
      <point x="206.0" y="356.2"/>
      <point x="85.6" y="241.20000000000002"/>
      <point x="85.6" y="14.200000000000001" type="curve" smooth="yes"/>
      <point x="85.6" y="-240.0"/>
      <point x="325.2" y="-428.8"/>
    </contour>
    <contour>
      <point x="550.6" y="736.8" type="curve" smooth="yes"/>
      <point x="641.5999999999999" y="736.8"/>
      <point x="706.6" y="803.8"/>
      <point x="706.6" y="890.0" type="curve" smooth="yes"/>
      <point x="706.6" y="976.1999999999999"/>
      <point x="641.5999999999999" y="1043.2"/>
      <point x="550.6" y="1043.2" type="curve" smooth="yes"/>
      <point x="459.59999999999997" y="1043.2"/>
      <point x="394.6" y="976.1999999999999"/>
      <point x="394.6" y="890.0" type="curve" smooth="yes"/>
      <point x="394.6" y="803.8"/>
      <point x="459.59999999999997" y="736.8"/>
    </contour>
  </outline>
</glyph>
<glyph name="AE" format="2">
	<unicode hex="00C6"/>
	<advance width="2132.6"/>
	<outline>
		<contour>
			<point x="476.2" y="542" type="line"/>
			<point x="1060.4" y="542" type="line"/>
			<point x="1060.4" y="608" type="line"/>
			<point x="476.2" y="608" type="line"/>
		</contour>
		<contour>
			<point x="960.8" y="1430" type="line"/>
			<point x="126.4" y="61.2" type="line"/>
			<point x="-43.2" y="23.2" type="line"/>
			<point x="-43.2" y="0" type="line"/>
			<point x="378.8" y="0" type="line"/>
			<point x="378.8" y="23.2" type="line"/>
			<point x="200" y="59.8" type="line"/>
			<point x="1007.4" y="1387.4" type="line"/>
			<point x="1007.4" y="1430" type="line"/>
		</contour>
		<contour>
			<point x="758.8" y="1405.4" type="line"/>
			<point x="939.4" y="1369" type="line"/>
			<point x="969.6" y="1430" type="line"/>
			<point x="758.8" y="1430" type="line"/>
		</contour>
		<contour>
			<point x="1713.8" y="1047" type="line"/>
			<point x="1689.8" y="1047" type="line"/>
			<point x="1573.2" y="790.8" type="line"/>
			<point x="1126" y="763.4" type="line"/>
			<point x="1126" y="729.8" type="line"/>
			<point x="1573.2" y="706" type="line"/>
			<point x="1689.8" y="447" type="line"/>
			<point x="1713.8" y="447" type="line"/>
			<point x="1675.8" y="746" type="line"/>
		</contour>
		<contour>
			<point x="2029.6" y="1022" type="line"/>
			<point x="1955.2" y="1491" type="line"/>
			<point x="1944.6" y="1491" type="line"/>
			<point x="1808" y="1430" type="line"/>
			<point x="1086.4" y="1430" type="line"/>
			<point x="1086.4" y="1362" type="line"/>
			<point x="1941" y="1362" type="line"/>
			<point x="1784.6" y="1392.6" type="line"/>
			<point x="2001.8" y="1014.2" type="line"/>
		</contour>
		<contour>
			<point x="1810.4" y="38.8" type="line"/>
			<point x="1962.6" y="68" type="line"/>
			<point x="1086.4" y="68" type="line"/>
			<point x="1086.4" y="0" type="line"/>
			<point x="1836.8" y="0" type="line"/>
			<point x="1967" y="-59.8" type="line"/>
			<point x="1979.4" y="-59.8" type="line"/>
			<point x="2090.2" y="414.4" type="line"/>
			<point x="2061.2" y="422.2" type="line"/>
		</contour>
		<contour>
			<point x="817.4" y="0" type="line"/>
			<point x="1255.6" y="0" type="line"/>
			<point x="1255.6" y="1430" type="line"/>
			<point x="989.2" y="1430" type="line"/>
			<point x="989.2" y="74" type="line"/>
			<point x="817.4" y="30.8" type="line"/>
		</contour>
	</outline>
	<anchor name="UCtop" x="1122.4" y="1430"/>
	<anchor name="bottom" x="1122.4" y="0"/>
</glyph>
<glyph name="Ccedilla" format="2">
	<unicode hex="00C7"/>
	<advance width="1429.4"/>
	<outline>
		<contour>
			<point x="904" y="23.4" type="curve" smooth="yes"/>
			<point x="613.8" y="23.4"/>
			<point x="363.8" y="267.2"/>
			<point x="363.8" y="759.8" type="curve" smooth="yes"/>
			<point x="363.8" y="1240"/>
			<point x="576.4" y="1397.8"/>
			<point x="820.8" y="1397.8" type="curve" smooth="yes"/>
			<point x="934.8" y="1397.8"/>
			<point x="1037.8" y="1362.6"/>
			<point x="1158.6" y="1270.4" type="curve"/>
			<point x="1107" y="1328.6" type="line"/>
			<point x="1318" y="978.2" type="line"/>
			<point x="1345.4" y="983.2" type="line"/>
			<point x="1250.4" y="1489.2" type="line"/>
			<point x="1236" y="1489.2" type="line"/>
			<point x="1115.6" y="1396.8" type="line"/>
			<point x="1179.6" y="1412.8" type="line"/>
			<point x="1065.4" y="1439"/>
			<point x="971.4" y="1452"/>
			<point x="858.4" y="1452" type="curve" smooth="yes"/>
			<point x="402.8" y="1452"/>
			<point x="87.2" y="1158.8"/>
			<point x="87.2" y="728.8" type="curve" smooth="yes"/>
			<point x="87.2" y="229.6"/>
			<point x="429.6" y="-22"/>
			<point x="885.2" y="-22" type="curve" smooth="yes"/>
			<point x="1030.2" y="-22"/>
			<point x="1142.4" y="-10"/>
			<point x="1286" y="32.6" type="curve"/>
			<point x="1366.4" y="400.2" type="line"/>
			<point x="1338.6" y="400.2" type="line"/>
			<point x="1146.6" y="94.8" type="line"/>
			<point x="1189.4" y="140.2" type="line"/>
			<point x="1095.4" y="57.4"/>
			<point x="999.6" y="23.4"/>
		</contour>
		<contour>
			<point x="708.4" y="-465" type="curve" smooth="yes"/>
			<point x="848.6" y="-465"/>
			<point x="972.6" y="-379.2"/>
			<point x="972.6" y="-263.8" type="curve" smooth="yes"/>
			<point x="972.6" y="-197.8"/>
			<point x="935.6" y="-137.2"/>
			<point x="752.4" y="-89.8" type="curve"/>
			<point x="723.4" y="-172.4" type="line"/>
			<point x="861.2" y="9.8" type="line"/>
			<point x="812.8" y="9.8" type="line"/>
			<point x="653.4" y="-202.4" type="line"/>
			<point x="653.4" y="-207.4" type="line"/>
			<point x="826.6" y="-244"/>
			<point x="861.8" y="-289"/>
			<point x="861.8" y="-335.8" type="curve" smooth="yes"/>
			<point x="861.8" y="-386.2"/>
			<point x="820.4" y="-420"/>
			<point x="767.8" y="-420" type="curve" smooth="yes"/>
			<point x="700.6" y="-420"/>
			<point x="645.2" y="-340"/>
			<point x="629.2" y="-340" type="curve" smooth="yes"/>
			<point x="598.4" y="-340"/>
			<point x="582.8" y="-365.6"/>
			<point x="582.8" y="-392" type="curve" smooth="yes"/>
			<point x="582.8" y="-433.2"/>
			<point x="616.2" y="-465"/>
		</contour>
	</outline>
</glyph>
<glyph name="multiply" format="2">
	<unicode hex="00D7"/>
	<advance width="1150"/>
	<outline>
		<contour>
			<point x="224" y="212.2" type="line"/>
			<point x="275.2" y="161" type="line"/>
			<point x="926" y="811.8" type="line"/>
			<point x="874.8" y="863" type="line"/>
		</contour>
		<contour>
			<point x="224" y="811.8" type="line"/>
			<point x="874.8" y="161" type="line"/>
			<point x="926" y="212.2" type="line"/>
			<point x="275.2" y="863" type="line"/>
		</contour>
	</outline>
</glyph>
<glyph name="Oslash" format="2">
	<unicode hex="00D8"/>
	<advance width="1643.8"/>
	<outline>
		<contour>
			<point x="400.4" y="298" type="line"/>
			<point x="322.8" y="234.8" type="line"/>
			<point x="101.6" y="0" type="line"/>
			<point x="203.2" y="0" type="line"/>
			<point x="376.8" y="184" type="line"/>
			<point x="446" y="239.6" type="line"/>
			<point x="1244.2" y="1132" type="line"/>
			<point x="1321" y="1195.2" type="line"/>
			<point x="1543" y="1430" type="line"/>
			<point x="1442.2" y="1430" type="line"/>
			<point x="1268.6" y="1246" type="line"/>
			<point x="1199.4" y="1190.4" type="line"/>
		</contour>
		<contour>
			<point x="828.4" y="1452" type="curve" smooth="yes"/>
			<point x="406.8" y="1452"/>
			<point x="102.4" y="1143"/>
			<point x="102.4" y="708.8" type="curve" smooth="yes"/>
			<point x="102.4" y="278.2"/>
			<point x="402.6" y="-22"/>
			<point x="818.6" y="-22" type="curve" smooth="yes"/>
			<point x="1238.6" y="-22"/>
			<point x="1543" y="287"/>
			<point x="1543" y="722.8" type="curve" smooth="yes"/>
			<point x="1543" y="1151.8"/>
			<point x="1242.8" y="1452"/>
		</contour>
		<contour>
			<point x="833.2" y="33.8" type="curve" smooth="yes"/>
			<point x="558.4" y="33.8"/>
			<point x="373" y="295.4"/>
			<point x="373" y="758.4" type="curve" smooth="yes"/>
			<point x="373" y="1168.6"/>
			<point x="543.2" y="1397"/>
			<point x="812.2" y="1397" type="curve" smooth="yes"/>
			<point x="1085.4" y="1397"/>
			<point x="1271.6" y="1134.6"/>
			<point x="1271.6" y="671.6" type="curve" smooth="yes"/>
			<point x="1271.6" y="262.2"/>
			<point x="1101.4" y="33.8"/>
		</contour>
	</outline>
	<anchor name="UCtop" x="822.4" y="1430"/>
	<anchor name="bottom" x="822.4" y="0"/>
</glyph>
<glyph name="Thorn" format="2">
	<unicode hex="00DE"/>
	<advance width="1346.8"/>
	<outline>
		<contour>
			<point x="1011" y="730.6" type="curve" smooth="yes"/>
			<point x="1011" y="515.6"/>
			<point x="865.6" y="402.4"/>
			<point x="668.4" y="402.4" type="curve" smooth="yes"/>
			<point x="344.8" y="402.4" type="line"/>
			<point x="349.2" y="334.4" type="line"/>
			<point x="753" y="334.4" type="line" smooth="yes"/>
			<point x="1119" y="334.4"/>
			<point x="1276.4" y="519"/>
			<point x="1276.4" y="741.2" type="curve" smooth="yes"/>
			<point x="1276.4" y="957.6"/>
			<point x="1126.6" y="1127.8"/>
			<point x="753" y="1127.8" type="curve" smooth="yes"/>
			<point x="349.2" y="1127.8" type="line"/>
			<point x="344.8" y="1059.8" type="line"/>
			<point x="560.8" y="1059.8" type="line" smooth="yes"/>
			<point x="894" y="1059.8"/>
			<point x="1011" y="941.6"/>
		</contour>
		<contour>
			<point x="673.8" y="30.8" type="line"/>
			<point x="502" y="74" type="line"/>
			<point x="502" y="1357" type="line"/>
			<point x="673.8" y="1399" type="line"/>
			<point x="673.8" y="1430" type="line"/>
			<point x="63.8" y="1430" type="line"/>
			<point x="63.8" y="1399" type="line"/>
			<point x="235.6" y="1357" type="line"/>
			<point x="235.6" y="74" type="line"/>
			<point x="63.8" y="30.8" type="line"/>
			<point x="63.8" y="0" type="line"/>
			<point x="673.8" y="0" type="line"/>
		</contour>
	</outline>
</glyph>
<glyph name="germandbls" format="2">
	<unicode hex="00DF"/>
	<advance width="1311.6"/>
	<outline>
		<contour>
			<point x="192" y="988.2" type="curve" smooth="yes"/>
			<point x="192" y="59.2" type="line"/>
			<point x="60.4" y="28.2" type="line"/>
			<point x="60.4" y="0" type="line"/>
			<point x="577.2" y="0" type="line"/>
			<point x="577.2" y="28.2" type="line"/>
			<point x="431.6" y="59.8" type="line"/>
			<point x="431.6" y="1074.4" type="line" smooth="yes"/>
			<point x="431.6" y="1313.6"/>
			<point x="532.2" y="1433.2"/>
			<point x="713" y="1433.2" type="curve" smooth="yes"/>
			<point x="887" y="1433.2"/>
			<point x="963.4" y="1314.4"/>
			<point x="963.4" y="1218" type="curve" smooth="yes"/>
			<point x="963.4" y="976"/>
			<point x="650.2" y="947"/>
			<point x="650.2" y="709.8" type="curve" smooth="yes"/>
			<point x="650.2" y="400.8"/>
			<point x="1108.6" y="482.4"/>
			<point x="1108.6" y="233.2" type="curve" smooth="yes"/>
			<point x="1108.6" y="112.6"/>
			<point x="1028" y="27"/>
			<point x="903.6" y="27" type="curve" smooth="yes"/>
			<point x="853" y="27"/>
			<point x="807" y="38.8"/>
			<point x="771.2" y="57" type="curve"/>
			<point x="809.4" y="18.6" type="line"/>
			<point x="653.2" y="320.2" type="line"/>
			<point x="623.6" y="320.2" type="line"/>
			<point x="677.4" y="16.8" type="line"/>
			<point x="743.4870380249" y="-9.7547266336"/>
			<point x="809.4319634703" y="-20.8"/>
			<point x="900.4" y="-20.8" type="curve" smooth="yes"/>
			<point x="1115.4" y="-20.8"/>
			<point x="1271" y="125"/>
			<point x="1271" y="328" type="curve" smooth="yes"/>
			<point x="1271" y="705.6"/>
			<point x="811" y="636.6"/>
			<point x="811" y="841.4" type="curve" smooth="yes"/>
			<point x="811" y="1022.2"/>
			<point x="1130" y="1019"/>
			<point x="1130" y="1247.2" type="curve" smooth="yes"/>
			<point x="1130" y="1365.6"/>
			<point x="1026.6" y="1486"/>
			<point x="745.8" y="1486" type="curve" smooth="yes"/>
			<point x="446.8" y="1486"/>
			<point x="192" y="1304.4"/>
		</contour>
		<contour>
			<point x="220.6" y="1034.4" type="line"/>
			<point x="27" y="969.8" type="line"/>
			<point x="27" y="938.2" type="line"/>
			<point x="208" y="883.4" type="line"/>
		</contour>
	</outline>
</glyph>
<glyph name="ae" format="2">
	<unicode hex="00E6"/>
	<advance width="1565.6"/>
	<outline>
		<contour>
			<point x="438.6" y="963.6" type="curve" smooth="yes"/>
			<point x="569.8" y="963.6"/>
			<point x="633.6" y="894"/>
			<point x="633.6" y="766.4" type="curve" smooth="yes"/>
			<point x="633.6" y="302.6" type="line" smooth="yes"/>
			<point x="633.6" y="185.8"/>
			<point x="566" y="125.8"/>
			<point x="465.8" y="125.8" type="curve" smooth="yes"/>
			<point x="377.8" y="125.8"/>
			<point x="310.8" y="180.2"/>
			<point x="310.8" y="293.6" type="curve" smooth="yes"/>
			<point x="310.8" y="429.6"/>
			<point x="369" y="509.6"/>
			<point x="700.6" y="616.8" type="curve"/>
			<point x="693.6" y="661.8" type="line"/>
			<point x="157.8" y="488.6"/>
			<point x="75" y="411.8"/>
			<point x="75" y="239.2" type="curve" smooth="yes"/>
			<point x="75" y="72.6"/>
			<point x="193.6" y="-21.4"/>
			<point x="367.4" y="-21.4" type="curve" smooth="yes"/>
			<point x="543.8" y="-21.4"/>
			<point x="651.8" y="92.8"/>
			<point x="661.4" y="297.8" type="curve"/>
			<point x="647" y="294.2" type="line"/>
			<point x="687.2" y="79.8"/>
			<point x="866.8" y="-22"/>
			<point x="1101" y="-22" type="curve" smooth="yes"/>
			<point x="1269.6" y="-22"/>
			<point x="1393.8" y="51"/>
			<point x="1523" y="266.2" type="curve"/>
			<point x="1504.4" y="280.2" type="line"/>
			<point x="1430.2" y="188"/>
			<point x="1328" y="147.4"/>
			<point x="1218.6" y="147.4" type="curve" smooth="yes"/>
			<point x="988.4" y="147.4"/>
			<point x="861.6" y="279.4"/>
			<point x="861.6" y="606.4" type="curve" smooth="yes"/>
			<point x="861.6" y="863.8"/>
			<point x="946.8" y="990.8"/>
			<point x="1091.4" y="990.8" type="curve" smooth="yes"/>
			<point x="1200.8" y="990.8"/>
			<point x="1257" y="887.6"/>
			<point x="1275.4" y="646.6" type="curve"/>
			<point x="1378.2" y="688" type="line"/>
			<point x="834.2" y="688" type="line"/>
			<point x="834.2" y="623.4" type="line"/>
			<point x="1501" y="623.4" type="line"/>
			<point x="1482.4" y="896.6"/>
			<point x="1346.2" y="1046"/>
			<point x="1122.6" y="1046" type="curve" smooth="yes"/>
			<point x="954.6036363636" y="1046"/>
			<point x="828.7164744334" y="961.9451765947"/>
			<point x="745.8" y="839.6" type="curve"/>
			<point x="858.6" y="839.6" type="line"/>
			<point x="830.3815448991" y="966.1162671359"/>
			<point x="736.7405310556" y="1046"/>
			<point x="539.2" y="1046" type="curve" smooth="yes"/>
			<point x="334.4" y="1046"/>
			<point x="83.6" y="914.8"/>
			<point x="83.6" y="800.4" type="curve" smooth="yes"/>
			<point x="83.6" y="758.8"/>
			<point x="115" y="738.8"/>
			<point x="169.6" y="738.8" type="curve" smooth="yes"/>
			<point x="211.4" y="738.8"/>
			<point x="253.4" y="754.2"/>
			<point x="271.8" y="777.8" type="curve" smooth="yes"/>
			<point x="297.4" y="810.2"/>
			<point x="311.8" y="891"/>
			<point x="321.6" y="984.8" type="curve"/>
			<point x="272" y="938.8" type="line"/>
			<point x="308" y="955"/>
			<point x="374.4" y="963.6"/>
		</contour>
	</outline>
	<anchor name="top" x="747.6" y="1024"/>
	<anchor name="bottom" x="747.6" y="0"/>
</glyph>
<glyph name="ccedilla" format="2">
	<unicode hex="00E7"/>
	<advance width="967.8"/>
	<outline>
		<contour>
			<point x="609" y="1046" type="curve" smooth="yes"/>
			<point x="301.8" y="1046"/>
			<point x="69" y="813"/>
			<point x="69" y="493.6" type="curve" smooth="yes"/>
			<point x="69" y="160"/>
			<point x="263.2" y="-22"/>
			<point x="527.6" y="-22" type="curve" smooth="yes"/>
			<point x="691" y="-22"/>
			<point x="811" y="50"/>
			<point x="935.6" y="264.2" type="curve"/>
			<point x="917.8" y="278.2" type="line"/>
			<point x="845.4" y="187"/>
			<point x="747.6" y="147.4"/>
			<point x="640" y="147.4" type="curve" smooth="yes"/>
			<point x="420.2" y="147.4"/>
			<point x="301.8" y="280.4"/>
			<point x="301.8" y="615.2" type="curve" smooth="yes"/>
			<point x="301.8" y="878.6"/>
			<point x="393" y="988.8"/>
			<point x="524.4" y="988.8" type="curve" smooth="yes"/>
			<point x="650.8" y="988.8"/>
			<point x="768.4" y="781.4"/>
			<point x="798" y="781.4" type="curve" smooth="yes"/>
			<point x="862" y="781.4"/>
			<point x="908" y="823"/>
			<point x="908" y="889.8" type="curve" smooth="yes"/>
			<point x="908" y="970.4"/>
			<point x="820.8" y="1046"/>
		</contour>
		<contour>
			<point x="444" y="-465" type="curve" smooth="yes"/>
			<point x="584.2" y="-465"/>
			<point x="708.2" y="-379.2"/>
			<point x="708.2" y="-263.8" type="curve" smooth="yes"/>
			<point x="708.2" y="-197.8"/>
			<point x="671.2" y="-137.2"/>
			<point x="488" y="-89.8" type="curve"/>
			<point x="459" y="-172.4" type="line"/>
			<point x="608.8" y="26.6" type="line"/>
			<point x="560.4" y="26.6" type="line"/>
			<point x="389" y="-202.4" type="line"/>
			<point x="389" y="-207.4" type="line"/>
			<point x="562.2" y="-244"/>
			<point x="597.4" y="-289"/>
			<point x="597.4" y="-335.8" type="curve" smooth="yes"/>
			<point x="597.4" y="-386.2"/>
			<point x="556" y="-420"/>
			<point x="503.4" y="-420" type="curve" smooth="yes"/>
			<point x="436.2" y="-420"/>
			<point x="380.8" y="-340"/>
			<point x="364.8" y="-340" type="curve" smooth="yes"/>
			<point x="334" y="-340"/>
			<point x="318.4" y="-365.6"/>
			<point x="318.4" y="-392" type="curve" smooth="yes"/>
			<point x="318.4" y="-433.2"/>
			<point x="351.8" y="-465"/>
		</contour>
	</outline>
</glyph>
<glyph name="eth" format="2">
	<unicode hex="00F0"/>
	<advance width="1184"/>
	<outline>
		<contour>
			<point x="576.8" y="-22" type="curve" smooth="yes"/>
			<point x="875" y="-22"/>
			<point x="1101" y="187.2"/>
			<point x="1101" y="590.2" type="curve" smooth="yes"/>
			<point x="1101" y="980"/>
			<point x="937" y="1377.8"/>
			<point x="238" y="1485.4" type="curve"/>
			<point x="222.4" y="1450.6" type="line"/>
			<point x="737.4" y="1313"/>
			<point x="843.8" y="1096"/>
			<point x="864.4" y="712.2" type="curve"/>
			<point x="926.6" y="699" type="line"/>
			<point x="888.4" y="927"/>
			<point x="729.2" y="1012"/>
			<point x="575.2" y="1012" type="curve" smooth="yes"/>
			<point x="292.6" y="1012"/>
			<point x="68.4" y="805.2"/>
			<point x="68.4" y="485.8" type="curve" smooth="yes"/>
			<point x="68.4" y="177.6"/>
			<point x="286.4" y="-22"/>
		</contour>
		<contour>
			<point x="586" y="29" type="curve" smooth="yes"/>
			<point x="413.6" y="29"/>
			<point x="320.8" y="206.4"/>
			<point x="320.8" y="507" type="curve" smooth="yes"/>
			<point x="320.8" y="802.2"/>
			<point x="415.6" y="962.2"/>
			<point x="583.2" y="962.2" type="curve" smooth="yes"/>
			<point x="756.4" y="962.2"/>
			<point x="849.2" y="783"/>
			<point x="849.2" y="480.8" type="curve" smooth="yes"/>
			<point x="849.2" y="187"/>
			<point x="754.4" y="29"/>
		</contour>
		<contour>
			<point x="428" y="1098.4" type="line"/>
			<point x="876" y="1458.8" type="line"/>
			<point x="842.2" y="1499.8" type="line"/>
			<point x="393.4" y="1140.2" type="line"/>
		</contour>
	</outline>
</glyph>
<glyph name="divide" format="2">
	<unicode hex="00F7"/>
	<advance width="1150"/>
	<outline>
		<contour>
			<point x="575" y="261.6" type="curve" smooth="yes"/>
			<point x="513" y="261.6"/>
			<point x="467.2" y="212.6"/>
			<point x="467.2" y="154" type="curve" smooth="yes"/>
			<point x="467.2" y="95.4"/>
			<point x="513" y="47.4"/>
			<point x="575" y="47.4" type="curve" smooth="yes"/>
			<point x="637" y="47.4"/>
			<point x="682.8" y="95.4"/>
			<point x="682.8" y="154" type="curve" smooth="yes"/>
			<point x="682.8" y="212.6"/>
			<point x="637" y="261.6"/>
		</contour>
		<contour>
			<point x="575" y="976.6" type="curve" smooth="yes"/>
			<point x="513" y="976.6"/>
			<point x="467.2" y="928.6"/>
			<point x="467.2" y="870" type="curve" smooth="yes"/>
			<point x="467.2" y="811.4"/>
			<point x="513" y="763.2"/>
			<point x="575" y="763.2" type="curve" smooth="yes"/>
			<point x="637" y="763.2"/>
			<point x="682.8" y="811.4"/>
			<point x="682.8" y="870" type="curve" smooth="yes"/>
			<point x="682.8" y="928.6"/>
			<point x="637" y="976.6"/>
		</contour>
		<contour>
			<point x="164" y="548" type="line"/>
			<point x="164" y="476" type="line"/>
			<point x="986" y="476" type="line"/>
			<point x="986" y="548" type="line"/>
		</contour>
	</outline>
</glyph>
<glyph name="oslash" format="2">
	<unicode hex="00F8"/>
	<advance width="1182.2"/>
	<outline>
		<contour>
			<point x="76" y="0" type="line"/>
			<point x="169.6" y="0" type="line"/>
			<point x="282.4" y="122.8" type="line"/>
			<point x="322.8" y="149.6" type="line"/>
			<point x="896.2" y="810.2" type="line"/>
			<point x="941" y="842.8" type="line"/>
			<point x="1106.2" y="1024" type="line"/>
			<point x="1013.4" y="1024" type="line"/>
			<point x="901.4" y="901.2" type="line"/>
			<point x="853" y="864" type="line"/>
			<point x="278.8" y="204.2" type="line"/>
			<point x="242.8" y="182.8" type="line"/>
		</contour>
		<contour>
			<point x="589.2" y="29" type="curve" smooth="yes"/>
			<point x="416.8" y="29"/>
			<point x="334.4" y="197"/>
			<point x="334.4" y="521" type="curve" smooth="yes"/>
			<point x="334.4" y="838.6"/>
			<point x="419.6" y="994.8"/>
			<point x="592.8" y="994.8" type="curve" smooth="yes"/>
			<point x="765.2" y="994.8"/>
			<point x="847.6" y="827"/>
			<point x="847.6" y="503" type="curve" smooth="yes"/>
			<point x="847.6" y="185.2"/>
			<point x="762.4" y="29"/>
		</contour>
		<contour>
			<point x="584" y="-22" type="curve" smooth="yes"/>
			<point x="867.8" y="-22"/>
			<point x="1100.2" y="196.8"/>
			<point x="1100.2" y="512.4" type="curve" smooth="yes"/>
			<point x="1100.2" y="826.4"/>
			<point x="888" y="1046"/>
			<point x="598" y="1046" type="curve" smooth="yes"/>
			<point x="308.6" y="1046"/>
			<point x="82" y="826.2"/>
			<point x="82" y="511.6" type="curve" smooth="yes"/>
			<point x="82" y="198.4"/>
			<point x="300" y="-22"/>
		</contour>
	</outline>
	<anchor name="top" x="591.2" y="1024"/>
	<anchor name="bottom" x="591.2" y="0"/>
</glyph>
<glyph name="thorn" format="2">
	<unicode hex="00FE"/>
	<advance width="1184"/>
	<outline>
		<contour>
			<point x="136.4" y="1285.8" type="curve"/>
			<point x="136.4" y="-383.8" type="line"/>
			<point x="4.8" y="-414.8" type="line"/>
			<point x="4.8" y="-443" type="line"/>
			<point x="522.8" y="-443" type="line"/>
			<point x="522.8" y="-414.8" type="line"/>
			<point x="371.2" y="-383.8" type="line"/>
			<point x="371.2" y="58.2" type="line"/>
			<point x="216.8" y="58.2" type="line"/>
			<point x="316.6" y="2.4"/>
			<point x="442.4" y="-22"/>
			<point x="560.6" y="-22" type="curve" smooth="yes"/>
			<point x="883.2" y="-22"/>
			<point x="1113" y="192.6"/>
			<point x="1113" y="567" type="curve" smooth="yes"/>
			<point x="1113" y="859.6"/>
			<point x="963.6" y="1046"/>
			<point x="706" y="1046" type="curve" smooth="yes"/>
			<point x="592.4" y="1046"/>
			<point x="483.6" y="995.6"/>
			<point x="304.6" y="805.6" type="curve"/>
			<point x="316.6" y="782.2" type="line"/>
			<point x="394.2" y="862.6"/>
			<point x="478.8" y="894.2"/>
			<point x="580.6" y="894.2" type="curve" smooth="yes"/>
			<point x="774.4" y="894.2"/>
			<point x="866.2" y="765.8"/>
			<point x="866.2" y="483.8" type="curve" smooth="yes"/>
			<point x="866.2" y="179.2"/>
			<point x="765.8" y="31"/>
			<point x="591" y="31" type="curve" smooth="yes"/>
			<point x="464.4" y="31"/>
			<point x="371.2" y="116.2"/>
			<point x="371.2" y="239.6" type="curve" smooth="yes"/>
			<point x="371.2" y="1303.2" type="line"/>
			<point x="371.2" y="1486" type="line"/>
			<point x="362.6" y="1486" type="line"/>
			<point x="-26.4" y="1399" type="line"/>
			<point x="-26.4" y="1378" type="line"/>
			<point x="51.6" y="1333.7822767553"/>
			<point x="110.4" y="1300.5392410816"/>
		</contour>
	</outline>
</glyph>
<glyph name="Aogonek" format="2">
	<unicode hex="0104"/>
	<advance width="1492.2"/>
	<outline>
		<contour>
			<point x="338" y="532" type="line"/>
			<point x="1044.2" y="532" type="line"/>
			<point x="1044.2" y="598" type="line"/>
			<point x="338" y="598" type="line"/>
		</contour>
		<contour>
			<point x="1376.6" y="76" type="line"/>
			<point x="766.8" y="1446" type="line"/>
			<point x="673.6" y="1446" type="line"/>
			<point x="132" y="81.2" type="line"/>
			<point x="-21" y="30.4" type="line"/>
			<point x="-21" y="0" type="line"/>
			<point x="391.6" y="0" type="line"/>
			<point x="391.6" y="30.4" type="line"/>
			<point x="204.8" y="78.2" type="line"/>
			<point x="641.6" y="1197.2" type="line"/>
			<point x="605.2" y="1187.6" type="line"/>
			<point x="1094" y="74" type="line"/>
			<point x="915.2" y="30.8" type="line"/>
			<point x="915.2" y="0" type="line"/>
			<point x="1532.6" y="0" type="line"/>
			<point x="1532.6" y="30.8" type="line"/>
		</contour>
		<contour>
			<point x="1237.8" y="-53" type="curve" smooth="yes"/>
			<point x="1311" y="80.2" type="line"/>
			<point x="1285.2" y="80.2" type="line"/>
			<point x="1156" y="-85.4" type="line" smooth="yes"/>
			<point x="1052" y="-215.2"/>
			<point x="1032.8" y="-274"/>
			<point x="1032.8" y="-332.2" type="curve" smooth="yes"/>
			<point x="1032.8" y="-405"/>
			<point x="1081.4" y="-465"/>
			<point x="1185" y="-465" type="curve" smooth="yes"/>
			<point x="1254.4" y="-465"/>
			<point x="1303.2" y="-438.2"/>
			<point x="1396.8" y="-331" type="curve"/>
			<point x="1385" y="-313.2" type="line"/>
			<point x="1330.8" y="-356.2"/>
			<point x="1295.6" y="-362.4"/>
			<point x="1263.4" y="-362.4" type="curve" smooth="yes"/>
			<point x="1198.8" y="-362.4"/>
			<point x="1161.6" y="-329.6"/>
			<point x="1161.6" y="-274.4" type="curve" smooth="yes"/>
			<point x="1161.6" y="-223"/>
			<point x="1180.8" y="-151.2"/>
		</contour>
	</outline>
</glyph>
<glyph name="Dcroat" format="2">
	<unicode hex="0110"/>
	<advance width="1578.4"/>
	<outline>
		<contour>
			<point x="68.4" y="712.4" type="line"/>
			<point x="812.4" y="712.4" type="line"/>
			<point x="812.4" y="782.4" type="line"/>
			<point x="68.4" y="782.4" type="line"/>
		</contour>
		<contour>
			<point x="1215.8" y="726.6" type="curve" smooth="yes"/>
			<point x="1215.8" y="254.2"/>
			<point x="1010" y="68"/>
			<point x="653" y="68" type="curve" smooth="yes"/>
			<point x="367.2" y="68" type="line"/>
			<point x="359" y="0" type="line"/>
			<point x="690.4" y="0" type="line" smooth="yes"/>
			<point x="1145.4" y="0"/>
			<point x="1489.4" y="253"/>
			<point x="1489.4" y="748" type="curve" smooth="yes"/>
			<point x="1489.4" y="1182"/>
			<point x="1193.6" y="1430"/>
			<point x="676.4" y="1430" type="curve" smooth="yes"/>
			<point x="359" y="1430" type="line"/>
			<point x="367.2" y="1362" type="line"/>
			<point x="618.8" y="1362" type="line" smooth="yes"/>
			<point x="1012.6" y="1362"/>
			<point x="1215.8" y="1153.2"/>
		</contour>
		<contour>
			<point x="68.4" y="0" type="line"/>
			<point x="506.6" y="0" type="line"/>
			<point x="506.6" y="1430" type="line"/>
			<point x="68.4" y="1430" type="line"/>
			<point x="68.4" y="1399" type="line"/>
			<point x="240.2" y="1357" type="line"/>
			<point x="240.2" y="74" type="line"/>
			<point x="68.4" y="30.8" type="line"/>
		</contour>
	</outline>
</glyph>
<glyph name="dcroat" format="2">
	<unicode hex="0111"/>
	<advance width="1215.4"/>
	<outline>
		<contour>
			<point x="811.4" y="784.4" type="curve" smooth="yes"/>
			<point x="811.4" y="121.4" type="line"/>
			<point x="817.2" y="-29.4" type="line"/>
			<point x="827" y="-29.4" type="line"/>
			<point x="1201.2" y="23.8" type="line"/>
			<point x="1201.2" y="47.6" type="line"/>
			<point x="1159.2" y="66.8051038415"/>
			<point x="1070.2" y="106.6256549477"/>
			<point x="1046.2" y="117.6" type="curve"/>
			<point x="1046.2" y="1318.4" type="line"/>
			<point x="1057.4" y="1486" type="line"/>
			<point x="1049.6" y="1486" type="line"/>
			<point x="648.6" y="1399" type="line"/>
			<point x="648.6" y="1378" type="line"/>
			<point x="705.6" y="1345.6870483981"/>
			<point x="787.4" y="1299.4054533061"/>
			<point x="811.4" y="1285.8" type="curve"/>
			<point x="811.4" y="943.2" type="line"/>
			<point x="978.6" y="965.6" type="line"/>
			<point x="877.2" y="1021.4"/>
			<point x="749.8" y="1046"/>
			<point x="629.8" y="1046" type="curve" smooth="yes"/>
			<point x="302.4" y="1046"/>
			<point x="69.6" y="832.2"/>
			<point x="69.6" y="462.2" type="curve" smooth="yes"/>
			<point x="69.6" y="171.8"/>
			<point x="235" y="-22"/>
			<point x="496.2" y="-22" type="curve" smooth="yes"/>
			<point x="608.4" y="-22"/>
			<point x="715.2" y="28.8"/>
			<point x="877.8" y="219.2" type="curve"/>
			<point x="865.8" y="242" type="line"/>
			<point x="789" y="160.2"/>
			<point x="704.2" y="129.8"/>
			<point x="604" y="129.8" type="curve" smooth="yes"/>
			<point x="410.8" y="129.8"/>
			<point x="316.4" y="257.8"/>
			<point x="316.4" y="546.4" type="curve" smooth="yes"/>
			<point x="316.4" y="846"/>
			<point x="417.4" y="993"/>
			<point x="591.6" y="993" type="curve" smooth="yes"/>
			<point x="718.2" y="993"/>
			<point x="811.4" y="907.8"/>
		</contour>
		<contour>
			<point x="479" y="1140.8" type="line"/>
			<point x="1233.8" y="1140.8" type="line"/>
			<point x="1233.8" y="1208.4" type="line"/>
			<point x="479" y="1208.4" type="line"/>
		</contour>
	</outline>
</glyph>
<glyph name="Eogonek" format="2">
	<unicode hex="0118"/>
	<advance width="1379"/>
	<outline>
		<contour>
			<point x="960.2" y="1047" type="line"/>
			<point x="936.2" y="1047" type="line"/>
			<point x="819.6" y="790.8" type="line"/>
			<point x="372.4" y="763.4" type="line"/>
			<point x="372.4" y="729.8" type="line"/>
			<point x="819.6" y="706" type="line"/>
			<point x="936.2" y="447" type="line"/>
			<point x="960.2" y="447" type="line"/>
			<point x="922.2" y="746" type="line"/>
		</contour>
		<contour>
			<point x="1276" y="1022" type="line"/>
			<point x="1201.6" y="1491" type="line"/>
			<point x="1191" y="1491" type="line"/>
			<point x="1054.4" y="1430" type="line"/>
			<point x="332.8" y="1430" type="line"/>
			<point x="332.8" y="1362" type="line"/>
			<point x="1187.4" y="1362" type="line"/>
			<point x="1031" y="1392.6" type="line"/>
			<point x="1248.2" y="1014.2" type="line"/>
		</contour>
		<contour>
			<point x="1056.8" y="38.8" type="line"/>
			<point x="1209" y="68" type="line"/>
			<point x="332.8" y="68" type="line"/>
			<point x="332.8" y="0" type="line"/>
			<point x="1083.2" y="0" type="line"/>
			<point x="1213.4" y="-59.8" type="line"/>
			<point x="1225.8" y="-59.8" type="line"/>
			<point x="1336.6" y="414.4" type="line"/>
			<point x="1307.6" y="422.2" type="line"/>
		</contour>
		<contour>
			<point x="63.8" y="0" type="line"/>
			<point x="502" y="0" type="line"/>
			<point x="502" y="1430" type="line"/>
			<point x="63.8" y="1430" type="line"/>
			<point x="63.8" y="1399" type="line"/>
			<point x="235.6" y="1357" type="line"/>
			<point x="235.6" y="74" type="line"/>
			<point x="63.8" y="30.8" type="line"/>
		</contour>
		<contour>
			<point x="1067.4" y="-53.6" type="curve" smooth="yes"/>
			<point x="1159.4" y="80.2" type="line"/>
			<point x="1133.6" y="80.2" type="line"/>
			<point x="984.2" y="-88.2" type="line" smooth="yes"/>
			<point x="867" y="-216"/>
			<point x="845" y="-274.8"/>
			<point x="845" y="-331.4" type="curve" smooth="yes"/>
			<point x="845" y="-408"/>
			<point x="897" y="-465"/>
			<point x="995.8" y="-465" type="curve" smooth="yes"/>
			<point x="1065.2" y="-465"/>
			<point x="1112" y="-438.2"/>
			<point x="1205.6" y="-331" type="curve"/>
			<point x="1193.8" y="-313.2" type="line"/>
			<point x="1139.6" y="-356.2"/>
			<point x="1104.4" y="-362.4"/>
			<point x="1072.2" y="-362.4" type="curve" smooth="yes"/>
			<point x="1009.6" y="-362.4"/>
			<point x="971.6" y="-327.6"/>
			<point x="971.8" y="-270.8" type="curve" smooth="yes"/>
			<point x="972" y="-220.6"/>
			<point x="987.6" y="-167.4"/>
		</contour>
	</outline>
</glyph>
<glyph name="eogonek" format="2">
	<unicode hex="0119"/>
	<advance width="1007.4"/>
	<outline>
		<contour>
			<point x="963.6" y="266.2" type="line"/>
			<point x="945" y="280.2" type="line"/>
			<point x="870.8" y="188"/>
			<point x="768.6" y="147.4"/>
			<point x="659.2" y="147.4" type="curve" smooth="yes"/>
			<point x="429" y="147.4"/>
			<point x="302.2" y="279.4"/>
			<point x="302.2" y="606.4" type="curve" smooth="yes"/>
			<point x="302.2" y="863.8"/>
			<point x="387.4" y="990.8"/>
			<point x="532" y="990.8" type="curve" smooth="yes"/>
			<point x="641.4" y="990.8"/>
			<point x="697.6" y="899.6"/>
			<point x="716" y="675.4" type="curve"/>
			<point x="818.8" y="718.4" type="line"/>
			<point x="274.8" y="718.4" type="line"/>
			<point x="274.8" y="653.8" type="line"/>
			<point x="941.6" y="653.8" type="line"/>
			<point x="923" y="907"/>
			<point x="786.8" y="1046"/>
			<point x="563.2" y="1046" type="curve" smooth="yes"/>
			<point x="247.4" y="1046"/>
			<point x="69.4" y="790.8"/>
			<point x="69.4" y="493.2" type="curve" smooth="yes"/>
			<point x="69.4" y="159.8"/>
			<point x="269.2" y="-22"/>
			<point x="541.6" y="-22" type="curve" smooth="yes"/>
			<point x="662.6" y="-22"/>
			<point x="760.4" y="15.6"/>
			<point x="854.2" y="116.6" type="curve"/>
			<point x="845.8" y="125.8" type="line"/>
			<point x="787.8" y="40.8" type="line" smooth="yes"/>
			<point x="667.6" y="-136"/>
			<point x="606.2" y="-224.6"/>
			<point x="606.2" y="-316.8" type="curve" smooth="yes"/>
			<point x="606.2" y="-407"/>
			<point x="667.6" y="-465"/>
			<point x="768.8" y="-465" type="curve" smooth="yes"/>
			<point x="845.4" y="-465"/>
			<point x="894.2" y="-438.2"/>
			<point x="987.8" y="-331" type="curve"/>
			<point x="976" y="-313.2" type="line"/>
			<point x="923.8" y="-354.8"/>
			<point x="889.4" y="-362.4"/>
			<point x="854.4" y="-362.4" type="curve" smooth="yes"/>
			<point x="777.4" y="-362.4"/>
			<point x="736.6" y="-318"/>
			<point x="736.6" y="-241.8" type="curve" smooth="yes"/>
			<point x="736.6" y="-170.4"/>
			<point x="767.6" y="-74.4"/>
			<point x="862.8" y="91.4" type="curve" smooth="yes"/>
		</contour>
	</outline>
</glyph>
<glyph name="Hbar" format="2">
	<unicode hex="0126"/>
	<advance width="1693.6"/>
	<outline>
		<contour>
			<point x="504" y="74" type="line"/>
			<point x="504" y="1357" type="line"/>
			<point x="675.8" y="1399" type="line"/>
			<point x="675.8" y="1430" type="line"/>
			<point x="65.8" y="1430" type="line"/>
			<point x="65.8" y="1399" type="line"/>
			<point x="237.6" y="1357" type="line"/>
			<point x="237.6" y="74" type="line"/>
			<point x="65.8" y="30.8" type="line"/>
			<point x="65.8" y="0" type="line"/>
			<point x="675.8" y="0" type="line"/>
			<point x="675.8" y="30.8" type="line"/>
		</contour>
		<contour>
			<point x="1456" y="74" type="line"/>
			<point x="1456" y="1357" type="line"/>
			<point x="1627.8" y="1399" type="line"/>
			<point x="1627.8" y="1430" type="line"/>
			<point x="1017.8" y="1430" type="line"/>
			<point x="1017.8" y="1399" type="line"/>
			<point x="1189.6" y="1357" type="line"/>
			<point x="1189.6" y="74" type="line"/>
			<point x="1017.8" y="30.8" type="line"/>
			<point x="1017.8" y="0" type="line"/>
			<point x="1627.8" y="0" type="line"/>
			<point x="1627.8" y="30.8" type="line"/>
		</contour>
		<contour>
			<point x="65.8" y="1053.2" type="line"/>
			<point x="1627.8" y="1053.2" type="line"/>
			<point x="1627.8" y="1123.2" type="line"/>
			<point x="65.8" y="1123.2" type="line"/>
		</contour>
		<contour>
			<point x="353.2" y="706.4" type="line"/>
			<point x="1337.4" y="706.4" type="line"/>
			<point x="1337.4" y="774.4" type="line"/>
			<point x="353.2" y="774.4" type="line"/>
		</contour>
	</outline>
</glyph>
<glyph name="hbar" format="2">
	<unicode hex="0127"/>
	<advance width="1210.4"/>
	<outline>
		<contour>
			<point x="685.6" y="28.2" type="line"/>
			<point x="685.6" y="0" type="line"/>
			<point x="1182" y="0" type="line"/>
			<point x="1182" y="28.2" type="line"/>
			<point x="1050.6" y="59.2" type="line"/>
			<point x="1050.6" y="725" type="line" smooth="yes"/>
			<point x="1050.6" y="942.6"/>
			<point x="965.2" y="1044"/>
			<point x="772.6" y="1044" type="curve" smooth="yes"/>
			<point x="645.4" y="1044"/>
			<point x="569.2" y="1013"/>
			<point x="361.2" y="836.8" type="curve"/>
			<point x="371.6" y="816.6" type="line"/>
			<point x="434.8" y="847"/>
			<point x="525" y="877.8"/>
			<point x="617.8" y="877.8" type="curve" smooth="yes"/>
			<point x="754" y="877.8"/>
			<point x="815.8" y="817.8"/>
			<point x="815.8" y="691.6" type="curve" smooth="yes"/>
			<point x="815.8" y="58.6" type="line"/>
		</contour>
		<contour>
			<point x="529" y="0" type="line"/>
			<point x="529" y="28.2" type="line"/>
			<point x="399.6" y="58.6" type="line"/>
			<point x="399.6" y="943.2" type="line"/>
			<point x="399.6" y="1486" type="line"/>
			<point x="391" y="1486" type="line"/>
			<point x="2" y="1396.8" type="line"/>
			<point x="2" y="1375.8" type="line"/>
			<point x="80" y="1329.6563508294"/>
			<point x="138.8" y="1294.9812163902"/>
			<point x="164.8" y="1279.6" type="curve"/>
			<point x="164.8" y="59.2" type="line"/>
			<point x="33.2" y="28.2" type="line"/>
			<point x="33.2" y="0" type="line"/>
		</contour>
		<contour>
			<point x="-22.8" y="1140.8" type="line"/>
			<point x="732" y="1140.8" type="line"/>
			<point x="732" y="1208.4" type="line"/>
			<point x="-22.8" y="1208.4" type="line"/>
		</contour>
	</outline>
</glyph>
<glyph name="Iogonek" format="2">
	<unicode hex="012E"/>
	<advance width="737.6"/>
	<outline>
		<contour>
			<point x="673.8" y="30.8" type="line"/>
			<point x="502" y="74" type="line"/>
			<point x="502" y="1357" type="line"/>
			<point x="673.8" y="1399" type="line"/>
			<point x="673.8" y="1430" type="line"/>
			<point x="63.8" y="1430" type="line"/>
			<point x="63.8" y="1399" type="line"/>
			<point x="235.6" y="1357" type="line"/>
			<point x="235.6" y="74" type="line"/>
			<point x="63.8" y="30.8" type="line"/>
			<point x="63.8" y="0" type="line"/>
			<point x="673.8" y="0" type="line"/>
		</contour>
		<contour>
			<point x="383.4" y="-52.8" type="curve" smooth="yes"/>
			<point x="439" y="80.2" type="line"/>
			<point x="413.2" y="80.2" type="line"/>
			<point x="309.6" y="-86.2" type="line" smooth="yes"/>
			<point x="216.2" y="-233.8"/>
			<point x="197.4" y="-281.2"/>
			<point x="197.4" y="-332.2" type="curve" smooth="yes"/>
			<point x="197.4" y="-405"/>
			<point x="246" y="-465"/>
			<point x="349.6" y="-465" type="curve" smooth="yes"/>
			<point x="419" y="-465"/>
			<point x="467.8" y="-438.2"/>
			<point x="561.4" y="-331" type="curve"/>
			<point x="549.6" y="-313.2" type="line"/>
			<point x="495.4" y="-356.2"/>
			<point x="460.2" y="-362.4"/>
			<point x="428" y="-362.4" type="curve" smooth="yes"/>
			<point x="365.8" y="-362.4"/>
			<point x="326.2" y="-328"/>
			<point x="326.2" y="-268.8" type="curve" smooth="yes"/>
			<point x="326.2" y="-226.2"/>
			<point x="330.8" y="-176.6"/>
		</contour>
	</outline>
</glyph>
<glyph name="iogonek" format="2">
	<unicode hex="012F"/>
	<advance width="581.4"/>
	<outline>
		<contour>
			<point x="284.8" y="1186" type="curve" smooth="yes"/>
			<point x="376.4" y="1186"/>
			<point x="429.4" y="1257.8"/>
			<point x="429.4" y="1335.2" type="curve" smooth="yes"/>
			<point x="429.4" y="1411"/>
			<point x="376.4" y="1474.8"/>
			<point x="284.8" y="1474.8" type="curve" smooth="yes"/>
			<point x="193.4" y="1474.8"/>
			<point x="136.6" y="1411"/>
			<point x="136.6" y="1335.2" type="curve" smooth="yes"/>
			<point x="136.6" y="1257.8"/>
			<point x="193.4" y="1186"/>
		</contour>
		<contour>
			<point x="416.8" y="1054.8" type="line"/>
			<point x="408.2" y="1054.8" type="line"/>
			<point x="45.2" y="954.4" type="line"/>
			<point x="45.2" y="933.4" type="line"/>
			<point x="106.2" y="886.8920704296"/>
			<point x="160" y="849.1733516484"/>
			<point x="182" y="832.4" type="curve"/>
			<point x="182" y="59.2" type="line"/>
			<point x="50.4" y="28.2" type="line"/>
			<point x="50.4" y="0" type="line"/>
			<point x="546.2" y="0" type="line"/>
			<point x="546.2" y="28.2" type="line"/>
			<point x="416.8" y="58.6" type="line"/>
			<point x="416.8" y="855.2" type="line"/>
		</contour>
		<contour>
			<point x="298.2" y="-51.2" type="curve" smooth="yes"/>
			<point x="358.6" y="80.2" type="line"/>
			<point x="332.8" y="80.2" type="line"/>
			<point x="223.6" y="-84.6" type="line" smooth="yes"/>
			<point x="132.6" y="-219.4"/>
			<point x="105.8" y="-274"/>
			<point x="105.8" y="-332.2" type="curve" smooth="yes"/>
			<point x="105.8" y="-405"/>
			<point x="150.4" y="-465"/>
			<point x="254" y="-465" type="curve" smooth="yes"/>
			<point x="323.4" y="-465"/>
			<point x="372.2" y="-438.2"/>
			<point x="465.8" y="-331" type="curve"/>
			<point x="454" y="-313.2" type="line"/>
			<point x="399.8" y="-356.2"/>
			<point x="364.6" y="-362.4"/>
			<point x="332.4" y="-362.4" type="curve" smooth="yes"/>
			<point x="270.2" y="-362.4"/>
			<point x="234.6" y="-328"/>
			<point x="234.6" y="-274.4" type="curve" smooth="yes"/>
			<point x="234.6" y="-226.2"/>
			<point x="240.8" y="-175"/>
		</contour>
	</outline>
</glyph>
<glyph name="dotlessi" format="2">
  <advance width="581.4"/>
  <unicode hex="0131"/>
  <anchor x="281.40000000000003" y="1024.0" name="top"/>
  <anchor x="293.59999999999997" y="0.0" name="bottom"/>
  <anchor x="465.59999999999997" y="0.0" name="right"/>
  <outline>
    <contour>
      <point x="416.79999999999995" y="1054.8" type="line"/>
      <point x="408.2" y="1054.8" type="line"/>
      <point x="45.2" y="954.4" type="line"/>
      <point x="45.2" y="933.4000000000001" type="line"/>
      <point x="106.2" y="886.8920704295704"/>
      <point x="159.6" y="849.476923076923"/>
      <point x="182.0" y="832.4" type="curve"/>
      <point x="182.0" y="59.199999999999996" type="line"/>
      <point x="50.4" y="28.2" type="line"/>
      <point x="50.4" y="0.0" type="line"/>
      <point x="546.1999999999999" y="0.0" type="line"/>
      <point x="546.1999999999999" y="28.2" type="line"/>
      <point x="416.8" y="58.6" type="line"/>
      <point x="416.8" y="855.1999999999999" type="line"/>
    </contour>
  </outline>
</glyph>
<glyph name="kgreenlandic" format="2">
  <advance width="1191"/>
  <unicode hex="0138"/>
  <outline>
    <contour>
      <point x="424.2" y="495.8" type="line"/>
      <point x="827.4" y="55.4" type="line"/>
      <point x="704.8" y="28.2" type="line"/>
      <point x="704.8" y="0.0" type="line"/>
      <point x="1214.6000000000001" y="0.0" type="line"/>
      <point x="1214.6000000000001" y="28.2" type="line"/>
      <point x="1108.6000000000001" y="58.6" type="line"/>
      <point x="594.0" y="634.4" type="line"/>
      <point x="520.2" y="563.2" type="line"/>
      <point x="991.8" y="956.4" type="line"/>
      <point x="1145.0" y="991.0" type="line"/>
      <point x="1145.0" y="1024.0" type="line"/>
      <point x="745.4000000000001" y="1024.0" type="line"/>
      <point x="745.4000000000001" y="991.0" type="line"/>
      <point x="895.6" y="958.2" type="line"/>
      <point x="433.2" y="547.2" type="line"/>
      <point x="365.2" y="547.2" type="line"/>
      <point x="365.2" y="495.8" type="line"/>
    </contour>
    <contour>
      <point x="414.2" y="1054.8" type="line"/>
      <point x="405.6" y="1054.8" type="line"/>
      <point x="42.6" y="954.4" type="line"/>
      <point x="42.6" y="933.4000000000001" type="line"/>
      <point x="103.6" y="886.8920704295704"/>
      <point x="157.4" y="849.1733516483516"/>
      <point x="179.4" y="832.4" type="curve"/>
      <point x="179.4" y="59.199999999999996" type="line"/>
      <point x="47.8" y="28.2" type="line"/>
      <point x="47.8" y="0.0" type="line"/>
      <point x="543.6" y="0.0" type="line"/>
      <point x="543.6" y="28.2" type="line"/>
      <point x="414.2" y="58.6" type="line"/>
      <point x="414.2" y="855.1999999999999" type="line"/>
    </contour>
  </outline>
</glyph>
<glyph name="Lslash" format="2">
	<unicode hex="0141"/>
	<advance width="1298"/>
	<outline>
		<contour>
			<point x="325.2" y="633.6" type="line"/>
			<point x="447" y="664" type="line"/>
			<point x="845.2" y="881.8" type="line"/>
			<point x="845.2" y="960.4" type="line"/>
			<point x="447" y="742.6" type="line"/>
			<point x="325.2" y="713" type="line"/>
			<point x="87.8" y="583" type="line"/>
			<point x="87.8" y="503.6" type="line"/>
		</contour>
		<contour>
			<point x="1167.8" y="-59.8" type="line"/>
			<point x="1278.6" y="414.4" type="line"/>
			<point x="1249.6" y="422.2" type="line"/>
			<point x="994.8" y="38.8" type="line"/>
			<point x="1151" y="68" type="line"/>
			<point x="356.8" y="68" type="line"/>
			<point x="356.8" y="0" type="line"/>
			<point x="1021.2" y="0" type="line"/>
			<point x="1155.4" y="-59.8" type="line"/>
		</contour>
		<contour>
			<point x="526" y="1357" type="line"/>
			<point x="697.8" y="1399" type="line"/>
			<point x="697.8" y="1430" type="line"/>
			<point x="87.8" y="1430" type="line"/>
			<point x="87.8" y="1399" type="line"/>
			<point x="259.6" y="1357" type="line"/>
			<point x="259.6" y="74" type="line"/>
			<point x="87.8" y="30.8" type="line"/>
			<point x="87.8" y="0" type="line"/>
			<point x="526" y="0" type="line"/>
		</contour>
	</outline>
</glyph>
<glyph name="lslash" format="2">
	<unicode hex="0142"/>
	<advance width="628"/>
	<outline>
		<contour>
			<point x="274.2" y="655.8" type="line"/>
			<point x="339.4" y="662.4" type="line"/>
			<point x="587.6" y="855.6" type="line"/>
			<point x="587.6" y="946" type="line"/>
			<point x="339.4" y="752.8" type="line"/>
			<point x="274.2" y="746.2" type="line"/>
			<point x="47.6" y="570.4" type="line"/>
			<point x="47.6" y="480" type="line"/>
		</contour>
		<contour>
			<point x="431.8" y="59.2" type="line"/>
			<point x="431.8" y="1303.2" type="line"/>
			<point x="431.8" y="1486" type="line"/>
			<point x="423.2" y="1486" type="line"/>
			<point x="34.2" y="1399" type="line"/>
			<point x="34.2" y="1378" type="line"/>
			<point x="112.2" y="1333.7822767553"/>
			<point x="171" y="1300.5392410816"/>
			<point x="197" y="1285.8" type="curve"/>
			<point x="197" y="59.2" type="line"/>
			<point x="65.4" y="28.2" type="line"/>
			<point x="65.4" y="0" type="line"/>
			<point x="563.4" y="0" type="line"/>
			<point x="563.4" y="28.2" type="line"/>
		</contour>
	</outline>
</glyph>
<glyph name="Eng" format="2">
	<unicode hex="014A"/>
	<advance width="1550.6"/>
	<outline>
		<contour>
			<point x="1304" y="360.8" type="line"/>
			<point x="512.8" y="1430" type="line"/>
			<point x="44.2" y="1430" type="line"/>
			<point x="44.2" y="1400.8" type="line"/>
			<point x="243" y="1338" type="line"/>
			<point x="243" y="73.6" type="line"/>
			<point x="69.2" y="30.8" type="line"/>
			<point x="69.2" y="0" type="line"/>
			<point x="500" y="0" type="line"/>
			<point x="500" y="30.8" type="line"/>
			<point x="310.4" y="73.6" type="line"/>
			<point x="310.4" y="1349.8" type="line"/>
			<point x="281.2" y="1321.8" type="line"/>
			<point x="1284" y="-25.2" type="line"/>
		</contour>
		<contour>
			<point x="1325.6" y="27.8" type="curve" smooth="yes"/>
			<point x="1325.6" y="1356.2" type="line"/>
			<point x="1499.4" y="1399" type="line"/>
			<point x="1499.4" y="1430" type="line"/>
			<point x="1067.6" y="1430" type="line"/>
			<point x="1067.6" y="1399" type="line"/>
			<point x="1258.2" y="1356.2" type="line"/>
			<point x="1258.2" y="19" type="line" smooth="yes"/>
			<point x="1258.2" y="-232"/>
			<point x="1162.2" y="-307.6"/>
			<point x="1056.6" y="-307.6" type="curve" smooth="yes"/>
			<point x="970.8" y="-307.6"/>
			<point x="901" y="-244.4"/>
			<point x="882.6" y="-244.4" type="curve" smooth="yes"/>
			<point x="844.8" y="-244.4"/>
			<point x="803" y="-278.2"/>
			<point x="803" y="-338" type="curve" smooth="yes"/>
			<point x="803" y="-404.6"/>
			<point x="849.8" y="-465"/>
			<point x="964.6" y="-465" type="curve" smooth="yes"/>
			<point x="1163" y="-465"/>
			<point x="1325.6" y="-320.6"/>
		</contour>
	</outline>
</glyph>
<glyph name="eng" format="2">
	<unicode hex="014B"/>
	<advance width="1188"/>
	<outline>
		<contour>
			<point x="414.2" y="845.4" type="line"/>
			<point x="414.2" y="1054.8" type="line"/>
			<point x="405.6" y="1054.8" type="line"/>
			<point x="42.6" y="954.4" type="line"/>
			<point x="42.6" y="933.4" type="line"/>
			<point x="123.8" y="876.9818181818"/>
			<point x="157.2" y="849.6769230769"/>
			<point x="179.4" y="832.4" type="curve"/>
			<point x="179.4" y="59.2" type="line"/>
			<point x="47.8" y="28.2" type="line"/>
			<point x="47.8" y="0" type="line"/>
			<point x="543.6" y="0" type="line"/>
			<point x="543.6" y="28.2" type="line"/>
			<point x="414.2" y="58.6" type="line"/>
		</contour>
		<contour>
			<point x="830.4" y="-11.4" type="line" smooth="yes"/>
			<point x="830.4" y="-220.8"/>
			<point x="824.8" y="-251.2"/>
			<point x="662.6" y="-442.8" type="curve"/>
			<point x="683.2" y="-463" type="line"/>
			<point x="1045" y="-169.4"/>
			<point x="1065.2" y="-127.2"/>
			<point x="1065.2" y="81.8" type="curve" smooth="yes"/>
			<point x="1065.2" y="725" type="line" smooth="yes"/>
			<point x="1065.2" y="942.6"/>
			<point x="979.8" y="1044"/>
			<point x="787.2" y="1044" type="curve" smooth="yes"/>
			<point x="660" y="1044"/>
			<point x="583.8" y="1013"/>
			<point x="375.8" y="836.8" type="curve"/>
			<point x="386.2" y="816.6" type="line"/>
			<point x="449.4" y="847"/>
			<point x="539.6" y="877.8"/>
			<point x="632.4" y="877.8" type="curve" smooth="yes"/>
			<point x="768.6" y="877.8"/>
			<point x="830.4" y="817.8"/>
			<point x="830.4" y="691.6" type="curve" smooth="yes"/>
		</contour>
	</outline>
</glyph>
<glyph name="OE" format="2">
	<unicode hex="0152"/>
	<advance width="2240.8"/>
	<outline>
		<contour>
			<point x="1822" y="1047" type="line"/>
			<point x="1798" y="1047" type="line"/>
			<point x="1681.4" y="790.8" type="line"/>
			<point x="1234.2" y="763.4" type="line"/>
			<point x="1234.2" y="729.8" type="line"/>
			<point x="1681.4" y="706" type="line"/>
			<point x="1798" y="447" type="line"/>
			<point x="1822" y="447" type="line"/>
			<point x="1784" y="746" type="line"/>
		</contour>
		<contour>
			<point x="1097.4" y="1430" type="line"/>
			<point x="1097.4" y="0" type="line"/>
			<point x="1363.8" y="0" type="line"/>
			<point x="1363.8" y="1430" type="line"/>
		</contour>
		<contour>
			<point x="913.6" y="0" type="curve" smooth="yes"/>
			<point x="1945" y="0" type="line"/>
			<point x="2075.2" y="-59.8" type="line"/>
			<point x="2087.6" y="-59.8" type="line"/>
			<point x="2198.4" y="414.4" type="line"/>
			<point x="2169.4" y="422.2" type="line"/>
			<point x="1918.6" y="38.8" type="line"/>
			<point x="2070.8" y="68" type="line"/>
			<point x="971.2" y="68" type="line" smooth="yes"/>
			<point x="577.4" y="68"/>
			<point x="362.2" y="276.8"/>
			<point x="362.2" y="703.4" type="curve" smooth="yes"/>
			<point x="362.2" y="1175.8"/>
			<point x="580" y="1362"/>
			<point x="937" y="1362" type="curve" smooth="yes"/>
			<point x="2049.2" y="1362" type="line"/>
			<point x="1892.8" y="1392.6" type="line"/>
			<point x="2110" y="1014.2" type="line"/>
			<point x="2137.8" y="1022" type="line"/>
			<point x="2063.4" y="1491" type="line"/>
			<point x="2052.8" y="1491" type="line"/>
			<point x="1916.2" y="1430" type="line"/>
			<point x="899.6" y="1430" type="line" smooth="yes"/>
			<point x="444.6" y="1430"/>
			<point x="88.6" y="1177"/>
			<point x="88.6" y="682" type="curve" smooth="yes"/>
			<point x="88.6" y="248"/>
			<point x="396.4" y="0"/>
		</contour>
	</outline>
</glyph>
<glyph name="oe" format="2">
	<unicode hex="0153"/>
	<advance width="1787.2"/>
	<outline>
		<contour>
			<point x="574.8" y="29" type="curve" smooth="yes"/>
			<point x="402.4" y="29"/>
			<point x="320" y="197"/>
			<point x="320" y="521" type="curve" smooth="yes"/>
			<point x="320" y="838.6"/>
			<point x="405.2" y="994.8"/>
			<point x="578.4" y="994.8" type="curve" smooth="yes"/>
			<point x="750.8" y="994.8"/>
			<point x="833.2" y="827"/>
			<point x="833.2" y="503" type="curve" smooth="yes"/>
			<point x="833.2" y="185.2"/>
			<point x="748" y="29"/>
		</contour>
		<contour>
			<point x="1008.6" y="237.6" type="curve"/>
			<point x="907.4" y="237.6" type="line"/>
			<point x="983" y="66.6"/>
			<point x="1136" y="-22"/>
			<point x="1322.6" y="-22" type="curve" smooth="yes"/>
			<point x="1491.2" y="-22"/>
			<point x="1615.4" y="51"/>
			<point x="1744.6" y="266.2" type="curve"/>
			<point x="1726" y="280.2" type="line"/>
			<point x="1651.8" y="188"/>
			<point x="1549.6" y="147.4"/>
			<point x="1440.2" y="147.4" type="curve" smooth="yes"/>
			<point x="1210" y="147.4"/>
			<point x="1083.2" y="279.4"/>
			<point x="1083.2" y="606.4" type="curve" smooth="yes"/>
			<point x="1083.2" y="863.8"/>
			<point x="1168.4" y="990.8"/>
			<point x="1313" y="990.8" type="curve" smooth="yes"/>
			<point x="1422.4" y="990.8"/>
			<point x="1478.6" y="899.6"/>
			<point x="1497" y="675.4" type="curve"/>
			<point x="1599.8" y="718.4" type="line"/>
			<point x="1055.8" y="718.4" type="line"/>
			<point x="1055.8" y="653.8" type="line"/>
			<point x="1722.6" y="653.8" type="line"/>
			<point x="1704" y="907"/>
			<point x="1567.8" y="1046"/>
			<point x="1344.2" y="1046" type="curve" smooth="yes"/>
			<point x="1145" y="1046"/>
			<point x="999" y="939.4"/>
			<point x="920" y="783" type="curve"/>
			<point x="1015.2" y="783" type="line"/>
			<point x="931" y="945"/>
			<point x="774.8" y="1046"/>
			<point x="583.6" y="1046" type="curve" smooth="yes"/>
			<point x="294.2" y="1046"/>
			<point x="67.6" y="826.2"/>
			<point x="67.6" y="511.6" type="curve" smooth="yes"/>
			<point x="67.6" y="198.4"/>
			<point x="285.6" y="-22"/>
			<point x="569.6" y="-22" type="curve" smooth="yes"/>
			<point x="755.2" y="-22"/>
			<point x="919.2" y="75.8"/>
		</contour>
	</outline>
	<anchor name="top" x="952" y="1024"/>
	<anchor name="bottom" x="952" y="0"/>
</glyph>
<glyph name="Scedilla" format="2">
  <advance width="1157"/>
  <unicode hex="015E"/>
  <outline>
    <contour>
      <point x="946.8000000000001" y="1365.0" type="line"/>
      <point x="833.4" y="1425.8"/>
      <point x="732.8" y="1452.8"/>
      <point x="603.8000000000001" y="1452.8" type="curve" smooth="yes"/>
      <point x="309.6" y="1452.8"/>
      <point x="122.4" y="1299.2"/>
      <point x="122.4" y="1054.4" type="curve" smooth="yes"/>
      <point x="122.4" y="827.0"/>
      <point x="285.0" y="746.4"/>
      <point x="472.8" y="676.2" type="curve" smooth="yes"/>
      <point x="660.6" y="606.0"/>
      <point x="876.8" y="552.0"/>
      <point x="876.8" y="325.2" type="curve" smooth="yes"/>
      <point x="876.8" y="139.6"/>
      <point x="748.2" y="27.2"/>
      <point x="509.2" y="27.2" type="curve" smooth="yes"/>
      <point x="406.4" y="27.2"/>
      <point x="322.6" y="65.2"/>
      <point x="207.79999999999998" y="130.8" type="curve"/>
      <point x="371.8" y="20.8" type="line"/>
      <point x="108.19999999999999" y="430.8" type="line"/>
      <point x="77.8" y="430.8" type="line"/>
      <point x="161.8" y="40.4" type="line"/>
      <point x="280.2" y="-7.2"/>
      <point x="381.6" y="-22.8"/>
      <point x="520.1999999999999" y="-22.8" type="curve" smooth="yes"/>
      <point x="819.6" y="-22.8"/>
      <point x="1065.4" y="161.8"/>
      <point x="1065.4" y="439.0" type="curve" smooth="yes"/>
      <point x="1065.4" y="732.8"/>
      <point x="856.0" y="821.1999999999999"/>
      <point x="665.4000000000001" y="886.8" type="curve" smooth="yes"/>
      <point x="474.8" y="952.4"/>
      <point x="299.6" y="998.8000000000001"/>
      <point x="299.6" y="1178.3999999999999" type="curve" smooth="yes"/>
      <point x="299.6" y="1307.2"/>
      <point x="373.8" y="1394.6"/>
      <point x="544.6" y="1394.6" type="curve" smooth="yes"/>
      <point x="659.0" y="1394.6"/>
      <point x="766.8" y="1345.4"/>
      <point x="858.4000000000001" y="1259.2" type="curve"/>
      <point x="791.2" y="1342.4" type="line"/>
      <point x="987.0" y="1011.0" type="line"/>
      <point x="1013.4" y="1016.0" type="line"/>
      <point x="947.6" y="1489.2" type="line"/>
      <point x="929.6" y="1489.2" type="line"/>
      <point x="814.8" y="1391.0" type="line"/>
    </contour>
    <contour>
      <point x="475.4" y="-465.0" type="curve" smooth="yes"/>
      <point x="615.6" y="-465.0"/>
      <point x="739.6" y="-379.2"/>
      <point x="739.6" y="-263.8" type="curve" smooth="yes"/>
      <point x="739.6" y="-197.79999999999998"/>
      <point x="702.6" y="-137.2"/>
      <point x="519.4" y="-89.8" type="curve"/>
      <point x="490.4" y="-172.4" type="line"/>
      <point x="640.2" y="26.6" type="line"/>
      <point x="591.8" y="26.6" type="line"/>
      <point x="420.4" y="-202.4" type="line"/>
      <point x="420.4" y="-207.39999999999998" type="line"/>
      <point x="593.6" y="-244.0"/>
      <point x="628.8" y="-289.0"/>
      <point x="628.8" y="-335.8" type="curve" smooth="yes"/>
      <point x="628.8" y="-386.2"/>
      <point x="587.4" y="-420.0"/>
      <point x="534.8000000000001" y="-420.0" type="curve" smooth="yes"/>
      <point x="467.6" y="-420.0"/>
      <point x="412.2" y="-340.0"/>
      <point x="396.2" y="-340.0" type="curve" smooth="yes"/>
      <point x="365.4" y="-340.0"/>
      <point x="349.79999999999995" y="-365.6"/>
      <point x="349.79999999999995" y="-392.0" type="curve" smooth="yes"/>
      <point x="349.79999999999995" y="-433.2"/>
      <point x="383.2" y="-465.0"/>
    </contour>
  </outline>
</glyph>
